<svg width="308" height="283" viewBox="0 0 308 283" fill="none" xmlns="http://www.w3.org/2000/svg">
<path d="M45.0741 227.233L117.529 252.284L124.475 237.353L128.871 252.557L195.963 243.634L169.255 187.159L225.347 197.426L225.391 195.603C225.813 194.904 226.803 192.517 227.384 188.558C228.112 183.611 230.602 176.983 233.451 172.289C233.57 167.347 245.106 159.566 250.859 156.293C203.014 150.041 106.072 137.263 101.073 136.169C96.0732 135.076 95.0804 140.956 95.209 144.033L94.9236 155.882L45.0741 227.233Z" fill="#1DC078"/>
<circle cx="191.858" cy="30.2377" r="1.8251" transform="rotate(1.3795 191.858 30.2377)" fill="#303030"/>
<path d="M202.179 31.1361C202.155 32.1438 201.318 32.941 200.31 32.9167C199.303 32.8925 198.506 32.0559 198.53 31.0482C198.554 30.0405 199.391 29.2433 200.398 29.2676C201.406 29.2918 202.203 30.1284 202.179 31.1361Z" fill="#303030"/>
<path d="M184.461 22.6611L183.849 48.0799C183.587 51.9579 185.028 59.7206 192.89 59.7479C197.079 59.7624 200.137 59.5157 202.225 59.214M205.588 58.4324C205.141 58.6425 204.056 58.9494 202.225 59.214M202.225 59.214L202.083 65.137M217.071 65.4979L198.64 65.0541C195.257 65.2766 187.944 67.3905 185.756 74.0661C183.569 80.7417 180.907 91.6819 179.85 96.3176M192.31 83.8502L187.777 99.5484M248.684 111.857L194.332 96.6664L194.168 103.451M193.515 130.592L253.558 140.853C256.127 141.483 260.512 141.9 264.503 140.8M193.515 130.592L194.168 103.451M193.515 130.592C192.211 130.02 189.532 128.49 189.245 126.943C188.958 125.395 185.346 123.37 183.575 122.55C182.667 125.23 180.066 130.268 176.936 128.977C175.792 128.5 174.53 127.899 173.781 126.57M251.475 63.2866C252.824 65.8869 254.475 69.0755 256.254 72.5213M172.811 136.173L176.906 130.192M264.503 140.8C267.398 140.002 270.086 138.407 271.724 135.515C276.592 126.918 274.287 109.029 272.467 104.628C271.319 101.85 262.897 85.3924 256.254 72.5213M264.503 140.8L264.298 149.32M194.168 103.451L192.869 102.711L181.34 97.5694C179.498 96.9171 174.641 95.5234 169.948 95.1672C165.254 94.811 162.46 97.5201 161.649 98.9192L158.918 101.893M173.923 115.225C173.685 116.705 173.19 120.415 173.118 123.413C173.085 124.787 173.347 125.801 173.781 126.57M167.826 111.734L167.575 122.165C167.487 122.812 167.577 123.697 168.051 124.507M173.781 126.57C170.44 126.834 168.785 125.761 168.051 124.507M162.45 107.754L161.137 120.186C160.808 121.968 161.73 125.327 168.051 124.507M161.345 111.578C159.945 113.605 156.794 117.933 155.389 119.034C153.634 120.411 151.213 119.947 149.145 117.465C147.49 115.48 150.965 110.619 152.909 108.436L158.918 101.893M168.241 94.5181C165.067 94.4754 158.185 93.8098 156.053 91.4887C153.387 88.5873 149.536 88.5959 149.065 91.3204C148.594 94.045 150.445 97.1294 153.143 98.7143C155.301 99.9823 157.892 101.362 158.918 101.893M158.918 101.893L138.181 101.394M67.1146 119.746L45.3394 64.6049L129.174 75.7434L138.181 101.394M67.1146 119.746L148.803 131.643L138.181 101.394M67.1146 119.746L186.836 138.639L183.991 147.386L118.554 138.059M67.1146 119.746L65.9422 130.56L118.554 138.059M88.0075 165.239C93.4889 156.42 107.272 138.639 118.554 138.059M129.783 176.682L146.712 180.611M206.265 194.432L146.712 180.611M118.633 252.613L146.712 180.611M69.9714 236.748L61.859 249.624C46.5871 247.027 13.8763 242.612 5.20858 245.727C-3.45914 248.842 10.3332 254.531 18.3129 256.986L88.8424 277.836L103.34 248.09M147.392 249.151L150.06 264.617C139.896 264.474 117.618 265.295 109.81 269.728C102.002 274.16 102.514 276.746 103.746 277.485L192.746 280.338L182.539 245.539M227.571 210.145L233.879 280.619M276.546 196.125L301.122 282.238M171.974 196.14C180.739 200.379 196.718 206.175 213.872 208.396M256.254 72.5213C256.952 68.2485 262.626 60.5558 279.729 63.967C301.108 68.231 299.421 100.413 300.383 136.205C301.345 171.998 285.971 191.893 252.01 205.16C240.346 209.717 226.776 210.068 213.872 208.396M213.872 208.396C217.578 208.215 225.633 203.086 228.2 184.017C230.767 164.948 255.09 152.982 266.931 149.383C271.668 149.024 281.48 146.086 282.829 137.201" stroke="black" stroke-width="3"/>
<path d="M221.992 12.722C221.864 9.64527 223.079 3.77044 228.97 4.88506" stroke="black" stroke-width="3" stroke-linecap="round"/>
<path d="M58.7508 107.14L46.3481 91.9487L26.8181 82.1505L86.9156 83.97L58.7508 107.14Z" fill="white"/>
<path d="M46.3481 91.9487L58.7507 107.14L86.9156 83.97M46.3481 91.9487L86.9156 83.97M46.3481 91.9487L26.8181 82.1505L86.9156 83.97" stroke="black" stroke-width="3" stroke-linecap="round"/>
<path d="M180.631 21.8583L217.121 25.5742L216.063 69.5255L250.456 63.5647C249.559 58.7131 247.21 45.9972 244.988 33.9463C242.209 18.8827 235.879 12.4478 229.681 8.95471C224.722 6.16021 222.065 11.0343 221.356 13.8207C220.817 9.26817 216.96 5.6085 215.099 4.34774C212.628 1.75501 206.709 -0.718094 195.314 1.23671C186.197 2.80056 181.726 15.636 180.631 21.8583Z" fill="#1DC078"/>
</svg>
