<svg width="1561" height="922" viewBox="0 0 1561 922" fill="none" xmlns="http://www.w3.org/2000/svg">
<rect x="0.5" y="0.5" width="1560" height="921" stroke="white"/>
<path d="M1024.5 108C1044.9 83.1998 1059.33 92.9998 1064 101C1058.5 189.5 990.498 211.5 999.998 203.5C1009.5 195.5 1011 182 1007.5 163C1004 144 1009 124 1024.5 108Z" fill="#1DC078"/>
<path d="M669.765 440.293C624.165 454.293 579.431 430.793 562.765 417.293C560.265 415.126 553.865 407.893 548.265 396.293C541.265 381.793 536.265 366.793 555.265 357.293C570.465 349.693 591.598 362.793 600.265 370.293C602.931 369.127 612.465 366.793 629.265 366.793C676.265 368.293 673.265 434.293 669.765 440.293Z" fill="white" stroke="black" stroke-width="3"/>
<path d="M579 382.5L602.5 369.5" stroke="black" stroke-width="3"/>
</svg>
