<svg width="1563" height="929" viewBox="0 0 1563 929" fill="none" xmlns="http://www.w3.org/2000/svg">
<rect x="0.5" y="2.5" width="1560" height="921" stroke="white"/>
<path d="M1143.17 137.035C1141.06 123.353 1129.42 96.1461 1099.78 96.7764C1062.72 97.5642 1056.85 106.545 1049.5 116.078L1047.16 118.993C1045.76 120.838 1044.23 122.892 1047.2 119.055L1050.82 123.925C1042.06 132.532 1048.04 137.206 1061.39 139.35C1080.66 142.444 1115.3 140.265 1143.17 137.035Z" fill="#1DC078"/>
<path d="M1019.95 403.479C1036.77 401.651 1115.83 400.827 1153.25 400.643C1153.25 468.018 1142.46 745.109 1137.07 875.232H1076.32H952.397L979.839 454.688L998.917 410.806C998.917 409.125 1003.12 405.307 1019.95 403.479Z" fill="#1DC078"/>
<path d="M1316.66 48.6384L1287.65 111.586C1292.03 122.048 1291.14 135.904 1290.15 141.524C1295.59 145.116 1299.3 154.418 1300.47 158.62V161.298C1294.8 178.944 1303.07 183.122 1309.55 186.394L1309.62 186.43C1326.27 194.843 1337.4 178.158 1337.61 167.049L1363.96 178.63L1378.19 147.669C1367.61 146.75 1348.93 140.011 1358.88 120.41C1368.82 100.809 1386.48 109.984 1394.06 117.022L1406.88 87.3997L1378.19 73.455C1384.99 76.5276 1402.11 48.6384 1374.75 38.7117C1352.86 30.7703 1348.32 50.6342 1348.79 61.5588L1316.66 48.6384Z" fill="#1DC078"/>
<path d="M1132.14 111.036C1129.72 101.766 1117.11 84.092 1086.09 87.5585M1042.15 225.114C1040.82 243.391 1039.02 262.457 1053.72 286.328C1068.42 310.199 1069.28 327.138 1042.15 364.008C1015.02 400.879 1012.52 421.599 1020.02 447.046M1025.34 430.58C1025.5 438.485 1019.47 455.917 1003.53 464.929M1142.38 141.446C1141 143.888 1138.32 153.72 1138.63 173.511C1139 197.129 1134.96 218.234 1094.38 213.788M1088.36 212.981C1090.45 213.309 1092.45 213.577 1094.38 213.788M1094.38 213.788V222.514M1094.38 222.514C1095 225.56 1093.47 231.653 1082.34 231.653C1068.42 231.653 1063.73 227.714 1062.24 225.114C1061.89 224.492 1061.7 222.242 1061.63 219.126C1053.49 218.47 1034.44 220.891 1023.31 235.828C1012.17 250.766 945.851 364.218 914.081 419.078C916.568 420.414 919.427 422.001 922.525 423.779M1094.38 222.514C1124.86 225.224 1168.06 255.892 1185.85 270.887C1192.48 260.235 1232.71 207.571 1252 182.571C1253.94 182.469 1261.31 186.757 1270.64 192.791M1031.83 322.332C1027.7 348.551 992.475 428.322 975.379 464.929C974.041 461.912 971.15 458.443 967.264 454.766M1134.09 277.741C1136.44 289.239 1139.56 305.369 1142.58 322.332M1152.62 401.115C1153.44 388.21 1148.19 353.836 1142.58 322.332M1142.58 322.332C1150.34 329.055 1170.75 342.044 1190.39 340.216C1214.94 337.931 1225.18 321.544 1313.61 222.514C1302.54 214.502 1284.45 201.73 1270.64 192.791M1270.64 192.791C1274.74 187.966 1281.3 174.283 1274.67 158.148C1272.66 143.494 1271.9 113.557 1284.91 111.036C1287.65 111.272 1292.53 117.685 1290.15 141.446C1292.97 143.705 1299.11 151.042 1301.18 162.324M1365.05 36.6646V2H1462.94M1462.94 2H1560.83V100.833M1462.94 2V36.6646C1453.74 33.1193 1431.79 30.5959 1430.02 50.7667C1427.76 76.6864 1450.2 72.1957 1462.94 70.5413V136.483C1451.97 132.412 1430.02 129.676 1430.02 151.294C1430.02 172.912 1451.97 170.963 1462.94 167.287V232.441C1473.52 228.37 1494.68 226.248 1494.68 250.324C1494.68 274.4 1473.52 271.806 1462.94 267.499V299.879M1462.94 299.879H1365.05V199.667H1397.11C1393.33 210.591 1391.29 232.441 1413.37 232.441C1435.45 232.441 1433.67 210.591 1430.02 199.667H1494.68C1491.03 210.591 1489.24 232.441 1511.26 232.441C1533.28 232.441 1532.06 210.591 1528.69 199.667H1560.83M1462.94 299.879H1560.83V199.667M1560.83 199.667V100.833M1560.83 100.833H1528.69C1531.56 90.736 1532.09 70.5413 1511.26 70.5413C1490.43 70.5413 1491.53 90.736 1494.68 100.833H1432.29C1433.91 90.736 1432.39 70.5413 1413.37 70.5413C1405.87 70.5413 1401.72 74.3229 1399.38 79.365M967.264 454.766C964.027 458.968 957.115 470.318 955.363 482.104C953.174 496.837 953.721 509.521 943.323 513.066C935.004 515.902 934.019 494.709 934.566 483.759C925.106 496.495 902.369 523.843 887.108 531.344C868.03 540.719 867.327 528.035 869.36 520.55M967.264 454.766C956.118 444.221 936.795 431.97 922.525 423.779M869.36 520.55C879.967 514.195 903.042 498.649 910.485 487.304M869.36 520.55C863.887 522.152 854.004 521.701 858.257 507.078M858.257 507.078C866.415 502.535 885.732 490.502 897.741 478.717M858.257 507.078C852.993 507.131 845.06 503.88 855.443 490.455C862.662 485.781 878.101 475.282 882.104 470.681C876.188 472.361 864.09 474.446 863.027 469.341C861.963 464.236 866.806 460.754 869.36 459.651C888.374 452.466 912.726 432.743 922.525 423.779M1086.64 602.564V623.52M1084.84 645.185L1075.69 876.414M1049.42 876.414V895.164C1073.71 895.427 1127.04 899.402 1146.06 913.205C1147.15 915.884 1148.68 922.423 1146.06 927.15M1146.06 927.15H979.366M1146.06 927.15H1206.65C1211.9 923.305 1208.84 916.252 1206.65 913.205C1192.95 903.814 1135.53 895.584 1108.53 892.643V876.414M979.366 927.15V876.414M979.366 927.15H790.002" stroke="black" stroke-width="3"/>
<path d="M1106.26 159.567V152.24H1102.27V159.567H1106.26Z" fill="black"/>
<path d="M1122.21 157.596V150.27H1118.22V157.596H1122.21Z" fill="black"/>
<path d="M112.785 810.842L132.117 924.4H217.179L238.444 810.842H112.785Z" fill="#D9D9D9"/>
<path d="M187.316 740.1C185.384 718.496 187.573 674.742 211.781 672.559C235.99 670.376 205.558 716.676 187.316 740.1Z" fill="#D9D9D9"/>
<path d="M139.672 672.559C152.034 669.284 166.284 679.381 171.864 684.839L169.932 675.97C161.348 667.783 140.316 652.911 124.864 658.915C105.549 666.419 124.22 676.652 139.672 672.559Z" fill="#D9D9D9"/>
<path d="M152.549 630.943C123.362 619.8 69.2371 593.557 86.2343 577.729C103.231 561.902 137.526 606.61 152.549 630.943Z" fill="#D9D9D9"/>
<path d="M177.945 163H201.843M612.632 163H201.843M201.843 163V315.229M201.843 340.374V402.217H438.241M504.122 402.217H551.918M590.672 362.801V166.398M269.016 336.297C275.906 319.08 296.144 283.152 321.98 277.172M438.241 277.172C416.926 273.774 369.776 267.658 351.691 270.376M471.181 277.172C477.425 278.758 496.759 270.376 524.145 224.164M524.145 224.164L504.122 228.921M524.145 224.164L527.374 243.872" stroke="black" stroke-width="3"/>
<path d="M438.24 356.176C433.279 356.631 423.422 356.176 423.681 350.728C423.94 345.279 427.671 344.598 429.504 344.939H438.24M425.946 344.939C424.759 343.69 423.098 340.852 425.946 339.49M438.24 325.187C439.642 322.009 446.263 315.652 461.534 315.652C476.805 315.652 484.72 322.009 486.769 325.187C487.848 328.025 489.681 335.948 488.387 344.939M485.152 362.987V399.425" stroke="black" stroke-width="3"/>
<path d="M596.805 453.07V436.658C611.677 444.044 648.301 443.155 664.754 441.787C664.754 444.066 664.433 451.087 663.151 460.934C659.625 490.339 636.228 493.758 622.606 493.416C611.709 493.142 605.085 482.475 603.135 477.175C611.532 475.534 613.471 470.394 613.391 468.029C613.418 464.667 612.446 457.156 608.343 454.01C604.241 450.865 598.941 452.073 596.805 453.07Z" fill="#1DC078"/>
<path d="M557.75 420.834V464.869C557.324 471.869 560.567 487.09 576.952 491.967L593.434 496.54L594.554 511.953C594.287 514.888 595.674 520.861 603.355 521.268C612.955 521.776 617.756 520.421 618.076 511.953C618.332 505.178 618.183 496.371 618.076 492.814M596.794 475.878C601.648 477.233 611.611 477.639 612.635 468.426C613.916 456.909 604.635 447.086 595.034 455.215" stroke="black" stroke-width="3" stroke-linecap="round"/>
<path d="M441.331 344.526L382.167 322.45C380.023 321.544 376.379 318.17 378.951 311.921C381.524 305.671 387.74 307.052 390.527 308.524L495.351 348.262C499.423 349.847 507.119 354.648 505.318 361.169C503.518 367.69 497.923 367.282 495.351 366.264L458.051 351.659" stroke="black" stroke-width="3"/>
<ellipse cx="337.111" cy="274.232" rx="17.6853" ry="19.0815" fill="#A4F9D3"/>
<ellipse cx="452.994" cy="282.609" rx="18.1507" ry="19.0815" fill="#A4F9D3"/>
<path d="M434.844 877.865H572.874V826.693L692.843 888.099L741.863 784.392C738.853 783.027 730.511 779.888 721.223 778.251C734.123 769.518 742.938 731.856 745.733 714.116C730.468 709.795 695.423 699.652 677.363 693.648C660.851 716.027 643.823 716.618 637.373 714.116C594.158 700.925 504.891 674.817 493.539 675.908C482.187 677 449.679 811.001 434.844 877.865Z" fill="#1DC078"/>
<path d="M567.061 523.263C567.41 534.52 567.588 551.67 567.061 568.076M561.577 611.749C564.899 605.032 566.452 587.051 567.061 568.076M622.877 639.656L542.218 604.262L536.58 615.833M653.85 561.38C659.227 579.985 671.401 621.687 677.079 639.656C684.177 662.118 684.177 677.093 669.981 699.554C658.625 717.524 633.846 712.941 622.877 708.403L506.729 677.093L514.357 661.437M619.65 505.566C632.341 507.381 664.045 521.085 689.339 561.38C720.957 611.749 746.768 692.748 748.059 724.058M733.218 761.495C722.463 779.646 690.114 810.502 646.752 788.721C618.662 774.612 591.584 761.454 571.901 752.024M547.381 740.394C552.683 742.871 561.199 746.897 571.901 752.024M571.901 752.024V881.291M483.499 875.165V892.862L405.422 903.753C397.463 904.887 382.45 908.518 386.064 913.963C390.581 920.77 388.645 922.131 432.523 921.45C467.626 920.906 526.732 921.223 551.897 921.45V875.165M706.116 861.552L718.377 867.678L711.924 900.35L684.823 909.198C677.51 910.333 665.722 914.371 677.079 921.45H733.218L776.451 815.948L729.346 811.183M514.357 661.437L506.729 649.866C507.697 657.013 507.309 671.035 498.018 669.946C495.516 668.312 494.522 665.021 494.324 661.437M514.357 661.437L536.58 615.833M501.567 641.698C499.502 641.698 496.835 647.144 495.759 649.866C494.948 652.676 494.094 657.256 494.324 661.437M494.324 661.437C494.372 664.047 492.985 668.925 487.048 667.563C483.265 666.696 481.662 664.413 481.043 661.437M487.048 635.572C485.112 638.522 481.176 645.85 480.918 651.568C480.76 655.072 480.447 658.575 481.043 661.437M481.043 661.437C480.356 662.799 477.821 665.385 473.175 664.841C467.367 664.16 465.432 658.034 466.077 649.866C466.722 641.698 479.339 613.791 494.324 611.749C496.898 611.398 499.621 611.167 502.373 611.026M536.58 615.833L527.7 611.749C527.088 611.681 526.385 611.61 525.603 611.54M502.373 611.026C500.76 609.395 497.76 604.704 498.663 598.987C499.566 593.269 505.169 594.109 507.858 595.243L525.603 611.54M502.373 611.026C511.162 610.577 520.236 611.056 525.603 611.54M567.061 568.076L487.048 528.708C480.703 528.255 465.044 519.315 453.172 487.188C441.299 455.061 430.157 422.071 426.07 409.592L440.266 407.033M591.259 505.566C573.032 499.44 533.578 487.188 521.57 487.188C509.562 487.188 507.425 476.751 507.858 471.533L501.567 395.979L440.266 407.033M440.266 407.033C437.362 400.058 432.652 381.617 437.04 363.648C442.525 341.186 442.847 335.4 450.913 337.442C457.366 339.076 458.334 361.266 458.011 372.156" stroke="black" stroke-width="3"/>
<path d="M275.733 927.194H822.993M91.3789 927.194H253.817M106.849 847.673H242.858M139.079 609.789C155.194 630.859 186.134 687.679 180.977 746.402C175.821 805.126 175.391 813.01 175.821 809.612" stroke="black" stroke-width="3"/>
<path d="M1306 217C1317 209.833 1340.8 191 1348 173" stroke="black" stroke-width="3"/>
<path d="M1061 189.001V138.501C1063.17 130.334 1063.5 115.201 1047.5 120.001C1036.7 171.201 1052 187.334 1061 189.001Z" fill="#1DC078" stroke="#1DC078" stroke-width="3"/>
<path d="M1062.5 192.5V225.5" stroke="black" stroke-width="3"/>
<path d="M1060.16 144.679C1055.82 131.897 1043.58 130.224 1038 130.984L1039.48 179.83C1059.17 179.83 1065.57 160.656 1060.16 144.679Z" fill="white" stroke="black" stroke-width="3"/>
<path d="M1050.5 155.5C1050.5 162.624 1048.97 168.998 1046.57 173.538C1044.14 178.145 1041.03 180.5 1038 180.5C1034.97 180.5 1031.86 178.145 1029.43 173.538C1027.03 168.998 1025.5 162.624 1025.5 155.5C1025.5 148.376 1027.03 142.002 1029.43 137.462C1031.86 132.855 1034.97 130.5 1038 130.5C1041.03 130.5 1044.14 132.855 1046.57 137.462C1048.97 142.002 1050.5 148.376 1050.5 155.5Z" fill="white" stroke="black" stroke-width="3"/>
<path d="M1047.5 127.5C1047.67 115.167 1055.9 89.9 1087.5 87.5" stroke="black" stroke-width="3"/>
<path d="M1042 186V226" stroke="black" stroke-width="3"/>
</svg>
