<svg width="1301" height="878" viewBox="0 0 1301 878" fill="none" xmlns="http://www.w3.org/2000/svg">
<rect x="0.5" y="0.5" width="1300" height="877" stroke="white"/>
<path d="M406.573 248.346C400.253 245.92 387.297 243.98 386.034 255.623C384.454 270.178 394.986 268.618 399.2 268.618C402.57 268.618 405.519 268.618 406.573 268.618V310.722C411.137 311.761 421.108 312.697 424.478 308.123C427.849 303.549 428.34 296.167 428.165 293.049C437.469 295.128 457.762 295.96 464.503 282.653C471.244 269.346 471.525 254.237 470.823 248.346V213M373.394 314.88C368.479 319.732 357.595 336.712 353.382 365.82C349.169 394.929 348.115 412.255 348.115 417.28C347.413 422.305 349.59 432.978 363.914 435.473C381.82 438.592 388.667 429.755 399.2 423.518C407.626 418.528 446.246 382.974 464.503 365.82L461.606 363.389M380.767 384.533L418.685 327.355L431.061 337.745M431.061 337.745L441.594 321.897C443.086 319.558 448.756 314.88 459.5 314.88C462.094 314.88 464.668 314.981 467.136 315.147M431.061 337.745L456.603 359.188M488.465 333.333C488.465 334.026 488.886 334.061 490.572 328.655C490.867 327.708 490.956 326.795 490.888 325.926M473.982 327.355C478.81 327.529 488.465 329.382 488.465 335.412V342.04M473.982 336.452C478.195 336.755 486.806 338.115 487.543 341.13C488.465 344.898 487.017 350.226 484.515 351.266C482.014 352.306 473.587 349.707 471.217 349.057C468.848 348.407 467.004 346.848 464.503 349.057C462.502 350.824 458.403 356.548 456.603 359.188M456.603 359.188L461.606 363.389M451.6 314.88C454.233 310.289 460.5 301.313 464.503 302.145C469.506 303.185 471.349 306.823 470.033 309.682C468.979 311.969 467.663 314.278 467.136 315.147M467.136 315.147C474.888 315.666 481.586 316.822 484.515 317.479C486.76 318.694 490.569 321.83 490.888 325.926M490.888 325.926C495.566 330.084 505.475 339.596 507.687 344.379C509.899 349.161 509.136 348.104 508.477 346.978M478.59 356.984C476.923 355.771 473.35 353.709 472.402 355.164C471.217 356.984 474.148 363.611 468.979 365.041C464.845 366.184 462.341 364.416 461.606 363.389M474.246 399.867C476.668 413.174 490.703 427.416 497.418 432.874C502.684 436.772 516.535 442.802 529.806 435.733C543.078 428.664 540.602 410.436 537.706 402.206L517.957 344.379L471.217 365.82L492.941 410.523" stroke="black" stroke-width="3"/>
<path d="M928.097 138.375H855.272C853.569 123.099 859.07 103.775 894.959 100.25C923.67 97.4296 933.468 119.182 934.777 130.411C963.07 124.796 962.546 150.257 961.76 163.183C961.131 173.523 943.51 189.862 934.777 196.738C932.813 199.219 933.022 183.316 932.813 181.331C932.551 178.85 941.458 178.589 944.077 175.456C946.697 172.322 943.684 166.316 941.458 163.183C939.676 160.676 931.809 162.138 928.097 163.183V138.375Z" fill="#1DC078"/>
<path d="M836.372 395.711L845.744 345.474M921.241 327.681C900.414 338.147 855.116 354.893 840.537 338.147C825.959 321.402 831.686 298.376 836.372 288.956L863.447 231.916C866.918 226.334 875.943 214.856 884.274 213.6C892.604 212.344 900.241 213.077 903.018 213.6C903.018 216.217 905.829 221.45 917.076 221.45C928.322 221.45 932.175 213.077 932.696 208.89C932.696 199.296 928.77 179.716 932.956 179.716C946.103 179.716 943.63 169.119 941.027 164.409C938.944 160.641 931.481 162.839 928.01 164.409M935.299 208.89C951.961 207.669 987.679 210.565 997.259 231.916C1006.84 253.267 1017.22 286.514 1021.21 300.469C1022.25 309.191 1023.08 327.472 1018.09 330.821C1011.84 335.008 996.739 345.997 949.878 333.961C912.39 324.332 882.885 320.878 872.819 320.355L883.128 268.547M877.609 296.283L853.554 283.723C857.199 278.839 865.321 268.966 868.654 268.547C871.986 268.129 879.692 268.373 883.128 268.547M883.128 268.547L884.274 262.791L937.903 279.537M937.903 279.537L966.54 271.687L968.069 288.956M937.903 279.537L968.069 288.956M968.069 288.956L991.532 296.283C991.532 274.304 973.807 273.257 968.069 274.304M903.018 203.657C894.166 205.75 873.86 207.216 863.447 196.331C859.281 185.446 857.199 156.908 856.678 144M830.124 701.324L822.834 728.012L780.66 736.908C773.024 737.606 757.647 741.618 757.23 752.084C756.813 762.551 757.056 761.678 757.23 759.934H878.025L898.852 711.79" stroke="black" stroke-width="3"/>
<path d="M903 203V213" stroke="black" stroke-width="3" stroke-linecap="round"/>
<path d="M349.949 398L339.082 437.377M333.583 464.85L329 489.967M482.059 420.24V437.377M487.165 464.85V481.202M430.603 718.119L421.437 758.674H574.496C575.139 758.089 575.824 757.379 576.478 756.581M491.355 719.82L493.319 728.585C496.408 728.974 499.951 729.435 503.793 729.951M503.793 719.82V729.951M503.793 729.951C528.773 733.304 566.416 738.995 574.496 742.714C582.276 746.295 579.776 752.554 576.478 756.581M566.116 714.718L571.223 729.951C594.31 732.112 642.083 738.946 648.472 748.993C654.861 759.04 651.134 759.633 648.472 758.674L576.478 756.581M431.912 565.189H349.949C345.235 565.146 335.966 568.669 336.594 583.112C337.38 601.165 340.784 607.314 357.936 606.921C371.657 606.607 424.929 606.79 449.849 606.921L453.646 565.189H431.912Z" stroke="black" stroke-width="3"/>
<path d="M407.619 715.8L518.635 720C516.11 660.197 511.06 535.551 511.06 515.392C511.06 495.233 483.806 489.668 470.18 489.406C430.17 489.1 348.636 488.671 342.576 489.406C335 490.325 325.075 490.193 325.075 515.392C323.716 550.985 341.226 564.871 350.151 567.364H436.875L407.619 715.8Z" fill="#1DC078"/>
<path d="M369.22 276.254C375.008 290.947 396.779 285.825 406.941 281.428L406.165 268.752C402.548 268.666 394.565 268.364 391.568 267.847C387.822 267.2 383.817 260.345 386.918 251.808C389.398 244.979 398.544 245.513 402.807 246.634V214.04H470.626C477.085 209.944 486.644 198.182 473.209 183.902C459.775 169.623 447.201 180.281 442.594 187.395C439.364 180.755 426.886 169.209 402.807 176.142C378.728 183.075 379.167 201.536 382.396 209.901C376.627 211.927 364.88 218.437 364.053 228.267C363.226 238.097 372.235 248.057 376.842 251.808C371.89 253.834 363.433 261.56 369.22 276.254Z" fill="#1DC078"/>
<path d="M532.115 503.016C519.164 497.154 499.309 505.459 491 510.344L503.72 718L597 714.86C588.563 679.225 570.07 599.792 563.594 567.132C555.499 526.307 548.304 510.344 532.115 503.016Z" fill="#1DC078"/>
<path d="M489 492C495.243 493.36 513.355 497.688 513.355 519.382C513.355 541.077 517.118 662.167 519 720" stroke="black" stroke-width="3"/>
<path d="M997 339L1011 395" stroke="black" stroke-width="3" stroke-linecap="round"/>
<circle cx="869.5" cy="158.5" r="3.5" fill="black"/>
<circle cx="460.5" cy="234.5" r="3.5" fill="black"/>
<ellipse cx="443.5" cy="234.5" rx="4.5" ry="3.5" fill="black"/>
<ellipse cx="889.5" cy="158.5" rx="4.5" ry="3.5" fill="black"/>
<path d="M362.966 607.735L322.71 758.339M398.648 607.735V762M292.256 465.236L252 762M741.219 464.19L781.475 738.73M918.712 760.431L925.378 711.668M1017.78 464.19V760.431M1071.5 457L1104.1 649.047M1123 760.431L1104.1 649.047M941.324 649.047H1104.1" stroke="black" stroke-width="3"/>
<rect x="129.5" y="440.5" width="980" height="29" rx="8.5" fill="white" stroke="black" stroke-width="3"/>
<path d="M794 695.309L925.039 711C929.232 687.987 944.747 622.295 973.261 543.632C1001.77 464.968 1010.3 410.434 1011 393H925.039L794 695.309Z" fill="#1DC078"/>
<path d="M780.151 510.169L838.647 597L879.385 510.169L865.805 495.523L1011 393H844.914C830.986 405.554 798.535 435.265 780.151 453.677C761.767 472.089 772.491 499.01 780.151 510.169Z" fill="#1DC078"/>
<path d="M832 619L876.761 507.942M903 453L888.337 480.667M865.957 496.164L876.761 507.942M876.761 507.942L882.549 494.304L888.337 480.667M853.094 505.071L888.337 480.667" stroke="black" stroke-width="3"/>
<mask id="path-21-inside-1_443_87" fill="white">
<path fill-rule="evenodd" clip-rule="evenodd" d="M676.69 124.055H634.328V136.578H676.69V124.055ZM662.13 136.579H647.568V154.795H662.13V136.579Z"/>
</mask>
<path d="M634.328 124.055V121.055H631.328V124.055H634.328ZM676.69 124.055H679.69V121.055H676.69V124.055ZM634.328 136.578H631.328V139.578H634.328V136.578ZM676.69 136.578V139.578H679.69V136.578H676.69ZM647.568 136.579V133.579H644.568V136.579H647.568ZM662.13 136.579H665.13V133.579H662.13V136.579ZM647.568 154.795H644.568V157.795H647.568V154.795ZM662.13 154.795V157.795H665.13V154.795H662.13ZM634.328 127.055H676.69V121.055H634.328V127.055ZM637.328 136.578V124.055H631.328V136.578H637.328ZM676.69 133.578H634.328V139.578H676.69V133.578ZM673.69 124.055V136.578H679.69V124.055H673.69ZM647.568 139.579H662.13V133.579H647.568V139.579ZM650.568 154.795V136.579H644.568V154.795H650.568ZM662.13 151.795H647.568V157.795H662.13V151.795ZM659.13 136.579V154.795H665.13V136.579H659.13Z" fill="black" mask="url(#path-21-inside-1_443_87)"/>
<rect x="636.5" y="154.5" width="37" height="40" stroke="black" stroke-width="3"/>
<path d="M598 112H624.83M685.592 112H714M685.592 86.3765L703.741 68.5176M624.83 86.3765L605.102 66.9647M654.027 70.8471V46" stroke="black" stroke-width="3"/>
</svg>
