<svg width="663" height="273" viewBox="0 0 663 273" fill="none" xmlns="http://www.w3.org/2000/svg">
<path d="M113.486 158.999L49.4889 167.694C50.9498 169.367 54.6902 173.403 57.9645 176.168C61.2388 178.933 64.2267 193.815 65.3114 200.91L110.421 194.463L87.4244 238.126L141.565 247.7L145.683 236.5L150.648 247.919L202.297 235.161L171.425 170.63C172.355 168.251 177.78 165.133 171.724 158.191C168.306 154.272 132.068 156.963 113.486 158.999Z" fill="#1DC078"/>
<path d="M50.7806 66.5168C49.7262 85.8159 60.5864 88.8888 66.1483 88.0128L66.911 56.3423L98.5815 57.1049C99.994 50.5883 98.9072 37.4607 83.2601 37.0839C67.6131 36.7071 60.2762 49.6318 58.5637 56.1412C56.2877 56.5777 51.5448 59.2639 50.7806 66.5168Z" fill="#1DC078"/>
<path d="M59.2432 75.5642C61.4297 71.8174 64.7098 74.1127 66.4448 75.7376L66.9118 56.3425L95.5544 57.0322L95.3416 65.8705C95.1721 70.643 94.2845 81.2064 92.0902 85.2805C89.8958 89.3546 86.5661 90.2515 85.1756 90.1907L79.8562 90.0626L79.7478 94.5636C78.2058 96.0331 69.1213 94.9355 65.9994 94.2325L65.3978 85.2109C64.819 85.4426 66.4913 84.0089 64.5114 84.6163C62.0366 85.3756 56.5102 80.2476 59.2432 75.5642Z" fill="white" stroke="black" stroke-width="2"/>
<circle cx="80.7954" cy="64.6186" r="1.88277" transform="rotate(1.3795 80.7954 64.6186)" fill="#303030"/>
<circle cx="86.522" cy="64.7567" r="1.88277" transform="rotate(1.3795 86.522 64.7567)" fill="#303030"/>
<path d="M49.4462 91.3765C48.0018 93.2502 46.3362 95.5204 44.5792 98.0556M51.1189 130.721L96.3464 119.364L96.2065 125.174M88.9818 95.3582C92.8912 95.0975 101.041 96.4675 102.366 104.033C103.69 111.598 105.179 117.557 105.758 119.59M96.575 109.871L99.2936 122.792M95.7749 143.096L95.6646 147.679C84.4199 149.919 59.1297 154.414 47.9267 154.472C41.5107 154.505 37.4887 154.338 34.6456 152.76M95.7749 143.096L101.475 141.023C102.102 141.065 103.345 141.575 103.304 143.277C103.253 145.405 103.725 149.593 106.794 147.947C109.25 146.63 109.403 140.504 109.172 137.605M95.7749 143.096L96.2065 125.174M109.009 144.397C110.996 144.609 114.984 144.509 115.034 142.414M115.034 142.414C115.084 140.319 115.19 135.921 115.237 133.984M115.034 142.414C115.968 143.309 118.11 144.584 119.208 142.514C120.306 140.444 119.844 134.232 119.476 131.384L124.066 137.964C124.984 139.514 127.355 142.17 129.494 140.387C132.168 138.159 126.527 130.981 125.399 130.217C124.949 129.912 124.219 128.765 123.267 127.381M96.2065 125.174C96.8431 124.807 98.8755 123.83 101.912 122.855C105.359 121.748 112.462 120.123 116.528 121.186M116.528 121.186C116.94 121.294 117.321 121.43 117.664 121.597C119.357 122.419 120.877 124.118 122.137 125.798M116.528 121.186C118.802 120.823 123.586 119.823 124.53 118.732C125.709 117.369 129.177 116.142 130.05 117.309C130.923 118.477 130.006 122.549 127.773 123.478C125.986 124.221 123.271 125.334 122.137 125.798M122.137 125.798C122.541 126.338 122.919 126.876 123.267 127.381M123.267 127.381L139.788 127.779M196.379 144.372L130.296 151.297L148.226 107.184L216.182 100.714L196.379 144.372ZM196.379 144.372L101.154 154.362L100.984 161.4L156.293 156.451M108.922 147.998L110.109 153.104M196.174 152.883L156.293 156.451M44.5792 98.0556C35.8832 110.603 24.9469 129.643 27.4951 139.241C29.5697 147.055 31.2832 150.894 34.6456 152.76M44.5792 98.0556C39.2197 92.1947 26.3885 83.8611 17.9393 97.4141C7.37778 114.355 5.03855 146.889 8.70176 168.185C12.365 189.481 31.2783 206.558 53.8473 207.839C56.8814 208.011 59.8866 208.162 62.844 208.276M108.933 201.96C100.981 206.957 88.5576 208.467 74.2203 208.504M19.0661 145.834C18.5372 149.077 21.0541 156.388 34.4332 161.578M74.2203 208.504C62.2414 206.098 63.9948 194.491 63.2868 189.888C62.5788 185.286 59.2765 169.403 38.3067 162.92C36.9241 162.493 35.6349 162.044 34.4332 161.578M74.2203 208.504C70.5399 208.514 66.7333 208.426 62.844 208.276M34.6456 152.76L34.4332 161.578M81.9997 198.281L129.332 191.33M143.795 189.207L129.332 191.33M129.332 191.33L150.288 249.384M156.293 156.451C162.726 160.201 173.647 168.898 175.219 179.81M162.381 247.054L172.365 271.123L234.714 256.002C240.283 254.853 248.637 251.817 237.507 248.864C226.376 245.91 205.385 248.718 196.28 250.491L190.504 238.725M99.0666 241.026L90.8834 268.014L158.043 270.778C160.467 269.854 162.997 267.033 153.724 263.141C144.45 259.249 130.413 257.503 124.554 257.116L126.946 246.201M62.844 208.276L55.0393 267.151M26.0328 199.963L1.02746 265.851" stroke="black" stroke-width="2" stroke-linecap="round"/>
<path d="M51.0835 50.7848C53.4178 49.9227 58.2376 49.4002 58.8416 54.2072" stroke="black" stroke-width="2" stroke-linecap="round"/>
<path d="M451.094 215.686L509.644 235.929L515.257 223.864L518.81 236.15L573.027 228.94L551.444 183.302L596.771 191.599L596.807 190.126C597.148 189.561 597.948 187.632 598.418 184.433C599.005 180.435 601.018 175.079 603.32 171.286C603.416 167.293 612.738 161.005 617.388 158.36C578.724 153.307 500.386 142.981 496.346 142.098C492.306 141.215 491.504 145.966 491.607 148.453L491.377 158.027L451.094 215.686Z" fill="#1DC078"/>
<circle cx="569.71" cy="56.4972" r="1.47486" transform="rotate(1.3795 569.71 56.4972)" fill="#303030"/>
<path d="M578.05 57.2242C578.03 58.0385 577.354 58.6827 576.54 58.6631C575.726 58.6435 575.082 57.9674 575.101 57.1531C575.121 56.3388 575.797 55.6946 576.611 55.7142C577.425 55.7338 578.07 56.4098 578.05 57.2242Z" fill="#303030"/>
<path d="M563.732 50.3733L563.238 70.9142C563.026 74.0479 564.19 80.321 570.544 80.343C573.929 80.3547 576.4 80.1553 578.088 79.9115M580.805 79.2799C580.444 79.4498 579.567 79.6977 578.088 79.9115M578.088 79.9115L577.972 84.6979M590.084 84.9896L575.19 84.6309C572.456 84.8107 566.547 86.519 564.779 91.9135C563.012 97.308 560.861 106.149 560.006 109.895M570.075 99.8199L566.412 112.506M615.63 122.452L571.709 110.177L571.577 115.66M571.049 137.592L619.57 145.884C621.646 146.393 625.189 146.73 628.414 145.841M571.049 137.592L571.577 115.66M571.049 137.592C569.995 137.13 567.831 135.893 567.599 134.643C567.367 133.392 564.447 131.755 563.017 131.093C562.282 133.259 560.181 137.33 557.651 136.286C556.727 135.901 555.707 135.415 555.102 134.342M617.886 83.2026C618.976 85.3039 620.31 87.8806 621.748 90.6651M554.318 142.102L557.628 137.268M628.414 145.841C630.754 145.196 632.926 143.907 634.249 141.57C638.183 134.623 636.32 120.167 634.85 116.61C633.922 114.366 627.116 101.066 621.748 90.6651M628.414 145.841L628.248 152.726M571.577 115.66L570.527 115.061L561.21 110.906C559.722 110.379 555.797 109.253 552.004 108.965C548.212 108.677 545.954 110.867 545.299 111.997L543.091 114.4M555.217 125.174C555.024 126.37 554.624 129.368 554.566 131.79C554.539 132.901 554.751 133.72 555.102 134.342M550.29 122.353L550.087 130.782C550.016 131.305 550.089 132.02 550.472 132.674M555.102 134.342C552.402 134.555 551.065 133.687 550.472 132.674M545.945 119.137L544.885 129.183C544.619 130.623 545.364 133.338 550.472 132.674M545.052 122.227C543.921 123.864 541.375 127.362 540.24 128.252C538.821 129.364 536.865 128.99 535.193 126.984C533.856 125.38 536.664 121.451 538.235 119.688L543.091 114.4M550.625 108.441C548.06 108.406 542.499 107.868 540.776 105.993C538.621 103.648 535.51 103.655 535.129 105.857C534.749 108.058 536.244 110.551 538.424 111.832C540.168 112.856 542.262 113.971 543.091 114.4M543.091 114.4L526.334 113.997M468.905 128.827L451.309 84.2679L519.055 93.2689L526.334 113.997M468.905 128.827L534.918 138.441L526.334 113.997M468.905 128.827L565.652 144.094L563.352 151.163L510.473 143.626M468.905 128.827L467.958 137.566L510.473 143.626M485.789 165.59C490.218 158.464 501.357 144.094 510.473 143.626M519.548 174.837L533.228 178.012M581.352 189.181L533.228 178.012M510.537 236.196L533.228 178.012M471.214 223.376L464.658 233.781C452.317 231.683 425.884 228.115 418.879 230.632C411.875 233.149 423.021 237.746 429.469 239.73L486.463 256.579L498.178 232.541M533.777 233.399L535.933 245.897C527.72 245.781 509.717 246.445 503.407 250.026C497.098 253.608 497.512 255.698 498.507 256.295L570.427 258.601L562.179 230.48M598.569 201.878L603.667 258.828M638.146 190.548L658.006 260.136M553.642 190.561C560.725 193.987 573.637 198.67 587.499 200.465M621.748 90.6651C622.312 87.2123 626.897 80.9958 640.718 83.7524C657.994 87.1981 656.631 113.204 657.408 142.128C658.186 171.051 645.762 187.129 618.318 197.85C608.893 201.532 597.927 201.816 587.499 200.465M587.499 200.465C590.494 200.319 597.003 196.174 599.078 180.764C601.152 165.355 620.807 155.685 630.376 152.777C634.204 152.487 642.133 150.112 643.223 142.933" stroke="black" stroke-width="2"/>
<path d="M594.061 42.3425C593.957 39.8562 594.939 35.1088 599.699 36.0095" stroke="black" stroke-width="2" stroke-linecap="round"/>
<path d="M449.006 109.625C403.58 107.658 311.899 91.9612 308.578 44.9129C304.426 -13.8976 370.233 4.69894 382.505 18.2796C423.501 63.6478 386.215 132.842 279.079 89.9754C171.943 47.1087 171.425 99.256 159.388 102.651" stroke="black" stroke-width="2" stroke-linecap="round" stroke-dasharray="10 10"/>
<path d="M462.146 118.642L452.123 106.366L436.341 98.4483L484.906 99.9186L462.146 118.642Z" fill="white"/>
<path d="M452.123 106.366L462.146 118.642L484.906 99.9186M452.123 106.366L484.906 99.9186M452.123 106.366L436.341 98.4483L484.906 99.9186" stroke="black" stroke-width="2" stroke-linecap="round"/>
<path d="M560.637 49.7256L590.125 52.7285L589.269 88.2453L617.062 83.4284C616.338 79.5078 614.44 69.2321 612.644 59.4939C610.398 47.3211 605.283 42.1211 600.274 39.2983C596.267 37.0401 594.12 40.9788 593.547 43.2305C593.111 39.5516 589.995 36.5943 588.491 35.5755C586.494 33.4803 581.711 31.4818 572.502 33.0615C565.135 34.3252 561.522 44.6975 560.637 49.7256Z" fill="#1DC078"/>
</svg>
