<svg width="1340" height="448" viewBox="0 0 1340 448" fill="none" xmlns="http://www.w3.org/2000/svg">
<rect width="1340" height="448" fill="url(#paint0_linear_663_187)"/>
<path d="M614.846 167.751C611.714 166.537 605.294 165.566 604.668 171.394C603.885 178.68 609.104 177.899 611.192 177.899C612.862 177.899 614.324 177.899 614.846 177.899V198.976C617.108 199.496 622.049 199.965 623.719 197.675C625.389 195.385 625.633 191.69 625.546 190.129C630.156 191.17 640.213 191.586 643.553 184.925C646.894 178.264 647.033 170.7 646.685 167.751V150.057M598.404 201.057C595.968 203.486 590.575 211.986 588.487 226.557C586.399 241.129 585.877 249.802 585.877 252.318C585.529 254.833 586.608 260.176 593.707 261.425C602.58 262.986 605.973 258.563 611.192 255.44C615.368 252.942 634.506 235.144 643.553 226.557L642.118 225.34M602.058 235.925L620.848 207.302L626.981 212.503M626.981 212.503L632.201 204.57C632.94 203.399 635.75 201.057 641.074 201.057C642.359 201.057 643.635 201.108 644.858 201.191M626.981 212.503L639.638 223.238M655.428 210.295C655.428 210.642 655.636 210.659 656.471 207.953C656.618 207.479 656.662 207.022 656.628 206.587M648.251 207.302C650.643 207.389 655.428 208.317 655.428 211.335V214.653M648.251 211.856C650.339 212.008 654.605 212.689 654.971 214.198C655.428 216.084 654.71 218.751 653.47 219.272C652.231 219.792 648.055 218.491 646.881 218.166C645.706 217.841 644.793 217.06 643.553 218.166C642.561 219.051 640.53 221.916 639.638 223.238M639.638 223.238L642.118 225.34M637.159 201.057C638.464 198.759 641.57 194.266 643.553 194.682C646.032 195.203 646.946 197.024 646.293 198.455C645.771 199.6 645.119 200.756 644.858 201.191M644.858 201.191C648.7 201.451 652.019 202.029 653.47 202.358C654.582 202.967 656.47 204.537 656.628 206.587M656.628 206.587C658.947 208.668 663.857 213.43 664.953 215.824C666.049 218.218 665.671 217.689 665.345 217.125M650.534 222.134C649.708 221.527 647.938 220.495 647.468 221.223C646.881 222.134 648.333 225.452 645.771 226.167C643.723 226.74 642.482 225.854 642.118 225.34M648.381 243.601C649.582 250.262 656.537 257.392 659.864 260.124C662.474 262.075 669.338 265.094 675.914 261.555C682.491 258.016 681.264 248.892 679.829 244.772L670.042 215.824L646.881 226.557L657.646 248.935" stroke="black" stroke-width="3"/>
<path d="M873.865 113.303H837.781C836.937 105.699 839.663 96.08 857.445 94.3253C871.671 92.9215 876.526 103.749 877.175 109.338C891.193 106.544 890.933 119.217 890.544 125.651C890.232 130.798 881.501 138.93 877.175 142.353C876.201 143.588 876.305 135.672 876.201 134.684C876.071 133.45 880.484 133.32 881.782 131.76C883.08 130.2 881.588 127.21 880.484 125.651C879.602 124.403 875.704 125.131 873.865 125.651V113.303Z" fill="#1DC078"/>
<path d="M828.589 241.112L833.276 216.137M871.037 207.291C860.62 212.494 837.964 220.819 830.672 212.494C823.381 204.169 826.245 192.722 828.589 188.039L842.13 159.682C843.867 156.907 848.38 151.201 852.547 150.577C856.714 149.952 860.533 150.316 861.922 150.577C861.922 151.877 863.328 154.479 868.953 154.479C874.578 154.479 876.505 150.316 876.766 148.235C876.766 143.465 874.802 133.731 876.896 133.731C883.471 133.731 882.234 128.463 880.932 126.122C879.891 124.248 876.158 125.341 874.422 126.122M878.068 148.235C886.401 147.628 904.266 149.068 909.057 159.682C913.849 170.297 919.04 186.825 921.036 193.763C921.557 198.099 921.974 207.187 919.474 208.852C916.349 210.933 908.797 216.397 885.359 210.413C866.609 205.626 851.853 203.909 846.818 203.649L851.974 177.893M849.214 191.682L837.183 185.438C839.005 183.01 843.068 178.101 844.735 177.893C846.401 177.685 850.255 177.807 851.974 177.893M851.974 177.893L852.547 175.031L879.37 183.357M879.37 183.357L893.693 179.454L894.458 188.039M879.37 183.357L894.458 188.039M894.458 188.039L906.193 191.682C906.193 180.755 897.328 180.235 894.458 180.755M861.922 145.633C857.495 146.674 847.339 147.403 842.13 141.991C840.047 136.58 839.005 122.393 838.745 115.975M825.464 393.045L821.818 406.313L800.724 410.736C796.905 411.083 789.214 413.077 789.006 418.28C788.797 423.483 788.919 423.05 789.006 422.183H849.422L859.839 398.248" stroke="black" stroke-width="3"/>
<path d="M861.789 145.323L862.262 150.53" stroke="black" stroke-width="3" stroke-linecap="round"/>
<path d="M586.759 242.363L581.36 261.932M578.628 275.584L576.352 288.067M652.392 253.415V261.932M654.929 275.584V283.711M626.829 401.45L622.275 421.604H698.316C698.635 421.313 698.976 420.96 699.3 420.564M657.011 402.295L657.986 406.651C659.521 406.844 661.281 407.073 663.19 407.33M663.19 402.295V407.33M663.19 407.33C675.6 408.996 694.302 411.824 698.316 413.672C702.181 415.452 700.939 418.563 699.3 420.564M694.153 399.759L696.69 407.33C708.16 408.404 731.894 411.8 735.068 416.793C738.242 421.786 736.391 422.081 735.068 421.604L699.3 420.564M627.479 325.449H586.759C584.417 325.428 579.812 327.179 580.124 334.356C580.515 343.328 582.206 346.384 590.727 346.189C597.544 346.033 624.01 346.124 636.391 346.189L638.277 325.449H627.479Z" stroke="black" stroke-width="3"/>
<path d="M615.58 400.275L670.836 402.358C669.579 372.702 667.065 310.89 667.065 300.893C667.065 290.896 653.501 288.136 646.718 288.006C626.805 287.854 586.223 287.642 583.207 288.006C579.436 288.462 574.496 288.397 574.496 300.893C573.82 318.543 582.535 325.429 586.977 326.666H630.142L615.58 400.275Z" fill="#1DC078"/>
<path d="M596.013 182.078C598.918 189.468 609.845 186.891 614.946 184.68L614.556 178.304C612.741 178.261 608.734 178.109 607.23 177.849C605.349 177.524 603.339 174.076 604.896 169.783C606.14 166.348 610.731 166.617 612.871 167.18V150.787H646.911C650.153 148.727 654.951 142.812 648.207 135.63C641.464 128.448 635.153 133.808 632.841 137.386C631.22 134.047 624.956 128.24 612.871 131.727C600.785 135.213 601.005 144.499 602.626 148.705C599.73 149.725 593.834 152.999 593.419 157.943C593.004 162.887 597.526 167.896 599.838 169.783C597.353 170.802 593.108 174.688 596.013 182.078Z" fill="#1DC078"/>
<path d="M677.097 294.488C670.562 291.573 660.542 295.703 656.35 298.132L662.768 401.411L709.839 399.85C705.582 382.127 696.25 342.62 692.982 326.376C688.897 306.072 685.266 298.132 677.097 294.488Z" fill="#1DC078"/>
<path d="M655.404 289.225C658.557 289.9 667.702 292.048 667.702 302.812C667.702 313.577 669.602 373.661 670.552 402.358" stroke="black" stroke-width="3"/>
<path d="M908.65 213.014L915.751 240.942" stroke="black" stroke-width="3" stroke-linecap="round"/>
<circle cx="845.222" cy="123.076" r="1.89344" fill="black"/>
<circle cx="641.202" cy="160.944" r="1.89344" fill="black"/>
<circle cx="633.155" cy="160.944" r="1.89344" fill="black"/>
<circle cx="855.161" cy="123.076" r="1.89344" fill="black"/>
<path d="M593.251 346.886L573.21 421.838M611.013 346.886V423.659M558.05 275.968L538.01 423.659M781.551 275.447L801.591 412.078M869.91 422.879L873.228 398.61M919.23 275.447V422.879M945.972 271.869L962.197 367.445M971.607 422.879L962.197 367.445M881.166 367.445H962.197" stroke="black" stroke-width="3"/>
<rect x="477.5" y="264.69" width="485.981" height="12.6209" rx="6.31044" fill="white" stroke="black" stroke-width="3"/>
<path d="M808.299 390.747L873.186 398.571C875.262 387.095 882.945 354.337 897.064 315.11C911.183 275.884 915.405 248.689 915.752 239.996H873.186L808.299 390.747Z" fill="#1DC078"/>
<path d="M800.582 298.449L829.765 341.768L850.089 298.449L843.314 291.143L915.751 239.996H832.892C825.943 246.259 809.754 261.081 800.582 270.266C791.41 279.452 796.76 292.882 800.582 298.449Z" fill="#1DC078"/>
<path d="M826.287 352.182L848.967 297.078M862.262 269.817L854.833 283.545M843.493 291.234L848.967 297.078M848.967 297.078L851.9 290.311L854.833 283.545M836.975 295.653L854.833 283.545" stroke="black" stroke-width="3"/>
<path d="M937 56H947.873M1134.76 56H947.873M947.873 56V125.257M947.873 136.697V164.833H1055.42M1085.4 164.833H1107.14M1124.77 146.9V57.5459M978.433 134.842C981.568 127.009 990.775 110.664 1002.53 107.943M1055.42 107.943C1045.73 106.397 1024.27 103.614 1016.05 104.851M1070.41 107.943C1073.25 108.664 1082.05 104.851 1094.5 83.8266M1094.5 83.8266L1085.4 85.9909M1094.5 83.8266L1095.97 92.793" stroke="black" stroke-width="3"/>
<path d="M1055.42 143.886C1053.17 144.093 1048.68 143.886 1048.8 141.407C1048.92 138.929 1050.61 138.619 1051.45 138.774H1055.42M1049.83 138.774C1049.29 138.206 1048.53 136.915 1049.83 136.295M1055.42 129.788C1056.06 128.342 1059.07 125.45 1066.02 125.45C1072.97 125.45 1076.57 128.342 1077.5 129.788C1077.99 131.079 1078.83 134.684 1078.24 138.774M1076.77 146.985V163.562" stroke="black" stroke-width="3"/>
<path d="M1127.56 187.968V180.501C1134.33 183.861 1150.99 183.457 1158.48 182.835C1158.48 183.872 1158.33 187.066 1157.75 191.546C1156.14 204.924 1145.5 206.479 1139.3 206.324C1134.35 206.199 1131.33 201.346 1130.44 198.935C1134.26 198.188 1135.15 195.85 1135.11 194.774C1135.12 193.244 1134.68 189.827 1132.81 188.396C1130.95 186.965 1128.54 187.514 1127.56 187.968Z" fill="#1DC078"/>
<path d="M1109.79 173.302V193.336C1109.6 196.521 1111.07 203.446 1118.53 205.665L1126.03 207.745L1126.54 214.757C1126.42 216.093 1127.05 218.81 1130.54 218.995C1134.91 219.226 1137.09 218.61 1137.24 214.757C1137.36 211.675 1137.29 207.668 1137.24 206.05M1127.56 198.345C1129.76 198.961 1134.3 199.146 1134.76 194.954C1135.35 189.715 1131.12 185.246 1126.76 188.944" stroke="black" stroke-width="3" stroke-linecap="round"/>
<path d="M1056.83 138.586L1029.91 128.542C1028.94 128.13 1027.28 126.595 1028.45 123.752C1029.62 120.909 1032.45 121.537 1033.72 122.207L1081.41 140.286C1083.26 141.007 1086.76 143.191 1085.94 146.158C1085.12 149.125 1082.58 148.939 1081.41 148.476L1064.44 141.831" stroke="black" stroke-width="3"/>
<ellipse cx="1065.42" cy="141.605" rx="8.04601" ry="8.68123" fill="#A4F9D3"/>
<ellipse cx="1062.14" cy="110.416" rx="8.25775" ry="8.68123" fill="#A4F9D3"/>
<path d="M1053.88 381.231H1116.68V357.95L1171.26 385.887L1193.56 338.705C1192.19 338.084 1188.39 336.656 1184.17 335.911C1190.04 331.938 1194.05 314.803 1195.32 306.732C1188.37 304.767 1172.43 300.152 1164.21 297.42C1156.7 307.602 1148.96 307.871 1146.02 306.732C1126.36 300.731 1085.75 288.853 1080.58 289.35C1075.42 289.846 1060.63 350.81 1053.88 381.231Z" fill="#1DC078"/>
<path d="M1114.03 156.731L1129.88 150.797M1129.88 150.797L1132.23 149.918C1136.93 148.679 1148.23 148.06 1155.87 155.492C1163.5 162.924 1162.37 176.859 1160.86 182.898C1157.58 182.846 1149.52 182.774 1143.54 182.898C1126.27 183.022 1115.01 174.588 1111.54 170.356C1107.23 164.885 1099.91 152.612 1105.08 147.286C1111.54 140.628 1123.72 146.102 1129.88 150.797ZM1114.03 219.903C1114.19 225.025 1114.27 232.827 1114.03 240.291M1111.54 260.16C1113.05 257.105 1113.75 248.924 1114.03 240.291M1139.43 272.857L1102.73 256.754L1100.16 262.018M1153.52 237.245C1155.96 245.709 1161.5 264.682 1164.09 272.857C1167.31 283.076 1167.31 289.889 1160.86 300.108C1155.69 308.283 1144.42 306.198 1139.43 304.134L1086.58 289.889L1090.05 282.766M1137.96 211.852C1143.73 212.678 1158.16 218.912 1169.66 237.245C1184.05 260.16 1195.79 297.011 1196.38 311.256M1189.63 328.288C1184.73 336.546 1170.02 350.584 1150.29 340.675C1137.51 334.255 1125.19 328.269 1116.23 323.979M1105.08 318.688C1107.49 319.815 1111.37 321.646 1116.23 323.979M1116.23 323.979V382.79M1076.02 380.003V388.054L1040.49 393.009C1036.87 393.525 1030.04 395.177 1031.69 397.654C1033.74 400.751 1032.86 401.37 1052.82 401.06C1068.79 400.813 1095.68 400.957 1107.13 401.06V380.003M1177.3 373.809L1182.87 376.596L1179.94 391.46L1167.61 395.486C1164.28 396.002 1158.92 397.84 1164.09 401.06H1189.63L1209.29 353.061L1187.86 350.894M1090.05 282.766L1086.58 277.502C1087.02 280.753 1086.85 287.133 1082.62 286.637C1081.48 285.894 1081.03 284.397 1080.94 282.766M1090.05 282.766L1100.16 262.018M1084.24 273.786C1083.3 273.786 1082.08 276.263 1081.59 277.502C1081.22 278.78 1080.84 280.864 1080.94 282.766M1080.94 282.766C1080.96 283.953 1080.33 286.173 1077.63 285.553C1075.91 285.159 1075.18 284.12 1074.9 282.766M1077.63 270.999C1076.75 272.341 1074.96 275.675 1074.84 278.276C1074.77 279.87 1074.63 281.464 1074.9 282.766M1074.9 282.766C1074.59 283.386 1073.43 284.562 1071.32 284.315C1068.68 284.005 1067.8 281.218 1068.09 277.502C1068.38 273.786 1074.12 261.089 1080.94 260.16C1082.11 260.001 1083.35 259.896 1084.6 259.832M1100.16 262.018L1096.12 260.16C1095.85 260.129 1095.53 260.097 1095.17 260.065M1084.6 259.832C1083.87 259.09 1082.5 256.955 1082.91 254.354C1083.33 251.753 1085.87 252.135 1087.1 252.651L1095.17 260.065M1084.6 259.832C1088.6 259.627 1092.73 259.845 1095.17 260.065M1114.03 240.291L1077.63 222.381C1074.74 222.174 1067.62 218.107 1062.22 203.491C1056.82 188.874 1051.75 173.866 1049.89 168.188L1056.35 167.024M1125.04 211.852C1116.75 209.065 1098.8 203.491 1093.34 203.491C1087.87 203.491 1086.9 198.743 1087.1 196.368L1084.24 161.995L1056.35 167.024M1056.35 167.024C1055.03 163.851 1052.88 155.461 1054.88 147.286C1057.37 137.067 1057.52 134.434 1061.19 135.363C1064.13 136.107 1064.57 146.202 1064.42 151.157" stroke="black" stroke-width="3"/>
<path d="M243.463 118.411H276.515C278.557 110.115 275.876 106.796 273.93 104.179C272.26 101.933 270.995 100.605 263.53 98.2755C257.558 96.4119 252.003 99.052 249.972 100.605C250.078 100.031 248.791 98.9584 242.793 99.2648C236.796 99.5711 234.637 103.817 234.307 105.902C232.978 105.275 229.56 104.275 226.523 105.296C222.727 106.572 220.717 108.551 221.1 113.401C221.482 118.252 222.057 118.922 218.069 122.943C214.081 126.964 217.08 132.006 218.069 135.707C219.058 139.409 218.452 143.206 214.049 145.855C210.527 147.974 210.221 150.376 210.508 151.312L243.463 161.811C242.187 157.19 243.485 153.141 244.293 151.695C245.537 149.248 247.279 143.309 244.293 139.122C241.307 134.935 243.559 131.527 245.059 130.346C245.888 129.974 247.547 128.317 247.547 124.666C247.547 121.015 244.825 118.975 243.463 118.411Z" fill="#1DC078"/>
<path d="M283.565 199.274V199.213C283.577 199.211 283.588 199.208 283.6 199.206C283.588 199.229 283.576 199.252 283.565 199.274Z" fill="#1DC078"/>
<path d="M258.458 298.901C259.325 292.212 266.433 268.415 269.879 257.353L289.754 261.82C289.393 263.246 287.776 270.755 284.203 289.392C279.737 312.687 278.556 317.41 276.419 319.228C274.709 320.684 272.92 316.452 272.24 314.155L263.179 349.225L315.723 361.255L318.754 323.313C320.104 313.038 322.658 289.021 322.071 275.159C321.338 257.831 314.191 253.204 307.779 249.822C301.42 246.467 293.397 244.368 278.515 240.474L278.142 240.376C266.044 237.21 247.047 239.057 239.061 240.376C226.247 237.589 198.506 231.677 190.058 230.324C179.499 228.633 168.365 230.835 166.163 244.333C164.402 255.132 177.319 262.98 183.997 265.554L258.458 298.901Z" fill="#1DC078"/>
<path d="M410.5 100.357V86.8882H430.963V100.357H410.5Z" fill="#A4F9D3"/>
<path d="M399.439 100.357V86.8882H380.378V100.357H399.439Z" fill="#A4F9D3"/>
<path d="M349.141 86.8882H368.808V100.357H349.141V86.8882Z" fill="#A4F9D3"/>
<path d="M318.127 86.8882H338.431V100.357H318.127V86.8882Z" fill="#A4F9D3"/>
<path d="M338.431 111.778H318.127V123.744C321.814 122.357 329.627 120.064 331.387 121.984C333.146 123.903 329.889 125.62 328.04 126.239H338.431V111.778Z" fill="#A4F9D3"/>
<path d="M349.141 126.527V111.778H368.808V126.751L349.141 126.527Z" fill="#A4F9D3"/>
<path d="M410.5 126.239V111.778H430.963V126.239H410.5Z" fill="#A4F9D3"/>
<path d="M400.587 111.778H379.295V126.751L400.587 126.527V111.778Z" fill="#A4F9D3"/>
<path d="M410.5 150.553V136.764H430.963V150.553C424.142 150.66 410.5 150.809 410.5 150.553Z" fill="#A4F9D3"/>
<path d="M400.587 150.553V136.764H379.295V150.553H400.587Z" fill="#A4F9D3"/>
<path d="M349.141 136.764H368.808V150.553H349.141V136.764Z" fill="#A4F9D3"/>
<path d="M274.713 122.016C273.926 124.598 272.397 130.844 272.576 135.179C272.799 140.597 273.979 147.832 264.092 149.521C261.626 149.521 259.79 149.349 258.448 149.106M255.258 147.8C255.434 148.152 256.318 148.719 258.448 149.106M258.448 149.106V152.07M247.094 153.345C250.079 155.13 255.907 155.215 258.448 155.034V152.07M222.951 153.345C222.441 153.345 215.393 155.034 211.151 169.057C206.91 183.081 200.595 188.244 202.923 201.502C205.109 205.143 208.17 207.81 211.151 209.678M257.778 199.048L224.897 193.056M257.778 199.048C260.361 197.008 266.115 192.176 268.462 189.168C269.895 187.33 270.743 187.228 271.071 187.893M257.778 199.048C256.714 204.095 254.221 211.62 252.106 217.118M273.182 207.143C276.026 207.121 278.343 206.938 280.23 206.643M280.23 206.643C289.262 205.233 288.436 201.259 288.331 200.099C288.203 198.697 286.226 199.048 285.492 199.048C284.759 199.048 280.23 200.801 274.458 201.502C268.685 202.203 267.76 201.502 267.409 199.048C267.059 196.594 269.068 193.885 270.471 191.399C271.189 190.128 271.414 188.589 271.071 187.893M280.23 206.643C282.537 206.084 287.387 205.3 288.331 206.643C289.391 208.151 289.37 212.265 282.813 213.433M271.651 213.135C271.534 213.485 273.105 214.091 280.326 213.708C281.244 213.66 282.071 213.565 282.813 213.433M282.813 213.433C284.333 213.174 287.259 213.409 286.8 216.417C286.388 219.112 282.096 220.007 275.765 219.383M267.409 217.947C270.438 218.652 273.261 219.136 275.765 219.383M275.765 219.383C276.339 219.436 282.462 221.134 280.23 224.767C278.444 227.674 268.196 224.959 263.295 223.238C262.719 222.993 262.045 222.7 261.318 222.374M252.106 217.118C250.482 221.342 249.081 224.37 248.72 224.162C248.057 223.779 228.798 216.651 219.252 213.135C217.415 212.751 214.329 211.669 211.151 209.678M252.106 217.118C252.557 218.226 257.621 220.717 261.318 222.374M271.071 187.893L271.651 185.802M261.318 222.374L259.085 229.452H276.977M269.291 169.695L271.651 185.802M271.651 185.802L274.458 175.687H277.647M258.448 152.07C261.796 151.337 269.431 152.217 273.182 161.6C276.932 170.982 277.721 174.9 277.647 175.687M277.647 175.687H281.506M281.506 175.687L288.331 150.19L293.274 151.151M281.506 175.687H306.19M306.19 175.687H313.238L310.781 184.674M306.19 175.687L313.238 155.034L309.539 154.315M293.274 151.151C293.274 148.47 293.274 140.321 293.274 136.581C292.944 135.476 293.089 132.871 296.304 131.291C300.195 128.135 301.917 127.562 304.054 128.135C305.763 128.594 302.98 133.022 301.375 135.179C302.075 135.795 303.141 136.99 303.733 138.334M293.274 151.151L309.539 154.315M304.054 141.043C304.306 140.156 304.121 139.213 303.733 138.334M303.733 138.334C304.085 137.75 304.927 136.581 305.489 136.581C306.19 136.581 307.657 138.43 307.657 139.067C307.731 138.042 308.154 136.338 309.252 136.647M309.539 154.315C310.336 154.47 314.068 147.481 314.418 146.62C314.926 146.113 315.559 142.711 315.058 140.278M315.216 144.868C316.417 146.833 319.005 149.68 319.744 145.346C320.484 141.011 319.819 137.93 319.394 136.932M319.394 136.932C319.394 140.17 316.503 140.512 315.058 140.278M319.394 136.932C319.751 133.643 319.245 129.866 318.947 128.389M315.058 140.278C314.992 139.961 314.908 139.661 314.801 139.386C314.635 138.955 314.426 138.678 314.195 138.517M303.416 131.673C303.908 131.569 304.43 131.458 304.978 131.342M293.274 133.777C290.244 134.796 289.415 134.223 288.681 133.107C287.865 131.068 296.591 128.645 301.056 127.689L325.676 121.698C327.537 121.241 331.347 120.837 331.704 122.877C332.151 125.426 327.654 126.638 327.399 126.638C327.301 126.638 323.624 127.405 318.947 128.389M304.978 131.342C304.691 131.928 303.894 134.796 304.691 136.932M304.978 131.342C307.838 130.735 311.382 129.985 314.801 129.263M309.794 130.589C309.518 131.143 309.022 133.13 309.252 136.647M309.252 136.647C309.417 136.693 309.597 136.785 309.794 136.932C311.299 138.054 311.761 139.035 311.803 139.386C312.339 138.768 313.4 137.96 314.195 138.517M314.801 129.263C314.397 130.815 313.71 134.838 314.195 138.517M314.801 129.263C316.224 128.963 317.626 128.667 318.947 128.389M297.771 128.135C297.453 126.678 297.723 123.812 301.056 123.248M308.04 125.681C307.657 124.747 305.878 122.934 301.821 123.164C301.55 123.179 301.295 123.208 301.056 123.248M301.056 123.248V64.2984H447.919V184.674M301.116 220.019L298.536 229.452H276.977M301.116 220.019L300.864 239.3H447.919V184.674M301.116 220.019L310.781 184.674M310.781 184.674H408.501M416.155 184.674H447.919M318.054 57V72.6485M345.96 57V72.6485M373.961 57V72.6485M402.569 57V72.6485M430.538 57V72.6485M225.79 99.5793C227.927 98.91 232.404 99.0566 233.221 104.997M211.151 209.678L207.42 233.532M207.42 233.532L189.592 230.217M207.42 233.532L271.651 247.268M276.977 242.233C276.977 239.3 278.189 236.531 276.977 229.452M269.929 257.403L289.638 262.024L279.178 313.368C277.721 318.276 274.177 324.797 271.651 311.615C269.125 298.433 269.45 287.935 269.929 284.334C269.504 283.569 267.696 281.886 263.869 281.274M195.078 270.502H174.73V401.554H352.019M522.643 401.554H352.019M352.019 401.554V270.757H322.87M273.915 352.442L269.1 371.628C286.8 377.959 322.723 389.845 324.815 386.734C327.431 382.846 310.273 369.875 298.026 364.68V357.987M400.081 112.328L379.415 126.638M379.415 112.328L400.081 126.638" stroke="black" stroke-width="3"/>
<circle cx="260.031" cy="128.53" r="1.34329" fill="#161616"/>
<circle cx="267.753" cy="128.53" r="1.34329" fill="#161616"/>
<line x1="986" y1="400.5" x2="1235" y2="400.5" stroke="black" stroke-width="3"/>
<defs>
<linearGradient id="paint0_linear_663_187" x1="670" y1="0" x2="670" y2="448" gradientUnits="userSpaceOnUse">
<stop stop-color="white" stop-opacity="0"/>
<stop offset="0.213542" stop-color="white" stop-opacity="0.47168"/>
<stop offset="0.364583" stop-color="white" stop-opacity="0.71875"/>
<stop offset="0.578125" stop-color="white"/>
</linearGradient>
</defs>
</svg>
