<svg width="1328" height="764" viewBox="0 0 1328 764" fill="none" xmlns="http://www.w3.org/2000/svg">
<rect x="0.5" y="0.5" width="1327" height="763" stroke="white"/>
<path d="M1224.86 372.261C1226.14 368.788 1230.14 362.799 1235.92 366.63" stroke="black" stroke-width="2" stroke-linecap="round"/>
<mask id="path-3-inside-1_440_27" fill="white">
<path fill-rule="evenodd" clip-rule="evenodd" d="M70.5824 130.842C68.9588 135.255 68.0724 140.024 68.0724 145V209.846C68.0724 232.49 86.4287 250.846 109.072 250.846H655.142C677.786 250.846 696.142 232.49 696.142 209.846V145C696.142 122.356 677.786 104 655.142 104H109.072C99.9052 104 91.4407 107.009 84.6124 112.092C79.7836 107.32 70.9612 102.76 57 104.307C60.5794 107.327 67.1182 116.166 70.5824 130.842Z"/>
</mask>
<path fill-rule="evenodd" clip-rule="evenodd" d="M70.5824 130.842C68.9588 135.255 68.0724 140.024 68.0724 145V209.846C68.0724 232.49 86.4287 250.846 109.072 250.846H655.142C677.786 250.846 696.142 232.49 696.142 209.846V145C696.142 122.356 677.786 104 655.142 104H109.072C99.9052 104 91.4407 107.009 84.6124 112.092C79.7836 107.32 70.9612 102.76 57 104.307C60.5794 107.327 67.1182 116.166 70.5824 130.842Z" fill="white"/>
<path d="M70.5824 130.842L72.4594 131.533L72.6671 130.969L72.5289 130.383L70.5824 130.842ZM84.6124 112.092L83.2065 113.515L84.4286 114.723L85.8067 113.697L84.6124 112.092ZM57 104.307L56.7798 102.319L52.1501 102.832L55.7103 105.836L57 104.307ZM70.0724 145C70.0724 140.263 70.916 135.728 72.4594 131.533L68.7054 130.152C67.0017 134.782 66.0724 139.785 66.0724 145H70.0724ZM70.0724 209.846V145H66.0724V209.846H70.0724ZM109.072 248.846C87.5332 248.846 70.0724 231.385 70.0724 209.846H66.0724C66.0724 233.594 85.3241 252.846 109.072 252.846V248.846ZM655.142 248.846H109.072V252.846H655.142V248.846ZM694.142 209.846C694.142 231.385 676.682 248.846 655.142 248.846V252.846C678.891 252.846 698.142 233.594 698.142 209.846H694.142ZM694.142 145V209.846H698.142V145H694.142ZM655.142 106C676.682 106 694.142 123.461 694.142 145H698.142C698.142 121.252 678.891 102 655.142 102V106ZM109.072 106H655.142V102H109.072V106ZM85.8067 113.697C92.3017 108.861 100.35 106 109.072 106V102C99.4603 102 90.5797 105.156 83.418 110.488L85.8067 113.697ZM86.0182 110.67C80.744 105.457 71.3172 100.709 56.7798 102.319L57.2202 106.295C70.6053 104.812 78.8233 109.183 83.2065 113.515L86.0182 110.67ZM55.7103 105.836C58.8931 108.521 65.2474 116.946 68.6359 131.302L72.5289 130.383C68.989 115.385 62.2658 106.133 58.2897 102.778L55.7103 105.836Z" fill="#BDBDBD" mask="url(#path-3-inside-1_440_27)"/>
<mask id="path-5-inside-2_440_27" fill="white">
<path fill-rule="evenodd" clip-rule="evenodd" d="M78.9296 328.355C76.8204 333.295 75.6529 338.733 75.6529 344.443V410.232C75.6529 432.876 94.0092 451.232 116.653 451.232H624.372C647.016 451.232 665.372 432.876 665.372 410.232V344.443C665.372 321.8 647.016 303.443 624.372 303.443H116.653C109.394 303.443 102.576 305.33 96.6617 308.639C87.9293 305.318 74.9962 302.932 57 304.115C62.715 306.974 72.9032 315.048 78.9296 328.355Z"/>
</mask>
<path fill-rule="evenodd" clip-rule="evenodd" d="M78.9296 328.355C76.8204 333.295 75.6529 338.733 75.6529 344.443V410.232C75.6529 432.876 94.0092 451.232 116.653 451.232H624.372C647.016 451.232 665.372 432.876 665.372 410.232V344.443C665.372 321.8 647.016 303.443 624.372 303.443H116.653C109.394 303.443 102.576 305.33 96.6617 308.639C87.9293 305.318 74.9962 302.932 57 304.115C62.715 306.974 72.9032 315.048 78.9296 328.355Z" fill="white"/>
<path d="M78.9296 328.355L80.769 329.141L81.1145 328.332L80.7515 327.53L78.9296 328.355ZM96.6617 308.639L95.9508 310.508L96.8235 310.84L97.6383 310.384L96.6617 308.639ZM57 304.115L56.8689 302.119L49.5073 302.603L56.1052 305.903L57 304.115ZM77.6529 344.443C77.6529 339.008 78.7638 333.837 80.769 329.141L77.0903 327.57C74.877 332.753 73.6529 338.458 73.6529 344.443H77.6529ZM77.6529 410.232V344.443H73.6529V410.232H77.6529ZM116.653 449.232C95.1138 449.232 77.6529 431.771 77.6529 410.232H73.6529C73.6529 433.98 92.9047 453.232 116.653 453.232V449.232ZM624.372 449.232H116.653V453.232H624.372V449.232ZM663.372 410.232C663.372 431.771 645.911 449.232 624.372 449.232V453.232C648.12 453.232 667.372 433.98 667.372 410.232H663.372ZM663.372 344.443V410.232H667.372V344.443H663.372ZM624.372 305.443C645.911 305.443 663.372 322.904 663.372 344.443H667.372C667.372 320.695 648.12 301.443 624.372 301.443V305.443ZM116.653 305.443H624.372V301.443H116.653V305.443ZM97.6383 310.384C103.262 307.238 109.745 305.443 116.653 305.443V301.443C109.043 301.443 101.89 303.422 95.6851 306.894L97.6383 310.384ZM97.3727 306.77C88.3272 303.33 75.0998 300.921 56.8689 302.119L57.1311 306.11C74.8927 304.944 87.5314 307.306 95.9508 310.508L97.3727 306.77ZM56.1052 305.903C61.4518 308.578 71.2892 316.333 77.1078 329.181L80.7515 327.53C74.5172 313.764 63.9782 305.369 57.8948 302.326L56.1052 305.903Z" fill="#BDBDBD" mask="url(#path-5-inside-2_440_27)"/>
<path d="M145.506 163.12H148.226V164.68C148.226 170.96 144.226 176.24 138.186 178.28L136.586 175.68C141.906 173.96 145.506 169.56 145.506 164.68V163.12ZM146.106 163.12H148.826V164.68C148.826 169.16 152.546 173.2 157.866 174.76L156.346 177.36C150.266 175.48 146.106 170.6 146.106 164.68V163.12ZM137.506 161.32H156.786V164H137.506V161.32ZM145.506 156.8H148.826V162.28H145.506V156.8ZM155.706 167.24H163.866V170H155.706V167.24ZM162.906 156.96H166.226V178.84H162.906V156.96ZM154.346 179.8C161.826 179.8 166.386 182.24 166.386 186.44C166.386 190.6 161.826 193.04 154.346 193.04C146.826 193.04 142.266 190.6 142.266 186.44C142.266 182.24 146.826 179.8 154.346 179.8ZM154.346 182.4C148.866 182.4 145.586 183.88 145.586 186.44C145.586 188.96 148.866 190.44 154.346 190.44C159.786 190.44 163.106 188.96 163.106 186.44C163.106 183.88 159.786 182.4 154.346 182.4ZM199.703 156.96H203.023V183.76H199.703V156.96ZM189.503 161.68H200.943V164.36H189.503V161.68ZM179.903 189.6H203.983V192.32H179.903V189.6ZM179.903 181.44H183.223V190.84H179.903V181.44ZM175.383 159.6H178.703V176.64H175.383V159.6ZM175.383 175.6H178.103C183.263 175.6 188.103 175.32 193.743 174.32L194.063 177.08C188.263 178.12 183.423 178.36 178.103 178.36H175.383V175.6ZM189.503 168.56H200.943V171.28H189.503V168.56ZM226.3 179.76C233.98 179.76 238.9 182.28 238.9 186.44C238.9 190.56 233.98 193.04 226.3 193.04C218.58 193.04 213.7 190.56 213.7 186.44C213.7 182.28 218.58 179.76 226.3 179.76ZM226.3 182.36C220.62 182.36 216.98 183.92 216.98 186.44C216.98 188.92 220.62 190.48 226.3 190.48C231.98 190.48 235.58 188.92 235.58 186.44C235.58 183.92 231.98 182.36 226.3 182.36ZM213.98 158.76H237.26V161.48H213.98V158.76ZM210.1 173.8H242.74V176.48H210.1V173.8ZM223.5 166.84H226.78V174.56H223.5V166.84ZM235.34 158.76H238.58V161.84C238.58 164.76 238.58 167.68 237.62 171.44L234.34 171.04C235.34 167.32 235.34 164.68 235.34 161.84V158.76ZM271.616 156.96H274.936V183.4H271.616V156.96ZM273.896 167.92H280.296V170.68H273.896V167.92ZM261.736 159.76H265.256C265.256 169.12 258.696 175.96 248.336 179.28L246.896 176.56C256.016 173.76 261.736 168.16 261.736 161.2V159.76ZM248.376 159.76H263.416V162.48H248.376V159.76ZM252.376 189.6H276.536V192.32H252.376V189.6ZM252.376 180.72H255.696V190.68H252.376V180.72ZM319.663 156.96H322.983V176.28H319.663V156.96ZM322.063 165.32H328.343V168.08H322.063V165.32ZM309.663 159.48H313.343C313.343 168.6 306.983 174.52 296.383 176.96L295.063 174.28C304.583 172.16 309.663 167.32 309.663 161.28V159.48ZM296.543 159.48H311.583V162.2H296.543V159.48ZM300.223 177.92H323.183V180.44H303.503V191.4H300.223V177.92ZM300.223 190.12H323.983V192.64H300.223V190.12ZM302.383 183.96H322.743V186.4H302.383V183.96ZM357.98 156.92H361.3V193.16H357.98V156.92ZM342.22 159.72C347.58 159.72 351.42 164.64 351.42 172.32C351.42 180.04 347.58 184.96 342.22 184.96C336.9 184.96 333.06 180.04 333.06 172.32C333.06 164.64 336.9 159.72 342.22 159.72ZM342.22 162.72C338.7 162.72 336.22 166.48 336.22 172.32C336.22 178.2 338.7 182.04 342.22 182.04C345.78 182.04 348.22 178.2 348.22 172.32C348.22 166.48 345.78 162.72 342.22 162.72ZM404.227 156.92H407.587V193.12H404.227V156.92ZM406.667 171.6H413.347V174.36H406.667V171.6ZM394.987 160.84H398.227C398.227 171.12 393.507 180.4 381.827 186.28L379.987 183.72C389.987 178.64 394.987 170.92 394.987 161.36V160.84ZM381.667 160.84H396.707V163.56H381.667V160.84ZM442.864 156.96H446.184V175.68H442.864V156.96ZM422.824 177.52H446.224V186.2H426.144V191.16H422.904V183.72H442.944V180.12H422.824V177.52ZM422.904 190.08H447.424V192.72H422.904V190.08ZM425.984 158H428.744V160.76C428.744 167.44 424.584 173.12 418.464 175.36L416.824 172.72C422.264 170.8 425.984 166 425.984 160.76V158ZM426.584 158H429.304V160.76C429.304 165.76 433.104 170.28 438.464 172.04L436.824 174.64C430.744 172.56 426.584 167.24 426.584 160.76V158ZM464.591 176.04H497.351V178.76H464.591V176.04ZM479.551 177.4H482.871V185.72H479.551V177.4ZM468.751 189.6H493.711V192.32H468.751V189.6ZM468.751 182.52H472.031V190.64H468.751V182.52ZM468.951 158.08H472.231V162.68H489.711V158.08H493.031V172.56H468.951V158.08ZM472.231 165.28V169.88H489.711V165.28H472.231ZM513.973 178.352C513.945 176.78 514.2 175.516 514.74 174.56C515.28 173.603 515.981 172.907 516.843 172.472C517.714 172.036 518.632 171.818 519.598 171.818C520.564 171.818 521.445 172.031 522.24 172.457C523.045 172.874 523.964 173.532 524.996 174.432C525.697 175.038 526.255 175.464 526.672 175.71C527.098 175.956 527.562 176.08 528.064 176.08C528.878 176.08 529.522 175.786 529.996 175.199C530.469 174.602 530.697 173.741 530.678 172.614H533.746C533.774 174.186 533.519 175.45 532.979 176.406C532.449 177.363 531.748 178.059 530.877 178.494C530.005 178.93 529.087 179.148 528.121 179.148C527.155 179.148 526.274 178.939 525.479 178.523C524.683 178.097 523.765 177.434 522.723 176.534C522.032 175.928 521.473 175.502 521.047 175.256C520.621 175.009 520.157 174.886 519.655 174.886C518.888 174.886 518.253 175.156 517.752 175.696C517.259 176.226 517.022 177.112 517.041 178.352H513.973ZM540.34 178.352C540.312 176.78 540.568 175.516 541.107 174.56C541.647 173.603 542.348 172.907 543.21 172.472C544.081 172.036 544.999 171.818 545.965 171.818C546.931 171.818 547.812 172.031 548.607 172.457C549.412 172.874 550.331 173.532 551.363 174.432C552.064 175.038 552.623 175.464 553.039 175.71C553.465 175.956 553.929 176.08 554.431 176.08C555.246 176.08 555.89 175.786 556.363 175.199C556.837 174.602 557.064 173.741 557.045 172.614H560.113C560.142 174.186 559.886 175.45 559.346 176.406C558.816 177.363 558.115 178.059 557.244 178.494C556.373 178.93 555.454 179.148 554.488 179.148C553.522 179.148 552.642 178.939 551.846 178.523C551.051 178.097 550.132 177.434 549.09 176.534C548.399 175.928 547.84 175.502 547.414 175.256C546.988 175.009 546.524 174.886 546.022 174.886C545.255 174.886 544.621 175.156 544.119 175.696C543.626 176.226 543.39 177.112 543.409 178.352H540.34ZM570.912 160.909L570.628 181.818H567.333L567.048 160.909H570.912ZM568.98 190.227C568.28 190.227 567.678 189.976 567.176 189.474C566.674 188.973 566.423 188.371 566.423 187.67C566.423 186.97 566.674 186.368 567.176 185.866C567.678 185.365 568.28 185.114 568.98 185.114C569.681 185.114 570.282 185.365 570.784 185.866C571.286 186.368 571.537 186.97 571.537 187.67C571.537 188.134 571.419 188.561 571.182 188.949C570.955 189.337 570.647 189.65 570.259 189.886C569.88 190.114 569.454 190.227 568.98 190.227Z" fill="#828282"/>
<path d="M145.426 362.12H148.066V368C148.066 375.52 143.466 383.28 137.826 386.16L135.906 383.52C141.066 381 145.426 374.12 145.426 368V362.12ZM146.026 362.12H148.666V368C148.666 373.72 152.746 380.16 157.986 382.64L156.106 385.28C150.386 382.44 146.026 375.16 146.026 368V362.12ZM137.186 360.64H156.666V363.44H137.186V360.64ZM160.946 356.96H164.306V393.12H160.946V356.96ZM163.506 371.56H170.226V374.36H163.506V371.56ZM173.303 385.68H206.063V388.44H173.303V385.68ZM187.863 376.92H191.143V386.6H187.863V376.92ZM187.783 359.36H190.663V362.16C190.663 369.88 183.263 375.84 175.983 377.36L174.583 374.6C180.943 373.44 187.783 368.12 187.783 362.16V359.36ZM188.383 359.36H191.263V362.16C191.263 368.16 198.143 373.44 204.503 374.6L203.063 377.36C195.783 375.84 188.383 369.88 188.383 362.16V359.36ZM228.14 369.2H238.22V371.92H228.14V369.2ZM219.42 360.08H222.14V366.52C222.14 374.64 217.86 382.4 212.14 385.48L210.02 382.84C215.34 380.2 219.42 373.24 219.42 366.52V360.08ZM220.06 360.08H222.74V366.52C222.74 373.12 226.82 379.68 232.06 382.16L230.1 384.84C224.26 381.88 220.06 374.44 220.06 366.52V360.08ZM236.58 356.92H239.86V393.16H236.58V356.92ZM258.146 385.76H290.906V388.52H258.146V385.76ZM272.786 376.4H276.106V386.52H272.786V376.4ZM261.946 359.96H286.906V377H261.946V359.96ZM283.706 362.64H265.186V374.32H283.706V362.64ZM321.223 357H324.583V377.64H321.223V357ZM301.223 379.6H324.583V392.64H301.223V379.6ZM321.303 382.24H304.463V389.96H321.303V382.24ZM305.183 358.88C310.663 358.88 314.583 362.32 314.583 367.32C314.583 372.32 310.663 375.76 305.183 375.76C299.703 375.76 295.743 372.32 295.743 367.32C295.743 362.32 299.703 358.88 305.183 358.88ZM305.183 361.64C301.583 361.64 298.983 363.96 298.983 367.32C298.983 370.68 301.583 372.96 305.183 372.96C308.783 372.96 311.383 370.68 311.383 367.32C311.383 363.96 308.783 361.64 305.183 361.64ZM347.07 359.32H369.67V362H347.07V359.32ZM342.99 374.84H375.67V377.56H342.99V374.84ZM357.59 376.64H360.91V393.16H357.59V376.64ZM368.11 359.32H371.35V362.44C371.35 366.2 371.35 370.44 369.99 376.56L366.71 376.12C368.11 370.28 368.11 366.08 368.11 362.44V359.32ZM404.507 356.96H407.827V377.96H404.507V356.96ZM406.387 366.16H413.187V368.96H406.387V366.16ZM385.107 379.56H388.347V383.4H404.547V379.56H407.827V392.64H385.107V379.56ZM388.347 385.96V389.96H404.547V385.96H388.347ZM379.867 360.64H401.227V363.36H379.867V360.64ZM390.547 365C395.707 365 399.187 367.52 399.187 371.36C399.187 375.2 395.707 377.72 390.547 377.72C385.347 377.72 381.867 375.2 381.867 371.36C381.867 367.52 385.347 365 390.547 365ZM390.547 367.52C387.227 367.52 385.027 369.04 385.027 371.36C385.027 373.68 387.227 375.2 390.547 375.2C393.787 375.2 396.027 373.68 396.027 371.36C396.027 369.04 393.787 367.52 390.547 367.52ZM388.867 356.6H392.187V362.12H388.867V356.6ZM442.864 356.96H446.184V393.12H442.864V356.96ZM418.864 360.48H422.144V382.88H418.864V360.48ZM418.864 380.92H421.824C427.304 380.92 433.024 380.52 439.144 379.24L439.544 382.08C433.264 383.36 427.544 383.8 421.824 383.8H418.864V380.92ZM477.821 356.92H481.181V393.16H477.821V356.92ZM480.381 371.2H487.101V374H480.381V371.2ZM454.901 381.36H457.741C464.421 381.36 469.101 381.12 474.501 380.12L474.861 382.92C469.301 383.96 464.541 384.16 457.741 384.16H454.901V381.36ZM454.901 360.44H471.701V363.16H458.181V382.6H454.901V360.44ZM495.678 360.909L495.394 381.818H492.098L491.814 360.909H495.678ZM493.746 390.227C493.045 390.227 492.444 389.976 491.942 389.474C491.44 388.973 491.189 388.371 491.189 387.67C491.189 386.97 491.44 386.368 491.942 385.866C492.444 385.365 493.045 385.114 493.746 385.114C494.447 385.114 495.048 385.365 495.55 385.866C496.052 386.368 496.303 386.97 496.303 387.67C496.303 388.134 496.184 388.561 495.948 388.949C495.72 389.337 495.413 389.65 495.024 389.886C494.646 390.114 494.219 390.227 493.746 390.227ZM517.161 367.84H541.121V370.6H517.161V367.84ZM529.161 373.16C534.281 373.16 538.041 375.88 538.041 379.76C538.041 383.64 534.281 386.36 529.161 386.36C524.041 386.36 520.241 383.64 520.241 379.76C520.241 375.88 524.041 373.16 529.161 373.16ZM529.161 375.96C526.001 375.96 523.641 377.52 523.641 379.76C523.641 382 526.001 383.56 529.161 383.56C532.281 383.56 534.681 382 534.681 379.76C534.681 377.52 532.281 375.96 529.161 375.96ZM527.481 362.96H530.801V370.12H527.481V362.96ZM553.957 367.84H577.917V370.6H553.957V367.84ZM565.957 373.16C571.077 373.16 574.837 375.88 574.837 379.76C574.837 383.64 571.077 386.36 565.957 386.36C560.837 386.36 557.037 383.64 557.037 379.76C557.037 375.88 560.837 373.16 565.957 373.16ZM565.957 375.96C562.797 375.96 560.437 377.52 560.437 379.76C560.437 382 562.797 383.56 565.957 383.56C569.077 383.56 571.477 382 571.477 379.76C571.477 377.52 569.077 375.96 565.957 375.96ZM564.277 362.96H567.597V370.12H564.277V362.96Z" fill="#828282"/>
</svg>
