<svg width="56" height="61" viewBox="0 0 56 61" fill="none" xmlns="http://www.w3.org/2000/svg">
<path fill-rule="evenodd" clip-rule="evenodd" d="M2.68555 12C2.68555 6.47716 7.1627 2 12.6855 2H43.0919C48.6148 2 53.0919 6.47715 53.0919 12V46.6442H53.0919V56.9219C53.0919 58.3789 51.5839 59.3469 50.2592 58.7404L27.8887 48.4969L5.5182 58.7404C4.1935 59.3469 2.68555 58.3789 2.68555 56.9219V46.6442V44.3834V12Z" fill="white"/>
<path d="M53.0919 46.6442V48.6442H55.0919V46.6442H53.0919ZM53.0919 46.6442V44.6442H51.0919V46.6442H53.0919ZM50.2592 58.7404L51.0919 56.9219L50.2592 58.7404ZM27.8887 48.4969L28.7214 46.6785L27.8887 46.2972L27.0561 46.6785L27.8887 48.4969ZM5.5182 58.7404L4.68555 56.9219L4.68555 56.9219L5.5182 58.7404ZM12.6855 0C6.05813 0 0.685547 5.3726 0.685547 12H4.68555C4.68555 7.58173 8.26727 4 12.6855 4V0ZM43.0919 0H12.6855V4H43.0919V0ZM55.0919 12C55.0919 5.37258 49.7193 0 43.0919 0V4C47.5102 4 51.0919 7.58172 51.0919 12H55.0919ZM55.0919 46.6442V12H51.0919V46.6442H55.0919ZM53.0919 48.6442H53.0919V44.6442H53.0919V48.6442ZM55.0919 56.9219V46.6442H51.0919V56.9219H55.0919ZM49.4266 60.5588C52.076 61.772 55.0919 59.8359 55.0919 56.9219H51.0919L51.0919 56.9219L49.4266 60.5588ZM27.0561 50.3153L49.4266 60.5588L51.0919 56.9219L28.7214 46.6785L27.0561 50.3153ZM6.35086 60.5588L28.7214 50.3153L27.0561 46.6785L4.68555 56.9219L6.35086 60.5588ZM0.685547 56.9219C0.685547 59.8359 3.70144 61.772 6.35086 60.5588L4.68555 56.9219L4.68555 56.9219H0.685547ZM0.685547 46.6442V56.9219H4.68555V46.6442H0.685547ZM0.685547 44.3834V46.6442H4.68555V44.3834H0.685547ZM0.685547 12V44.3834H4.68555V12H0.685547Z" fill="#1B403E"/>
</svg>
