<svg width="327" height="288" viewBox="0 0 327 288" fill="none" xmlns="http://www.w3.org/2000/svg">
<path d="M245.801 257.564L245.339 259.175L246.844 259.913C248.745 260.843 250.755 261.621 252.86 262.226C271.585 267.604 291.095 257.319 296.336 239.073C301.577 220.827 290.499 201.756 271.775 196.377C269.669 195.773 267.553 195.365 265.448 195.146L263.78 194.971L263.318 196.583L259.448 210.055L258.691 212.691L261.432 212.606C263.111 212.554 264.828 212.757 266.534 213.248C275.343 215.778 280.432 224.97 277.902 233.778C275.372 242.587 266.18 247.677 257.372 245.146C255.665 244.656 254.102 243.918 252.707 242.983L250.428 241.456L249.671 244.092L245.801 257.564Z" fill="#D3364F" stroke="black" stroke-width="4"/>
<path d="M177.644 147.945L264.193 172.805C267.378 173.72 269.218 177.043 268.303 180.228L248.965 247.554C245 261.356 230.598 269.33 216.797 265.366L168.694 251.549C154.892 247.585 146.918 233.183 150.882 219.382L170.221 152.056C171.135 148.871 174.459 147.03 177.644 147.945Z" fill="#D3364F" stroke="black" stroke-width="8"/>
<path d="M172.745 150.774C173.05 149.712 174.158 149.099 175.219 149.404L265.475 175.328C266.536 175.633 267.15 176.741 266.845 177.803L263.416 189.74L169.316 162.711L172.745 150.774Z" fill="#FFF9F9"/>
<path d="M189.343 153.461L180.59 150.947L160.056 222.434C154.776 240.816 160.021 247.297 167.421 249.028C157.131 241.966 178.754 183.453 189.343 153.461Z" fill="white" fill-opacity="0.3"/>
<path d="M191.344 128.967C185.788 136.215 185.677 143.658 186.316 146.474L260.356 167.741C256.146 159.03 242.298 146.762 220.143 148.294C197.987 149.827 217.504 134.112 220.018 125.359C227.588 91.799 209.499 92.9202 201.192 94.6825C193.685 96.2753 194.348 106.141 196.897 109.636C199.446 113.132 198.29 119.907 191.344 128.967Z" fill="#9BDBFF" stroke="black" stroke-width="6"/>
<path d="M203.468 192.262L215.939 183.21L226.298 192.503L226.267 214.604L203.906 214.104L203.468 192.262Z" fill="#1DC078"/>
<path d="M216.187 154.854L215.939 183.21M215.939 183.21L203.468 192.262L203.906 214.104L226.267 214.604L226.298 192.503L215.939 183.21Z" stroke="black" stroke-width="8"/>
<path d="M37.0486 62.2188L150.432 48.145C159.747 46.9888 168.052 54.0627 168.393 63.4432L174.809 240.334C175.109 248.625 169.023 255.77 160.79 256.792L78.3487 267.025C70.1271 268.046 62.4863 262.621 60.7381 254.523L23.3798 81.4733C21.3964 72.2862 27.7214 63.3766 37.0486 62.2188Z" fill="white" stroke="#030461" stroke-width="8"/>
<path d="M48.7567 197.53L35.7476 137.056L170.347 120.349L172.518 182.168L48.7567 197.53Z" fill="#FF8261" stroke="#262240" stroke-width="8"/>
<path d="M149.239 250.28C156.617 240.403 143.975 116.789 136.733 56.2159L161.941 42.6861L167.78 196.374C171.771 244.523 157.082 252.373 149.239 250.28Z" fill="#ABABC9" fill-opacity="0.3"/>
<path d="M154.118 34.3636L159.079 33.7477L158.464 28.7857L158.253 27.0905C156.552 13.3885 144.066 3.65964 130.364 5.3604L49.7162 15.3709C36.0142 17.0716 26.2853 29.558 27.9861 43.26L28.1965 44.9552L28.8124 49.9171L33.7743 49.3012L154.118 34.3636Z" fill="#646276" stroke="#0A0253" stroke-width="10"/>
<path d="M163.212 21.2723L17.6285 39.3429C13.4183 39.8655 9.9961 42.9879 9.09071 47.1327L5.34085 64.2992C3.8691 71.0368 9.49836 77.2067 16.3423 76.3572L173.277 56.8775C180.069 56.0346 184.026 48.7725 181.052 42.6089L173.451 26.8513C171.588 22.9885 167.468 20.744 163.212 21.2723Z" fill="#646177" stroke="#030461" stroke-width="10"/>
<circle cx="87.95" cy="150.102" r="6.16003" transform="rotate(-7.07568 87.95 150.102)" fill="white"/>
<circle cx="122.181" cy="145.854" r="6.16003" transform="rotate(-7.07568 122.181 145.854)" fill="white"/>
<path d="M92.5156 166.916C98.0132 171.199 111.917 173.198 123.081 163.122" stroke="white" stroke-width="7" stroke-linecap="round"/>
</svg>
