<svg width="440" height="180" viewBox="0 0 440 180" fill="none" xmlns="http://www.w3.org/2000/svg">
<rect x="219" y="43" width="5" height="6" fill="white"/>
<rect x="238" y="51" width="26" height="30" fill="white"/>
<rect x="318" y="1" width="79" height="48" fill="white"/>
<path d="M293 56C286.2 56.8 285.5 46 286 40.5L301.5 39.5L302 47C302.167 47 302.7 46.9 303.5 46.5C304.5 46 305.5 48 305.5 49C305.5 49.8 303.833 50.6667 303 51C303 52.3333 303.1 55.4 303.5 57C308.7 56.2 315 59.3333 317.5 61C319.5 66 323.4 77 323 81C322.6 85 319.167 86 317.5 86L320 98.5L301.5 152.5L290.5 179H264V177C264 175 274 172.833 279 172C279.5 169.167 280.5 163.3 280.5 162.5C280.5 161.7 294.5 129.167 301.5 113L280.5 102L283.5 88C283.667 87.8333 284.4 87.5 286 87.5C274 85.5 285 66.5 287.5 62C289.5 58.4 294.333 57.5 296.5 57.5V56H293Z" fill="white"/>
<path d="M366.5 51L365 46.5L378 43C378.667 49.1667 380 61.6 380 62C379.6 65.6 382.167 66.8333 383.5 67L397.5 70.5V68.5C391.1 68.5 389.833 64.1667 390 62V51L388.5 48L395 39.5L399 43L402.5 42.5C413.3 43.3 413.667 52.8333 412.5 57.5L402.5 64.5L403 70.5C415.8 71.7 425.333 99.3333 428.5 113L419 131L434.5 133.5L425 154.5C423.667 154.833 420 155.4 416 155C412 154.6 413.667 153.167 415 152.5L421 150.5L422.5 144L395 128L389 141.5L388.5 155C384.833 155 374.5 154.9 362.5 154.5C350.5 154.1 355.167 152 359 151L375.5 149V140.5L380 105.5L381 102.5L380 100.5C380 101 379.8 102.3 379 103.5C378.2 104.7 377.333 103.333 377 102.5C377 102.667 376.9 103.1 376.5 103.5C376 104 375.5 103.5 373.5 102.5C370.5 102.5 371.5 100 373 96C374.142 92.9544 376.885 92.0828 378.296 92.0058C378.216 91.7441 378.118 91.4131 378 91C377.2 88.2 379 88.5 380 89L386 93.5L387.5 90.5L391 92L392 82.5L382.5 78.5C369.7 75.7 364.5 59 363.5 51H366.5Z" fill="white"/>
<path d="M184.5 57.5H200C200.667 57.5 201.7 59.6 200.5 68C199.3 76.4 194 76.8333 191.5 76L190.5 79C192.1 79 194.833 80 196 80.5C196.667 79.6667 198.3 78 199.5 78C201 78 200 80.5 200.5 81C202.9 81 204.167 82 204.5 82.5C206 84.1667 209 87.6 209 88C209 88.4 210.333 88.1667 211 88C212.167 91.1667 214.7 98 215.5 100C216.5 102.5 215 108 211.5 108.5C208.7 108.9 204.667 106 203 104.5L204.5 120L220.5 166L222.5 172C221.833 172.333 222.6 173.2 231 174C239.4 174.8 240.833 177.667 240.5 179L224.5 178.5C224.476 178.237 224.449 177.853 224.433 177.461C224.388 178.059 224.175 178.649 224 179L189.5 178.5L194.5 145H179.5C168 145 171 141.5 171 139.5C171 137.9 172.333 136.167 173 135.5L168.5 125L171 108.5L173 103C173.167 101.167 173.6 96.6 174 93C174.5 88.5 177 83.5 179 81C180.6 79 184.333 79.1667 186 79.5L185.5 73C185.167 72.8333 183.8 72 181 70C178.2 68 181.833 65.8333 184 65L184.5 57.5Z" fill="white"/>
<rect x="60" y="15" width="66" height="79" fill="white"/>
<path d="M58.4999 43.5C58.4999 42.3 59.8333 42 60.4999 42L73.5 43.5L59 89H50L48.9998 94L68 108H82L84 167H4V108H13L18.5 91C18.8333 88.8333 19.6998 83.8 20.4998 81C13.9998 78 15.9998 73 17.4998 68.5C18.6998 64.9 21.6665 59.3333 22.9998 57L26.9998 52.5V47.5C27.3331 44.5 28.0998 38.2 28.4998 37C28.8998 35.8 31.3331 34.8333 32.4998 34.5L36.9998 33L48.9998 39L47.4998 47.5C47.9998 47.6667 48.6998 48.6 47.4998 51C46.2998 53.4 42.9998 53.6667 41.4998 53.5V54.5C42.3331 54.6667 44.3998 55.3 45.9998 56.5C47.5998 57.7 48.9998 62.6667 49.4998 65H51.4998L54.4998 54H56.9999V46.5C56.9999 46.6667 56.6999 46.9 55.4999 46.5C54.2999 46.1 55.9999 45 56.9999 44.5C57.4999 44.6667 58.4999 44.7 58.4999 43.5Z" fill="white"/>
<path d="M312.941 1H317.788M401.103 1H317.788M317.788 1V31.8746M317.788 36.9744V49.5172H365.734M379.095 49.5172H388.789M396.649 41.5229V1.68916M331.412 36.1474C332.809 32.6556 336.914 25.3689 342.154 24.1559M365.734 24.1559C361.411 23.4668 351.848 22.2263 348.18 22.7776M372.414 24.1559C373.681 24.4776 377.602 22.7776 383.156 13.405M383.156 13.405L379.095 14.3698M383.156 13.405L383.811 17.4021" stroke="black"/>
<path d="M365.735 40.1792C364.729 40.2713 362.73 40.1792 362.782 39.0741C362.835 37.969 363.592 37.8309 363.963 37.9H365.735M363.242 37.9C363.001 37.6467 362.664 37.0712 363.242 36.7949M365.735 33.8941C366.019 33.2495 367.362 31.9602 370.46 31.9602C373.557 31.9602 375.162 33.2495 375.578 33.8941C375.796 34.4696 376.168 36.0766 375.906 37.9M375.25 41.5605V48.9507" stroke="black"/>
<path d="M397.895 59.8308V56.5022C400.911 58.0001 408.339 57.8198 411.676 57.5424C411.676 58.0047 411.611 59.4286 411.351 61.4257C410.636 67.3895 405.89 68.0829 403.127 68.0136C400.917 67.9581 399.574 65.7945 399.178 64.7197C400.882 64.3868 401.275 63.3443 401.259 62.8647C401.264 62.1828 401.067 60.6595 400.235 60.0215C399.403 59.3835 398.328 59.6285 397.895 59.8308Z" fill="#373737"/>
<path d="M389.972 53.2927V62.2237C389.886 63.6436 390.543 66.7305 393.866 67.7198L397.209 68.6472L397.436 71.7731C397.382 72.3685 397.664 73.5799 399.221 73.6623C401.169 73.7654 402.142 73.4906 402.207 71.7731C402.259 70.3991 402.229 68.6129 402.207 67.8915M397.891 64.4565C398.875 64.7313 400.896 64.8137 401.104 62.9451C401.363 60.6093 399.481 58.617 397.534 60.2658" stroke="black" stroke-linecap="round"/>
<path d="M366.362 37.8164L354.363 33.3388C353.928 33.1551 353.189 32.4709 353.711 31.2034C354.232 29.9359 355.493 30.216 356.058 30.5145L377.318 38.5741C378.144 38.8956 379.705 39.8691 379.34 41.1917C378.975 42.5143 377.84 42.4317 377.318 42.225L369.754 39.2629" stroke="black"/>
<ellipse cx="345.224" cy="23.5595" rx="3.58688" ry="3.87005" fill="#CECECE"/>
<ellipse cx="368.728" cy="25.2587" rx="3.68127" ry="3.87005" fill="#CECECE"/>
<path d="M365.047 145.986H393.042V135.608L417.373 148.062L427.315 127.028C426.705 126.751 425.013 126.115 423.129 125.783C425.746 124.012 427.534 116.373 428.1 112.775C425.004 111.899 417.897 109.842 414.234 108.624C410.885 113.163 407.431 113.283 406.123 112.775C397.359 110.1 379.254 104.805 376.951 105.026C374.649 105.247 368.056 132.425 365.047 145.986Z" fill="#373737"/>
<path d="M391.864 45.9051L398.931 43.2599M398.931 43.2599L399.978 42.868C402.072 42.3158 407.111 42.0397 410.513 45.3529C413.916 48.6661 413.414 54.8783 412.738 57.5703C411.277 57.5473 407.686 57.515 405.017 57.5703C397.322 57.6255 392.3 53.8659 390.752 51.9793C388.832 49.5404 385.569 44.069 387.873 41.6946C390.752 38.7265 396.183 41.1669 398.931 43.2599ZM391.864 74.0672C391.935 76.3502 391.971 79.8285 391.864 83.1559M390.752 92.0136C391.426 90.6513 391.741 87.0045 391.864 83.1559M403.185 97.6736L386.826 90.495L385.682 92.8419M409.466 81.7979C410.557 85.5713 413.026 94.0291 414.178 97.6736C415.617 102.229 415.617 105.266 412.738 109.822C410.435 113.466 405.409 112.537 403.185 111.617L379.628 105.266L381.175 102.091M402.53 70.4779C405.104 70.846 411.534 73.6254 416.664 81.7979C423.077 92.0136 428.312 108.441 428.573 114.792M425.563 122.384C423.382 126.066 416.821 132.324 408.027 127.906C402.33 125.045 396.838 122.376 392.846 120.464M387.873 118.105C388.948 118.607 390.675 119.424 392.846 120.464M392.846 120.464V146.681M374.916 145.439V149.028L359.081 151.237C357.467 151.467 354.422 152.203 355.155 153.308C356.071 154.688 355.678 154.964 364.578 154.826C371.697 154.716 383.685 154.78 388.789 154.826V145.439M420.067 142.678L422.553 143.92L421.245 150.547L415.748 152.341C414.265 152.571 411.874 153.39 414.178 154.826H425.563L434.332 133.428L424.778 132.462M381.175 102.091L379.628 99.7444C379.824 101.194 379.746 104.038 377.861 103.817C377.354 103.486 377.152 102.818 377.112 102.091M381.175 102.091L385.682 92.8419M378.581 98.0878C378.162 98.0878 377.621 99.1922 377.403 99.7444C377.239 100.314 377.065 101.243 377.112 102.091M377.112 102.091C377.122 102.62 376.84 103.61 375.636 103.334C374.869 103.158 374.544 102.695 374.418 102.091M375.636 96.8453C375.244 97.4435 374.445 98.9299 374.393 100.089C374.361 100.8 374.297 101.511 374.418 102.091M374.418 102.091C374.279 102.367 373.765 102.892 372.822 102.781C371.645 102.643 371.252 101.401 371.383 99.7444C371.514 98.0878 374.073 92.4277 377.112 92.0136C377.634 91.9425 378.186 91.8955 378.744 91.867M385.682 92.8419L383.881 92.0136C383.757 91.9998 383.614 91.9855 383.456 91.9712M378.744 91.867C378.417 91.5362 377.809 90.5848 377.992 89.4252C378.175 88.2656 379.312 88.4358 379.857 88.6659L383.456 91.9712M378.744 91.867C380.527 91.776 382.367 91.8729 383.456 91.9712M391.864 83.1559L375.636 75.1716C374.349 75.0795 371.174 73.2665 368.765 66.7506C366.357 60.2346 364.098 53.5438 363.269 51.0129L366.148 50.4938M396.772 70.4779C393.075 69.2354 385.073 66.7506 382.638 66.7506C380.202 66.7506 379.769 64.6338 379.857 63.5754L378.581 48.2519L366.148 50.4938M366.148 50.4938C365.559 49.0792 364.604 45.3391 365.494 41.6946C366.606 37.1389 366.672 35.9655 368.307 36.3797C369.616 36.711 369.812 41.2114 369.747 43.4202" stroke="black"/>
<path d="M186.201 65.7763C184.805 65.235 181.943 64.8019 181.664 67.4003C181.315 70.6482 183.642 70.3002 184.572 70.3002C185.317 70.3002 185.968 70.3002 186.201 70.3002V79.696C187.209 79.928 189.412 80.1368 190.157 79.116C190.901 78.0953 191.01 76.4481 190.971 75.7521C193.027 76.2161 197.51 76.4017 198.999 73.4321C200.488 70.4626 200.55 67.0909 200.395 65.7763V57.8884M178.872 80.624C177.786 81.7067 175.381 85.4959 174.451 91.9918C173.52 98.4877 173.287 102.354 173.287 103.476C173.132 104.597 173.613 106.979 176.777 107.536C180.733 108.232 182.246 106.26 184.572 104.868C186.434 103.754 194.966 95.8197 198.999 91.9918L198.359 91.4491M180.5 96.1677L188.877 83.408L191.611 85.7266M191.611 85.7266L193.938 82.19C194.268 81.668 195.52 80.624 197.893 80.624C198.467 80.624 199.035 80.6466 199.58 80.6835M191.611 85.7266L197.254 90.5118M204.292 84.7419C204.292 84.8966 204.385 84.9043 204.758 83.698C204.823 83.4867 204.843 83.283 204.828 83.089M201.093 83.408C202.159 83.4466 204.292 83.8604 204.292 85.2059V86.6849M201.093 85.4379C202.024 85.5056 203.926 85.8091 204.089 86.4819C204.292 87.3229 203.972 88.5119 203.42 88.7439C202.867 88.9759 201.006 88.3959 200.482 88.2509C199.959 88.1059 199.551 87.7579 198.999 88.2509C198.557 88.6453 197.651 89.9225 197.254 90.5118M197.254 90.5118L198.359 91.4491M196.148 80.624C196.73 79.5994 198.115 77.5965 198.999 77.7821C200.104 78.0141 200.511 78.826 200.22 79.464C199.988 79.9744 199.697 80.4897 199.58 80.6835M199.58 80.6835C201.293 80.7995 202.773 81.0574 203.42 81.204C203.916 81.4751 204.757 82.175 204.828 83.089M204.828 83.089C205.861 84.017 208.05 86.1397 208.539 87.2069C209.027 88.2741 208.859 88.0382 208.713 87.7869M202.111 90.0198C201.742 89.7492 200.953 89.2891 200.744 89.6139C200.482 90.0198 201.129 91.4988 199.988 91.8178C199.074 92.073 198.521 91.6784 198.359 91.4491M201.151 99.5897C201.686 102.559 204.787 105.738 206.27 106.956C207.434 107.826 210.493 109.171 213.425 107.594C216.357 106.016 215.81 101.948 215.17 100.112L210.807 87.2069L200.482 91.9918L205.281 101.968" stroke="black"/>
<path d="M301.673 41.5032H285.587C285.211 38.1134 286.426 33.8255 294.354 33.0432C300.695 32.4174 302.859 37.2442 303.149 39.7359C309.398 38.4901 309.282 44.1397 309.109 47.008C308.97 49.3026 305.078 52.928 303.149 54.4539C302.715 55.0043 302.761 51.4755 302.715 51.0351C302.657 50.4846 304.624 50.4267 305.203 49.7314C305.782 49.036 305.116 47.7033 304.624 47.008C304.231 46.4517 302.493 46.7762 301.673 47.008V41.5032Z" fill="#373737"/>
<path d="M281.486 98.4801L283.576 87.3463M300.409 83.403C295.766 85.7226 285.666 89.4338 282.415 85.7226C279.164 82.0113 280.442 76.9083 281.486 74.8207L287.523 62.1791C288.297 60.942 290.309 58.3982 292.167 58.1199C294.024 57.8415 295.727 58.0039 296.346 58.1199C296.346 58.6998 296.973 59.8595 299.481 59.8595C301.988 59.8595 302.847 58.0039 302.963 57.0761C302.963 54.9498 302.088 50.6103 303.021 50.6103C305.953 50.6103 305.401 48.2618 304.821 47.218C304.356 46.3829 302.692 46.87 301.919 47.218M303.544 57.0761C307.259 56.8054 315.223 57.4472 317.359 62.1791C319.495 66.911 321.809 74.2794 322.699 77.3722C322.931 79.3051 323.117 83.3566 322.002 84.0989C320.609 85.0267 317.243 87.4622 306.794 84.7947C298.436 82.6608 291.857 81.8953 289.613 81.7793L291.911 70.2975M290.681 76.4443L285.317 73.6609C286.13 72.5784 287.941 70.3903 288.684 70.2975C289.427 70.2047 291.145 70.2589 291.911 70.2975M291.911 70.2975L292.167 69.0218L304.124 72.7331M304.124 72.7331L310.509 70.9934L310.85 74.8207M304.124 72.7331L310.85 74.8207M310.85 74.8207L316.082 76.4443C316.082 71.5733 312.13 71.3413 310.85 71.5733M296.346 55.9163C294.373 56.3802 289.845 56.7049 287.523 54.2926C286.594 51.8803 286.13 45.5556 286.014 42.6948M280.093 166.211L278.468 172.126L269.064 174.098C267.362 174.252 263.933 175.141 263.84 177.461C263.747 179.781 263.802 179.587 263.84 179.201H290.774L295.417 168.531" stroke="black"/>
<path d="M296.289 55.7781L296.5 58.0993" stroke="black" stroke-linecap="round"/>
<path d="M173.683 99.0376L171.276 107.761M170.058 113.848L169.043 119.412M202.942 103.965V107.761M204.072 113.848V117.471M191.545 169.958L189.516 178.943H223.414C223.556 178.813 223.708 178.656 223.853 178.479M205 170.335L205.435 172.277C206.12 172.363 206.904 172.465 207.755 172.579M207.755 170.335V172.579M207.755 172.579C213.288 173.322 221.625 174.583 223.414 175.407C225.137 176.2 224.583 177.587 223.853 178.479M221.558 169.204L222.689 172.579C227.802 173.058 238.383 174.572 239.798 176.798C241.213 179.024 240.388 179.155 239.798 178.943L223.853 178.479M191.835 136.077H173.683C172.639 136.068 170.586 136.848 170.725 140.048C170.899 144.048 171.653 145.41 175.452 145.323C178.491 145.253 190.289 145.294 195.808 145.323L196.649 136.077H191.835Z" stroke="black"/>
<path d="M186.527 169.434L211.16 170.363C210.599 157.142 209.479 129.587 209.479 125.13C209.479 120.674 203.432 119.443 200.408 119.385C191.531 119.318 173.44 119.223 172.095 119.385C170.414 119.588 168.212 119.559 168.212 125.13C167.91 132.999 171.796 136.068 173.776 136.62H193.018L186.527 169.434Z" fill="#373737"/>
<path d="M177.805 72.1627C179.1 75.4572 183.971 74.3088 186.245 73.3227L186.071 70.4807C185.262 70.4614 183.476 70.3937 182.805 70.2777C181.967 70.1327 181.071 68.5957 181.765 66.6817C182.32 65.1505 184.366 65.2703 185.32 65.5217V58.2136H200.495C201.94 57.2953 204.079 54.6582 201.073 51.4565C198.067 48.2549 195.253 50.6445 194.223 52.2396C193.5 50.7509 190.708 48.1621 185.32 49.7165C179.932 51.271 180.03 55.4103 180.753 57.2856C179.462 57.7399 176.834 59.1996 176.649 61.4036C176.464 63.6077 178.479 65.8407 179.51 66.6817C178.402 67.136 176.51 68.8683 177.805 72.1627Z" fill="#373737"/>
<path d="M213.952 122.275C211.039 120.975 206.572 122.816 204.703 123.9L207.565 169.941L228.549 169.245C226.651 161.344 222.49 143.732 221.034 136.491C219.213 127.439 217.594 123.9 213.952 122.275Z" fill="#373737"/>
<path d="M204.281 119.929C205.687 120.23 209.763 121.187 209.763 125.986C209.763 130.785 210.61 157.57 211.034 170.363" stroke="black"/>
<rect x="237.703" y="51.2136" width="26.2218" height="28.9651" stroke="black"/>
<path d="M242.906 48.3923V53.5036M250.49 48.3923V53.5036M258.743 48.3923V52.9293M242.906 57.4663H264.003M237.414 57.4663H239.681" stroke="black"/>
<rect x="240.789" y="62.9529" width="5.06452" height="5.27554" fill="#CECECE"/>
<rect x="240.789" y="69.9165" width="5.06452" height="5.27554" fill="#CECECE"/>
<rect x="248.176" y="62.9529" width="5.06452" height="5.27554" fill="#CECECE"/>
<rect x="248.176" y="69.9165" width="5.06452" height="5.27554" fill="#CECECE"/>
<rect x="255.348" y="62.9529" width="5.27554" height="5.27554" fill="#CECECE"/>
<rect x="255.348" y="69.9165" width="5.27554" height="5.27554" fill="#CECECE"/>
<path d="M240.789 63.1638L246.065 68.2283" stroke="black" stroke-linecap="round"/>
<path d="M245.852 62.9529L240.787 68.4394" stroke="black" stroke-linecap="round"/>
<path d="M317.18 85.9541L320.345 98.4044" stroke="black" stroke-linecap="round"/>
<circle cx="288.903" cy="45.8602" r="0.844087" fill="black"/>
<circle cx="197.95" cy="62.7418" r="0.844087" fill="black"/>
<circle cx="194.364" cy="62.7418" r="0.844087" fill="black"/>
<circle cx="293.332" cy="45.8602" r="0.844087" fill="black"/>
<ellipse cx="221.584" cy="37.2082" rx="4.8535" ry="5.27554" fill="#CECECE"/>
<path d="M176.575 145.634L167.641 179.047M184.494 145.634V179.859M160.883 114.019L151.949 179.859M260.519 113.787L269.452 174.696M299.909 179.511L301.388 168.692M321.895 113.787V179.511M333.817 112.191L341.05 154.799M345.245 179.511L341.05 154.799M304.927 154.799H341.05M210.483 56.1838C212.736 56.5995 217.63 57.1815 219.185 56.1838C220.74 55.186 221.361 51.8815 221.477 50.3539M220.432 42.7547H219.301V48.6426H224.058V42.7547H222.666M220.432 42.7547V40.0573H219.011V37.7659H224.058V40.0573H222.666V42.7547M220.432 42.7547H222.666M211.324 36.6638H214.834M214.834 29.4127L216.836 32.0811M221.883 26.6572V30.1958M226.495 31.646L228.409 29.7607M228.409 36.6638H231.658" stroke="black"/>
<rect x="124.805" y="108.823" width="216.985" height="5.96371" rx="2.98186" fill="white" stroke="black"/>
<path d="M272.441 165.187L301.368 168.675C302.293 163.559 305.718 148.955 312.013 131.468C318.307 113.981 320.189 101.858 320.343 97.9824H301.368L272.441 165.187Z" fill="#373737"/>
<path d="M269.004 124.041L282.013 143.352L291.074 124.041L288.054 120.784L320.346 97.9824H283.407C280.31 100.774 273.092 107.382 269.004 111.477C264.915 115.572 267.3 121.559 269.004 124.041Z" fill="#373737"/>
<path d="M280.461 147.995L290.572 123.43M296.499 111.277L293.186 117.396M288.131 120.824L290.572 123.43M290.572 123.43L291.879 120.413L293.186 117.396M285.226 122.794L293.186 117.396" stroke="black"/>
<path d="M34.5329 39.7371H49.2669C50.1772 36.0384 48.9824 34.5589 48.1149 33.3924C47.3702 32.3911 46.8064 31.7991 43.4785 30.7606C40.8161 29.9298 38.3396 31.1068 37.4341 31.7991C37.4815 31.543 36.9079 31.065 34.2342 31.2016C31.5604 31.3382 30.598 33.2312 30.4511 34.1606C29.8585 33.8808 28.3349 33.4351 26.9809 33.8903C25.2885 34.4593 24.3925 35.3413 24.5632 37.5037C24.7338 39.666 24.9898 39.9647 23.2121 41.7572C21.4343 43.5496 22.7712 45.7973 23.2121 47.4475C23.653 49.0977 23.3828 50.7906 21.4201 51.9714C19.85 52.9159 19.7135 53.9867 19.8415 54.404L34.5329 59.0843C33.964 57.0244 34.5423 55.2196 34.9026 54.5747C35.4573 53.484 36.2338 50.8361 34.9026 48.9697C33.5714 47.1033 34.5755 45.5839 35.244 45.0576C35.6137 44.8916 36.3533 44.1528 36.3533 42.5254C36.3533 40.8979 35.1397 39.9884 34.5329 39.7371Z" fill="#373737"/>
<path d="M52.4099 75.7854V75.758C52.4152 75.757 52.4204 75.756 52.4256 75.7551C52.4202 75.7653 52.415 75.7754 52.4099 75.7854Z" fill="#373737"/>
<path d="M41.2172 120.199C41.604 117.217 44.7727 106.608 46.3087 101.676L55.169 103.668C55.0078 104.304 54.2872 107.651 52.6943 115.959C50.7033 126.344 50.177 128.45 49.2242 129.26C48.4619 129.909 47.6645 128.023 47.3611 126.998L43.322 142.633L66.7457 147.996L68.0968 131.081C68.6989 126.501 69.8376 115.794 69.5759 109.615C69.2488 101.89 66.0631 99.8271 63.2044 98.3192C60.3695 96.8237 56.7931 95.8879 50.1588 94.1519L49.9922 94.1083C44.5992 92.6971 36.1304 93.5203 32.5702 94.1083C26.8576 92.8659 14.4911 90.2304 10.7251 89.6272C6.01759 88.8732 1.05412 89.8548 0.0727993 95.8723C-0.712258 100.686 5.04577 104.185 8.02292 105.333L41.2172 120.199Z" fill="#373737"/>
<path d="M108.996 31.6884V25.6841H118.118V31.6884H108.996Z" fill="#CECECE"/>
<path d="M104.065 31.6884V25.6841H95.5678V31.6884H104.065Z" fill="#CECECE"/>
<path d="M81.6423 25.6841H90.4097V31.6884H81.6423V25.6841Z" fill="#CECECE"/>
<path d="M67.8164 25.6841H76.8679V31.6884H67.8164V25.6841Z" fill="#CECECE"/>
<path d="M76.8679 36.78H67.8164V42.114C69.46 41.496 72.9432 40.4739 73.7276 41.3296C74.512 42.1853 73.0597 42.9507 72.2356 43.2265H76.8679V36.78Z" fill="#CECECE"/>
<path d="M81.6423 43.3548V36.78H90.4097V43.4547L81.6423 43.3548Z" fill="#CECECE"/>
<path d="M108.996 43.2265V36.78H118.118V43.2265H108.996Z" fill="#CECECE"/>
<path d="M104.577 36.78H95.0846V43.4547L104.577 43.3548V36.78Z" fill="#CECECE"/>
<path d="M108.996 54.0657V47.9187H118.118V54.0657C115.078 54.1132 108.996 54.1798 108.996 54.0657Z" fill="#CECECE"/>
<path d="M104.577 54.0657V47.9187H95.0846V54.0657H104.577Z" fill="#CECECE"/>
<path d="M81.6423 47.9187H90.4097V54.0657H81.6423V47.9187Z" fill="#CECECE"/>
<path d="M48.4622 41.3441C48.1115 42.4949 47.43 45.2796 47.5096 47.2119C47.6092 49.6272 48.1352 52.8524 43.7278 53.6054C42.6284 53.6054 41.8096 53.5289 41.2113 53.4204M39.7896 52.8382C39.868 52.995 40.2621 53.2481 41.2113 53.4204M41.2113 53.4204V54.7419M36.1499 55.3103C37.4807 56.106 40.0787 56.1439 41.2113 56.0633V54.7419M25.3873 55.3103C25.1598 55.3103 22.0178 56.0633 20.1269 62.3148C18.236 68.5662 15.4209 70.8679 16.4588 76.7783C17.4333 78.4014 18.798 79.5906 20.1269 80.4232M40.9128 75.6843L26.2546 73.0133M40.9128 75.6843C42.0644 74.775 44.6292 72.6211 45.6756 71.2799C46.3147 70.4608 46.6924 70.415 46.8387 70.7116M40.9128 75.6843C40.4383 77.9344 39.3271 81.2889 38.3844 83.7402M47.7798 79.2931C49.0476 79.2833 50.0806 79.2018 50.9218 79.0704M50.9218 79.0704C54.9482 78.4415 54.5801 76.6703 54.533 76.1532C54.4762 75.528 53.5947 75.6843 53.2677 75.6843C52.9407 75.6843 50.9218 76.4658 48.3485 76.7783C45.7751 77.0909 45.3628 76.7783 45.2064 75.6843C45.05 74.5903 45.9457 73.3827 46.5713 72.2745C46.8912 71.7077 46.9917 71.0221 46.8387 70.7116M50.9218 79.0704C51.9502 78.8209 54.1122 78.4716 54.533 79.0704C55.0056 79.7427 54.9963 81.5765 52.0734 82.0971M47.0973 81.9642C47.0452 82.1205 47.7457 82.3904 50.9645 82.2199C51.3739 82.1982 51.7423 82.1561 52.0734 82.0971M52.0734 82.0971C52.7511 81.9818 54.0553 82.0864 53.8506 83.4276C53.6672 84.6289 51.7537 85.0278 48.9314 84.7496M45.2064 84.1096C46.5564 84.4237 47.815 84.6396 48.9314 84.7496M48.9314 84.7496C49.1873 84.7732 51.917 85.5303 50.9218 87.15C50.1257 88.4458 45.5571 87.2353 43.3724 86.4681C43.1156 86.3591 42.815 86.2282 42.4909 86.083M38.3844 83.7402C37.6603 85.6228 37.0356 86.9727 36.875 86.8801C36.5793 86.7096 27.9939 83.5318 23.7381 81.9642C22.919 81.7931 21.5433 81.3107 20.1269 80.4232M38.3844 83.7402C38.5855 84.2341 40.8427 85.3445 42.4909 86.083M46.8387 70.7116L47.0973 69.7793M42.4909 86.083L41.4957 89.2386H49.4716M46.0453 62.5989L47.0973 69.7793M47.0973 69.7793L48.3485 65.27H49.7702M41.2113 54.7419C42.7041 54.4151 46.1078 54.8074 47.7798 58.9902C49.4517 63.1729 49.8034 64.9196 49.7702 65.27M49.7702 65.27H51.4905M51.4905 65.27L54.533 53.9038L56.7367 54.3324M51.4905 65.27H62.4948M62.4948 65.27H65.6368L64.5412 69.2766M62.4948 65.27L65.6368 56.0633L63.9876 55.7426M56.7367 54.3324C56.7367 53.137 56.7367 49.5041 56.7367 47.837C56.5898 47.3445 56.6543 46.1832 58.0874 45.4785C59.8219 44.072 60.5897 43.8162 61.5422 44.072C62.3043 44.2765 61.0636 46.2505 60.348 47.2119C60.6603 47.4868 61.1355 48.0193 61.3995 48.6185M56.7367 54.3324L63.9876 55.7426M61.5422 49.8261C61.6547 49.4306 61.5722 49.0103 61.3995 48.6185M61.3995 48.6185C61.5561 48.358 61.9318 47.837 62.182 47.837C62.4948 47.837 63.1488 48.6611 63.1488 48.9452C63.1818 48.4882 63.3701 47.7285 63.8597 47.8662M63.9876 55.7426C64.3431 55.8117 66.0065 52.6961 66.1629 52.3125C66.3893 52.0862 66.6714 50.5697 66.4478 49.4851M66.5183 51.5311C67.0538 52.4072 68.2074 53.6764 68.5372 51.7442C68.867 49.8119 68.5704 48.4385 68.3808 47.9933M68.3808 47.9933C68.3808 49.4368 67.0921 49.5893 66.4478 49.4851M68.3808 47.9933C68.54 46.5271 68.3145 44.8435 68.1818 44.1849M66.4478 49.4851C66.4187 49.3439 66.381 49.2101 66.3335 49.0873C66.2593 48.8954 66.1663 48.7719 66.0634 48.6998M61.2579 45.649C61.4772 45.6025 61.7103 45.553 61.9545 45.5012M56.7367 46.5867C55.3861 47.0414 55.0164 46.7856 54.6894 46.2884C54.3255 45.3791 58.2154 44.2993 60.2058 43.873L71.1816 41.202C72.011 40.9983 73.7095 40.8184 73.8687 41.7277C74.0678 42.8643 72.0631 43.4042 71.9494 43.4042C71.9059 43.4042 70.2665 43.7462 68.1818 44.1849M61.9545 45.5012C61.8266 45.7627 61.4711 47.0414 61.8266 47.9933M61.9545 45.5012C63.2293 45.2309 64.8091 44.8964 66.3335 44.5746M64.1014 45.166C63.9781 45.4128 63.7573 46.2983 63.8597 47.8662M63.8597 47.8662C63.9333 47.887 64.0137 47.9279 64.1014 47.9933C64.7724 48.4934 64.9781 48.931 64.9971 49.0873C65.2358 48.8121 65.709 48.4515 66.0634 48.6998M66.3335 44.5746C66.1534 45.2664 65.8473 47.0599 66.0634 48.6998M66.3335 44.5746C66.9678 44.4407 67.5926 44.3089 68.1818 44.1849M58.7414 44.072C58.5999 43.4224 58.72 42.1444 60.2058 41.8931M63.3194 42.9779C63.1488 42.5612 62.3555 41.7532 60.547 41.8555C60.426 41.8624 60.3124 41.8751 60.2058 41.8931M60.2058 41.8931V15.6137H125.677V69.2766M60.2326 85.0331L59.0826 89.2386H49.4716M60.2326 85.0331L60.1205 93.6288H125.677V69.2766M60.2326 85.0331L64.5412 69.2766M64.5412 69.2766H108.104M111.516 69.2766H125.677M67.7837 12.3601V19.3361M80.2239 12.3601V19.3361M92.7068 12.3601V19.3361M105.46 12.3601V19.3361M117.928 12.3601V19.3361M26.6527 31.3417C27.6053 31.0434 29.6014 31.1087 29.9654 33.7571M20.1269 80.4232L18.4635 91.0572M18.4635 91.0572L10.5159 89.5796M18.4635 91.0572L47.0973 97.1808M49.4716 94.9359C49.4716 93.6288 50.0119 92.3942 49.4716 89.2386M46.3296 101.699L55.116 103.759L50.4527 126.648C49.8034 128.836 48.2234 131.743 47.0973 125.866C45.9713 119.99 46.1163 115.31 46.3296 113.704C46.14 113.363 45.3344 112.613 43.6283 112.34M12.9613 107.538H3.89062V165.961H82.9252M158.988 165.961H82.9252M82.9252 165.961V107.652H69.9305M48.1068 144.067L45.9599 152.62C53.8506 155.442 69.8651 160.741 70.7978 159.354C71.9636 157.621 64.3146 151.838 58.8551 149.522V146.539M104.351 37.0249L95.138 43.4042M95.138 37.0249L104.351 43.4042" stroke="black"/>
<circle cx="41.9191" cy="44.248" r="0.598833" fill="#161616"/>
<circle cx="45.3605" cy="44.248" r="0.598833" fill="#161616"/>
<path d="M143.992 179.318H355.299" stroke="black"/>
<path d="M348.613 154.354L440.001 154.354" stroke="black"/>
</svg>
