<svg width="455" height="291" viewBox="0 0 455 291" fill="none" xmlns="http://www.w3.org/2000/svg">
<rect x="166" y="133" width="158" height="158" rx="10" fill="#24E18D"/>
<circle cx="223.604" cy="180.729" r="8.22917" fill="white"/>
<circle cx="269.686" cy="180.729" r="8.22917" fill="white"/>
<path d="M226.895 203.771C233.478 210.354 251.582 215.292 268.04 203.771" stroke="white" stroke-width="7" stroke-linecap="round"/>
<circle cx="378" cy="172" r="6" fill="#24E18D"/>
<path d="M88.7399 21.0376C85.5702 21.0585 83.0177 23.645 83.0386 26.8146C83.0595 29.9842 85.6459 32.5368 88.8156 32.5159C91.9852 32.495 94.5377 29.9085 94.5168 26.7389C94.4959 23.5693 91.9095 21.0167 88.7399 21.0376Z" fill="#24E18D"/>
<path d="M420.826 69.2477C424.125 67.2655 428.333 69.5981 428.4 73.4466L429.019 108.948C429.086 112.797 424.962 115.274 421.595 113.408L390.541 96.1931C387.175 94.3269 387.091 89.5164 390.39 87.5341L420.826 69.2477Z" fill="#E9BAFF"/>
<circle cx="30" cy="182" r="30" fill="#39FFF3"/>
<circle cx="275.543" cy="18.7721" r="16.6003" transform="rotate(81.9065 275.543 18.7721)" fill="#5539FF"/>
<path d="M33.3254 203.183C33.3662 200.874 35.8912 199.475 37.8705 200.665L53.4312 210.019C55.4105 211.209 55.3596 214.095 53.3395 215.214L37.4587 224.013C35.4386 225.132 32.9645 223.645 33.0052 221.336L33.3254 203.183Z" fill="#FF64EF"/>
<path d="M261.894 22.5308C264.185 22.246 265.926 24.549 265.027 26.6761L262.922 31.654C262.023 33.7812 259.158 34.1371 257.766 32.2947L254.507 27.9832C253.114 26.1409 254.239 23.482 256.53 23.1972L261.894 22.5308Z" fill="#FF64EF"/>
<path d="M101.842 145.125C104.564 147.846 103.318 152.493 99.6006 153.49L48.3882 167.212C44.6704 168.208 41.2683 164.806 42.2645 161.088L55.9868 109.876C56.983 106.158 61.6303 104.913 64.352 107.634L101.842 145.125Z" fill="#FFBD5A"/>
<path d="M303.665 52.1644C301.354 55.2421 296.578 54.6636 295.068 51.123L286.595 31.2526C285.086 27.712 287.975 23.8649 291.796 24.3277L313.241 26.9253C317.062 27.3881 318.949 31.8138 316.637 34.8916L303.665 52.1644Z" fill="#5AFF7F"/>
</svg>
