<svg width="441" height="181" viewBox="0 0 441 181" fill="none" xmlns="http://www.w3.org/2000/svg">
<path d="M5.82 150C5.84 150.34 5.86 150.76 5.88 151.26C5.92 151.74 5.94 152.22 5.94 152.7C5.94 153.18 5.92 153.63 5.88 154.05C5.86 154.47 5.8 154.78 5.7 154.98C6.16 155.02 6.45 155.24 6.57 155.64C6.69 156.02 6.65 156.4 6.45 156.78C6.11 157.48 5.76 158.17 5.4 158.85C5.04 159.53 4.78 160.04 4.62 160.38C5.2 160.28 5.65 160.33 5.97 160.53C6.29 160.71 6.5 160.98 6.6 161.34C6.82 162.16 7 163.01 7.14 163.89C7.3 164.77 7.41 165.53 7.47 166.17C7.49 166.43 7.43 166.67 7.29 166.89C7.17 167.09 6.99 167.19 6.75 167.19C6.57 167.19 6.35 167.1 6.09 166.92C5.85 166.72 5.72 166.5 5.7 166.26C5.64 165.88 5.58 165.47 5.52 165.03C5.46 164.57 5.39 164.12 5.31 163.68C5.23 163.22 5.15 162.79 5.07 162.39C4.99 161.97 4.9 161.6 4.8 161.28C4.7 161.06 4.59 160.95 4.47 160.95C4.37 160.95 4.25 161.07 4.11 161.31L3.33 162.84C3.23 163.06 3.07 163.2 2.85 163.26C2.63 163.32 2.47 163.33 2.37 163.29C2.23 163.25 2.12 163.17 2.04 163.05C1.98 162.93 1.94 162.81 1.92 162.69C1.9 162.55 1.89 162.42 1.89 162.3C1.91 162.18 1.93 162.09 1.95 162.03C2.29 161.13 2.68 160.27 3.12 159.45C3.56 158.63 4 157.74 4.44 156.78C4.04 156.78 3.58 156.85 3.06 156.99C2.54 157.13 2.13 157.3 1.83 157.5C1.71 157.56 1.56 157.61 1.38 157.65C1.22 157.67 1.05 157.66 0.87 157.62C0.71 157.56 0.57 157.47 0.45 157.35C0.35 157.21 0.3 157.02 0.3 156.78C0.3 156.62 0.37 156.47 0.51 156.33C0.67 156.17 0.83 156.04 0.99 155.94C1.13 155.84 1.48 155.68 2.04 155.46C2.62 155.24 3.39 155.08 4.35 154.98C4.33 154.6 4.3 154.19 4.26 153.75C4.24 153.29 4.22 152.83 4.2 152.37C4.2 151.91 4.21 151.47 4.23 151.05C4.27 150.61 4.35 150.21 4.47 149.85C4.57 149.57 4.68 149.38 4.8 149.28C4.92 149.18 5.06 149.14 5.22 149.16C5.4 149.18 5.54 149.25 5.64 149.37C5.74 149.49 5.8 149.7 5.82 150ZM15.54 166.38C15.52 167.18 15.34 167.89 15 168.51C14.66 169.13 14.2 169.67 13.62 170.13C13.14 170.51 12.66 170.75 12.18 170.85C11.7 170.95 11.26 170.91 10.86 170.73C10.5 170.57 10.22 170.3 10.02 169.92C9.84 169.52 9.8 169.03 9.9 168.45C10.02 167.71 10.25 167 10.59 166.32C10.95 165.62 11.39 165.02 11.91 164.52C12.13 164.3 12.35 164.14 12.57 164.04C12.81 163.92 13.06 163.94 13.32 164.1C13.5 164.2 13.59 164.32 13.59 164.46C13.61 164.58 13.57 164.72 13.47 164.88C13.71 164.84 13.95 164.84 14.19 164.88C14.45 164.92 14.68 165.01 14.88 165.15C15.08 165.27 15.24 165.43 15.36 165.63C15.48 165.83 15.54 166.08 15.54 166.38ZM14.46 154.62C14.5 154.32 14.59 154.06 14.73 153.84C14.87 153.6 15.08 153.48 15.36 153.48C15.54 153.48 15.68 153.53 15.78 153.63C15.88 153.71 15.96 153.82 16.02 153.96C16.08 154.08 16.12 154.21 16.14 154.35C16.18 154.49 16.2 154.62 16.2 154.74C16.22 155.92 16.18 157.1 16.08 158.28C15.98 159.44 15.88 160.5 15.78 161.46C15.76 161.64 15.71 161.82 15.63 162C15.55 162.18 15.45 162.34 15.33 162.48C15.21 162.62 15.09 162.74 14.97 162.84C14.85 162.92 14.75 162.95 14.67 162.93C14.49 162.89 14.34 162.74 14.22 162.48C14.12 162.22 14.08 161.92 14.1 161.58C14.16 160.96 14.21 160.35 14.25 159.75C14.31 159.13 14.36 158.51 14.4 157.89C14 158.05 13.57 158.23 13.11 158.43C12.65 158.63 12.18 158.85 11.7 159.09C11.22 159.31 10.75 159.54 10.29 159.78C9.83 160.02 9.41 160.26 9.03 160.5C8.81 160.66 8.55 160.72 8.25 160.68C7.97 160.64 7.8 160.5 7.74 160.26C7.68 160.1 7.68 159.9 7.74 159.66C7.8 159.42 8 159.19 8.34 158.97C9.14 158.45 10.09 157.96 11.19 157.5C12.31 157.04 13.39 156.62 14.43 156.24C14.45 155.96 14.46 155.69 14.46 155.43C14.46 155.17 14.46 154.9 14.46 154.62ZM11.67 169.08C12.21 168.8 12.69 168.44 13.11 168C13.53 167.56 13.82 167.13 13.98 166.71C14.1 166.33 14.03 166.06 13.77 165.9C13.53 165.74 13.28 165.61 13.02 165.51C12.68 165.99 12.38 166.54 12.12 167.16C11.86 167.76 11.71 168.4 11.67 169.08ZM20.8453 155.04C20.8253 155.42 20.8053 155.85 20.7853 156.33C20.7653 156.79 20.7453 157.27 20.7253 157.77C20.7253 158.25 20.7253 158.75 20.7253 159.27C20.7253 159.77 20.7453 160.24 20.7853 160.68C20.8453 161.38 20.9553 162 21.1153 162.54C21.2953 163.06 21.5553 163.34 21.8953 163.38C22.2353 163.42 22.5553 163.35 22.8553 163.17C23.1753 162.99 23.4753 162.79 23.7553 162.57C23.8753 162.47 24.0053 162.37 24.1453 162.27C24.2853 162.17 24.4253 162.11 24.5653 162.09C24.7253 162.05 24.8753 162.07 25.0153 162.15C25.1553 162.21 25.2853 162.35 25.4053 162.57C25.5053 162.79 25.5053 163.01 25.4053 163.23C25.3253 163.43 25.2253 163.58 25.1053 163.68C24.8453 163.88 24.5653 164.09 24.2653 164.31C23.9653 164.53 23.6553 164.73 23.3353 164.91C23.0153 165.07 22.6853 165.19 22.3453 165.27C22.0053 165.35 21.6753 165.35 21.3553 165.27C20.7553 165.11 20.2853 164.77 19.9453 164.25C19.6053 163.73 19.3753 163.2 19.2553 162.66C19.0153 161.62 18.8953 160.42 18.8953 159.06C18.9153 157.68 18.9853 156.3 19.1053 154.92C19.1053 154.7 19.2253 154.55 19.4653 154.47C19.7053 154.39 19.9353 154.37 20.1553 154.41C20.3353 154.45 20.4953 154.53 20.6353 154.65C20.7753 154.77 20.8453 154.9 20.8453 155.04ZM30.8053 155.37C31.0253 155.59 31.0553 155.8 30.8953 156C30.7553 156.18 30.5753 156.27 30.3553 156.27C29.3753 156.17 28.5053 156.15 27.7453 156.21C27.0053 156.27 26.1953 156.38 25.3153 156.54C25.0953 156.58 24.8353 156.57 24.5353 156.51C24.2353 156.43 24.0253 156.34 23.9053 156.24C23.6853 156.06 23.5753 155.88 23.5753 155.7C23.5953 155.52 23.6753 155.36 23.8153 155.22C23.9553 155.08 24.1253 154.96 24.3253 154.86C24.5453 154.74 24.7553 154.66 24.9553 154.62C25.3953 154.52 25.8953 154.45 26.4553 154.41C27.0153 154.37 27.5753 154.38 28.1353 154.44C28.6953 154.48 29.2053 154.58 29.6653 154.74C30.1453 154.9 30.5253 155.11 30.8053 155.37ZM33.8353 156.27C33.7953 156.87 33.7453 157.51 33.6853 158.19C33.6453 158.85 33.5953 159.49 33.5353 160.11C33.4753 160.73 33.4053 161.3 33.3253 161.82C33.2453 162.34 33.1653 162.74 33.0853 163.02C32.8653 163.24 32.5953 163.33 32.2753 163.29C32.1353 163.27 32.0053 163.22 31.8853 163.14C31.7653 163.04 31.7053 162.9 31.7053 162.72C31.6853 162.26 31.6753 161.68 31.6753 160.98C31.6753 160.28 31.6953 159.58 31.7353 158.88C30.8953 159.28 30.0153 159.69 29.0953 160.11C28.1953 160.53 27.2953 160.83 26.3953 161.01C26.2753 161.03 26.1253 161.05 25.9453 161.07C25.7653 161.09 25.5753 161.09 25.3753 161.07C25.1953 161.05 25.0253 161.01 24.8653 160.95C24.7253 160.87 24.6253 160.76 24.5653 160.62C24.5253 160.48 24.5253 160.35 24.5653 160.23C24.6053 160.09 24.7353 159.97 24.9553 159.87C26.0953 159.41 27.2353 158.93 28.3753 158.43C29.5353 157.93 30.6853 157.34 31.8253 156.66C31.8453 156.46 31.8553 156.26 31.8553 156.06C31.8753 155.84 31.9053 155.65 31.9453 155.49C32.0053 155.31 32.0853 155.17 32.1853 155.07C32.2853 154.97 32.4253 154.92 32.6053 154.92C33.0053 154.92 33.3153 155.03 33.5353 155.25C33.7753 155.47 33.8753 155.81 33.8353 156.27ZM30.1153 163.95C29.9953 164.43 29.8953 164.96 29.8153 165.54C29.7353 166.1 29.7053 166.61 29.7253 167.07C30.7453 167.03 31.7453 166.83 32.7253 166.47C33.7053 166.11 34.5353 165.76 35.2153 165.42C35.3953 165.34 35.5453 165.31 35.6653 165.33C35.7853 165.33 35.8953 165.41 35.9953 165.57C36.0553 165.67 36.0753 165.84 36.0553 166.08C36.0353 166.3 35.9553 166.47 35.8153 166.59C35.5353 166.95 35.1453 167.27 34.6453 167.55C34.1653 167.81 33.6653 168.04 33.1453 168.24C32.6253 168.42 32.1253 168.56 31.6453 168.66C31.1653 168.76 30.7953 168.81 30.5353 168.81C30.3153 168.81 30.0753 168.81 29.8153 168.81C29.5753 168.79 29.3353 168.75 29.0953 168.69C28.8753 168.63 28.6653 168.55 28.4653 168.45C28.2653 168.33 28.1053 168.17 27.9853 167.97C27.8653 167.63 27.8153 167.25 27.8353 166.83C27.8553 166.41 27.8953 165.99 27.9553 165.57C28.0353 165.15 28.1253 164.76 28.2253 164.4C28.3253 164.04 28.4053 163.74 28.4653 163.5C28.5053 163.34 28.6553 163.21 28.9153 163.11C29.1753 163.01 29.3953 162.99 29.5753 163.05C29.7953 163.13 29.9453 163.26 30.0253 163.44C30.1253 163.6 30.1553 163.77 30.1153 163.95ZM49.2436 155.31C47.1836 155.21 45.2036 155.37 43.3036 155.79C41.4036 156.21 39.5236 156.78 37.6636 157.5C37.1836 157.68 36.8136 157.66 36.5536 157.44C36.3136 157.22 36.1936 157 36.1936 156.78C36.3336 156.4 36.5836 156.09 36.9436 155.85C41.0436 153.85 45.1436 153.11 49.2436 153.63C49.4436 153.69 49.6036 153.84 49.7236 154.08C49.8636 154.3 49.9136 154.49 49.8736 154.65C49.8336 154.85 49.7736 155.02 49.6936 155.16C49.6136 155.28 49.4636 155.33 49.2436 155.31ZM44.9836 165.78C44.9836 166 44.9036 166.2 44.7436 166.38C44.6036 166.54 44.4236 166.64 44.2036 166.68C43.8036 166.74 43.5436 166.67 43.4236 166.47C43.3036 166.27 43.2336 166.04 43.2136 165.78C43.1936 164.38 43.1636 162.99 43.1236 161.61C43.1036 160.21 43.0436 158.81 42.9436 157.41C42.9436 157.33 42.9336 157.24 42.9136 157.14C42.8936 157.02 42.8936 156.91 42.9136 156.81C42.9336 156.69 42.9736 156.59 43.0336 156.51C43.1136 156.43 43.2336 156.37 43.3936 156.33C43.8536 156.25 44.1836 156.33 44.3836 156.57C44.5836 156.79 44.6836 157.01 44.6836 157.23C44.8436 158.67 44.9436 160.1 44.9836 161.52C45.0236 162.94 45.0236 164.36 44.9836 165.78ZM53.0285 167.28C52.9285 167.62 52.7985 167.93 52.6385 168.21C52.4785 168.47 52.3085 168.62 52.1285 168.66C51.7485 168.76 51.4585 168.7 51.2585 168.48C51.0585 168.26 50.9785 167.98 51.0185 167.64C51.1785 166.44 51.4385 165.18 51.7985 163.86C52.1585 162.52 52.5785 161.19 53.0585 159.87C53.5385 158.53 54.0585 157.24 54.6185 156C55.1985 154.74 55.7885 153.6 56.3885 152.58C56.4885 152.42 56.5985 152.33 56.7185 152.31C56.8585 152.27 56.9785 152.27 57.0785 152.31C57.1785 152.23 57.2985 152.16 57.4385 152.1C57.5785 152.04 57.7185 152.01 57.8585 152.01C57.9185 152.01 57.9785 152.02 58.0385 152.04C58.1185 152.06 58.1985 152.12 58.2785 152.22C58.3585 152.32 58.4485 152.47 58.5485 152.67C58.6685 152.85 58.8085 153.12 58.9685 153.48C59.2485 154.5 59.5685 155.55 59.9285 156.63C60.3085 157.71 60.6985 158.79 61.0985 159.87C61.1585 159.85 61.2085 159.84 61.2485 159.84C61.3085 159.82 61.3685 159.8 61.4285 159.78C61.6485 159.76 61.8985 159.77 62.1785 159.81C62.4585 159.85 62.6485 159.99 62.7485 160.23C62.8685 160.53 62.8485 160.79 62.6885 161.01C62.5285 161.23 62.2385 161.45 61.8185 161.67C62.0785 162.31 62.3385 162.94 62.5985 163.56C62.8585 164.16 63.1285 164.75 63.4085 165.33C63.4285 165.43 63.4585 165.59 63.4985 165.81C63.5385 166.01 63.5585 166.22 63.5585 166.44C63.5785 166.64 63.5685 166.83 63.5285 167.01C63.4885 167.19 63.4085 167.31 63.2885 167.37C63.1485 167.43 62.9985 167.42 62.8385 167.34C62.6985 167.26 62.5585 167.16 62.4185 167.04C62.2785 166.9 62.1485 166.76 62.0285 166.62C61.9285 166.46 61.8485 166.32 61.7885 166.2C61.4485 165.54 61.1185 164.88 60.7985 164.22C60.4985 163.54 60.2085 162.86 59.9285 162.18C59.0885 162.34 58.1685 162.48 57.1685 162.6C56.1885 162.72 55.2185 162.8 54.2585 162.84C54.0385 163.6 53.8185 164.35 53.5985 165.09C53.3985 165.81 53.2085 166.54 53.0285 167.28ZM57.2885 154.68C56.3685 156.74 55.5685 158.8 54.8885 160.86C56.2285 160.82 57.6585 160.65 59.1785 160.35C58.4585 158.53 57.8285 156.64 57.2885 154.68ZM68.3573 155.19C68.2573 155.89 68.1673 156.67 68.0873 157.53C68.0073 158.37 67.9273 159.23 67.8473 160.11C67.7673 160.97 67.6873 161.81 67.6073 162.63C67.5473 163.45 67.4973 164.17 67.4573 164.79C68.1373 164.67 68.8873 164.53 69.7073 164.37C70.5473 164.21 71.3973 164.05 72.2573 163.89C73.1173 163.71 73.9573 163.56 74.7773 163.44C75.6173 163.3 76.3773 163.2 77.0573 163.14C77.1173 163.14 77.1873 163.16 77.2673 163.2C77.4273 163.28 77.5073 163.41 77.5073 163.59C77.5073 163.85 77.4573 164.05 77.3573 164.19C77.2573 164.31 77.1373 164.41 76.9973 164.49C76.8573 164.55 76.7073 164.61 76.5473 164.67C76.4073 164.73 76.2773 164.82 76.1573 164.94C75.5373 165.1 74.8573 165.27 74.1173 165.45C73.3773 165.63 72.6173 165.81 71.8373 165.99C71.0573 166.17 70.2773 166.35 69.4973 166.53C68.7173 166.71 67.9873 166.89 67.3073 167.07C66.6873 167.23 66.2173 167.12 65.8973 166.74C65.5773 166.36 65.4473 165.74 65.5073 164.88C65.6073 163.26 65.7273 161.64 65.8673 160.02C66.0073 158.38 66.1773 156.75 66.3773 155.13C66.4173 154.79 66.5273 154.51 66.7073 154.29C66.9073 154.07 67.1473 153.94 67.4273 153.9C67.8873 153.84 68.1573 153.96 68.2373 154.26C68.3373 154.54 68.3773 154.85 68.3573 155.19ZM80.2816 154.5C80.3816 155.18 80.4916 155.89 80.6116 156.63C80.7316 157.35 80.8516 158.13 80.9716 158.97C81.8916 158.39 82.8516 157.81 83.8516 157.23C84.8716 156.63 85.8216 156.15 86.7016 155.79C86.7816 155.77 86.8816 155.77 87.0016 155.79C87.1416 155.79 87.2816 155.82 87.4216 155.88C87.5616 155.92 87.6816 155.98 87.7816 156.06C87.8816 156.14 87.9516 156.24 87.9916 156.36C88.0316 156.5 88.0016 156.69 87.9016 156.93C87.8016 157.15 87.6916 157.28 87.5716 157.32C87.3316 157.46 87.0116 157.65 86.6116 157.89C86.2316 158.11 85.8216 158.35 85.3816 158.61C84.9616 158.87 84.5416 159.13 84.1216 159.39C83.7216 159.65 83.3816 159.87 83.1016 160.05C84.2416 160.67 85.3516 161.2 86.4316 161.64C87.5316 162.08 88.6916 162.44 89.9116 162.72C90.0316 162.74 90.1516 162.82 90.2716 162.96C90.4116 163.08 90.5216 163.23 90.6016 163.41C90.6816 163.59 90.7216 163.77 90.7216 163.95C90.7416 164.13 90.7016 164.29 90.6016 164.43C90.4816 164.59 90.3116 164.69 90.0916 164.73C89.8916 164.75 89.6816 164.74 89.4616 164.7C87.9416 164.34 86.5516 163.9 85.2916 163.38C84.0316 162.84 82.7116 162.19 81.3316 161.43C81.4316 162.29 81.5216 163.18 81.6016 164.1C81.7016 165.02 81.7916 165.99 81.8716 167.01C81.8716 167.23 81.7816 167.36 81.6016 167.4C81.4216 167.42 81.2216 167.41 81.0016 167.37C80.7816 167.33 80.5816 167.26 80.4016 167.16C80.2216 167.06 80.1116 166.96 80.0716 166.86C79.9516 165.94 79.8216 164.97 79.6816 163.95C79.5616 162.93 79.4216 161.9 79.2616 160.86C79.1016 159.8 78.9316 158.76 78.7516 157.74C78.5716 156.7 78.3916 155.71 78.2116 154.77C78.1716 154.55 78.2216 154.3 78.3616 154.02C78.5016 153.72 78.7616 153.55 79.1416 153.51C79.2816 153.51 79.4116 153.55 79.5316 153.63C79.6716 153.69 79.7916 153.78 79.8916 153.9C80.0116 154 80.1016 154.11 80.1616 154.23C80.2216 154.33 80.2616 154.42 80.2816 154.5ZM103.932 164.34C103.772 164.34 103.632 164.28 103.512 164.16C103.392 164.04 103.292 163.89 103.212 163.71C103.132 163.53 103.062 163.33 103.002 163.11C102.962 162.89 102.932 162.67 102.912 162.45C102.812 161.75 102.752 160.97 102.732 160.11C102.712 159.25 102.722 158.42 102.762 157.62C101.822 157.92 100.882 158.24 99.9417 158.58C99.0017 158.9 98.2317 159.19 97.6317 159.45C97.7317 159.91 97.7217 160.33 97.6017 160.71C97.3817 161.45 96.9617 162.08 96.3417 162.6C96.0417 162.86 95.7117 163.08 95.3517 163.26C94.9917 163.42 94.6217 163.51 94.2417 163.53C93.8217 163.55 93.4517 163.46 93.1317 163.26C92.8117 163.04 92.5617 162.76 92.3817 162.42C92.1817 162.08 92.0517 161.7 91.9917 161.28C91.9317 160.86 91.9317 160.45 91.9917 160.05C92.1517 159.21 92.4417 158.51 92.8617 157.95C93.3017 157.39 93.7317 156.89 94.1517 156.45C94.4517 156.17 94.7017 156.05 94.9017 156.09C95.1017 156.11 95.2517 156.21 95.3517 156.39C95.5717 156.75 95.6317 157.15 95.5317 157.59C95.9917 157.57 96.4217 157.69 96.8217 157.95C97.1617 157.81 97.5717 157.65 98.0517 157.47C98.5517 157.29 99.0817 157.11 99.6417 156.93C100.202 156.73 100.762 156.55 101.322 156.39C101.882 156.21 102.402 156.05 102.882 155.91C102.882 155.77 102.892 155.66 102.912 155.58C102.952 155.12 103.072 154.73 103.272 154.41C103.492 154.09 103.752 153.93 104.052 153.93C104.332 153.93 104.542 154.07 104.682 154.35C104.842 154.61 104.922 154.85 104.922 155.07C104.762 156.39 104.682 157.73 104.682 159.09C104.702 160.43 104.762 161.75 104.862 163.05C104.862 163.51 104.762 163.84 104.562 164.04C104.362 164.24 104.152 164.34 103.932 164.34ZM108.282 164.19C108.062 164.19 107.872 164.07 107.712 163.83C107.572 163.59 107.452 163.31 107.352 162.99C107.212 162.37 107.112 161.7 107.052 160.98C107.012 160.24 106.992 159.5 106.992 158.76C106.992 158 107.012 157.26 107.052 156.54C107.112 155.8 107.182 155.13 107.262 154.53C107.302 154.19 107.392 153.91 107.532 153.69C107.692 153.45 107.902 153.36 108.162 153.42C108.442 153.52 108.682 153.76 108.882 154.14C109.082 154.5 109.152 154.88 109.092 155.28C108.932 156.36 108.842 157.58 108.822 158.94C108.822 160.28 108.882 161.62 109.002 162.96C109.042 163.26 109.002 163.54 108.882 163.8C108.762 164.06 108.562 164.19 108.282 164.19ZM93.9717 161.55C94.3517 161.41 94.7517 161.2 95.1717 160.92C95.6117 160.62 95.9217 160.26 96.1017 159.84C96.2617 159.42 96.1617 159.08 95.8017 158.82C95.5017 158.62 95.1917 158.56 94.8717 158.64C94.6117 158.98 94.3817 159.42 94.1817 159.96C94.0017 160.5 93.9317 161.03 93.9717 161.55ZM130.308 170.55C130.188 170.11 130.098 169.58 130.038 168.96C129.998 168.32 129.978 167.68 129.978 167.04C129.998 166.38 130.048 165.75 130.128 165.15C130.228 164.53 130.368 164.02 130.548 163.62C130.628 163.4 130.788 163.24 131.028 163.14C131.268 163.04 131.528 162.99 131.808 162.99C132.088 162.99 132.258 163.11 132.318 163.35C132.398 163.59 132.418 163.85 132.378 164.13C132.578 164.05 132.808 163.97 133.068 163.89C133.328 163.79 133.588 163.7 133.848 163.62C134.128 163.54 134.398 163.48 134.658 163.44C134.918 163.38 135.148 163.35 135.348 163.35C136.008 163.33 136.528 163.51 136.908 163.89C137.288 164.27 137.458 164.77 137.418 165.39C137.378 165.93 137.228 166.5 136.968 167.1C136.708 167.68 136.438 168.24 136.158 168.78C136.738 168.68 137.248 168.54 137.688 168.36C138.148 168.18 138.678 167.94 139.278 167.64C139.518 167.52 139.728 167.55 139.908 167.73C140.108 167.91 140.208 168.16 140.208 168.48C140.208 168.7 140.098 168.9 139.878 169.08C139.658 169.26 139.378 169.43 139.038 169.59C138.398 169.89 137.698 170.15 136.938 170.37C136.178 170.59 135.478 170.71 134.838 170.73C134.478 170.73 134.188 170.58 133.968 170.28C133.748 169.98 133.728 169.63 133.908 169.23C134.188 168.59 134.458 168 134.718 167.46C134.978 166.92 135.168 166.35 135.288 165.75C135.308 165.59 135.278 165.46 135.198 165.36C135.118 165.26 135.028 165.22 134.928 165.24C134.488 165.28 134.018 165.37 133.518 165.51C133.038 165.65 132.538 165.82 132.018 166.02C131.978 166.4 131.938 166.8 131.898 167.22C131.878 167.62 131.858 168.02 131.838 168.42C131.838 168.8 131.838 169.17 131.838 169.53C131.838 169.87 131.858 170.17 131.898 170.43C131.938 170.69 131.878 170.89 131.718 171.03C131.578 171.17 131.418 171.24 131.238 171.24C131.038 171.26 130.848 171.2 130.668 171.06C130.508 170.94 130.388 170.77 130.308 170.55ZM126.858 153.63C126.718 153.35 126.488 153.16 126.168 153.06C125.868 152.96 125.528 152.92 125.148 152.94L124.428 153.03C124.108 152.21 123.768 151.43 123.408 150.69C123.068 149.95 122.738 149.27 122.418 148.65C122.278 148.41 122.078 148.24 121.818 148.14C121.558 148.04 121.328 148.05 121.128 148.17C120.988 148.25 120.848 148.4 120.708 148.62C120.588 148.82 120.608 149.07 120.768 149.37C121.168 150.19 121.518 150.93 121.818 151.59C122.118 152.23 122.408 152.9 122.688 153.6C122.168 153.84 121.678 154.11 121.218 154.41C120.758 154.71 120.388 155 120.108 155.28C119.968 155.4 119.878 155.59 119.838 155.85C119.818 156.09 119.888 156.29 120.048 156.45C120.288 156.71 120.528 156.83 120.768 156.81C121.028 156.77 121.248 156.68 121.428 156.54C121.908 156.14 122.448 155.79 123.048 155.49C123.668 155.19 124.298 155 124.938 154.92C124.658 155.44 124.338 156 123.978 156.6C123.638 157.18 123.288 157.79 122.928 158.43C122.568 159.07 122.218 159.71 121.878 160.35C121.558 160.99 121.298 161.61 121.098 162.21C121.018 162.43 121.018 162.66 121.098 162.9C121.178 163.14 121.308 163.31 121.488 163.41C121.648 163.51 121.868 163.51 122.148 163.41C122.448 163.31 122.638 163.18 122.718 163.02C122.958 162.46 123.238 161.86 123.558 161.22C123.878 160.56 124.218 159.89 124.578 159.21C124.938 158.53 125.308 157.85 125.688 157.17C126.068 156.47 126.448 155.79 126.828 155.13C127.088 154.65 127.098 154.15 126.858 153.63ZM135.078 160.02C135.058 160.48 134.968 160.79 134.808 160.95C134.648 161.11 134.458 161.2 134.238 161.22C134.018 161.26 133.848 161.23 133.728 161.13C133.608 161.01 133.508 160.79 133.428 160.47C133.368 159.73 133.328 158.96 133.308 158.16C133.308 157.36 133.328 156.56 133.368 155.76C133.408 154.96 133.488 154.19 133.608 153.45C133.728 152.69 133.878 151.98 134.058 151.32C134.098 151.2 134.148 151.07 134.208 150.93C134.268 150.77 134.338 150.63 134.418 150.51C134.518 150.37 134.618 150.26 134.718 150.18C134.838 150.08 134.978 150.04 135.138 150.06C135.498 150.08 135.748 150.23 135.888 150.51C136.028 150.79 136.068 151.06 136.008 151.32C135.868 152.1 135.748 152.82 135.648 153.48C135.568 154.14 135.498 154.79 135.438 155.43C136.238 155.21 137.018 155.07 137.778 155.01C138.558 154.95 139.268 154.96 139.908 155.04C140.188 155.08 140.408 155.17 140.568 155.31C140.748 155.45 140.838 155.61 140.838 155.79C140.838 156.25 140.528 156.5 139.908 156.54C139.428 156.58 138.998 156.62 138.618 156.66C138.238 156.68 137.868 156.72 137.508 156.78C137.148 156.84 136.788 156.92 136.428 157.02C136.068 157.12 135.678 157.24 135.258 157.38C135.218 157.78 135.188 158.2 135.168 158.64C135.148 159.06 135.118 159.52 135.078 160.02ZM128.118 165.6C128.138 165.26 128.128 164.81 128.088 164.25C128.048 163.67 127.978 163.07 127.878 162.45C127.798 161.81 127.688 161.19 127.548 160.59C127.408 159.99 127.238 159.49 127.038 159.09C126.938 158.93 126.778 158.82 126.558 158.76C126.358 158.68 126.178 158.69 126.018 158.79C125.638 158.99 125.518 159.36 125.658 159.9C125.738 160.26 125.818 160.67 125.898 161.13C125.978 161.57 126.048 162.03 126.108 162.51C126.168 162.97 126.218 163.43 126.258 163.89C126.298 164.33 126.328 164.71 126.348 165.03C126.368 165.23 126.448 165.5 126.588 165.84C126.748 166.16 126.918 166.34 127.098 166.38C127.378 166.42 127.608 166.36 127.788 166.2C127.988 166.02 128.098 165.82 128.118 165.6ZM155.104 155.01C155.124 154.85 155.194 154.68 155.314 154.5C155.434 154.3 155.634 154.2 155.914 154.2C156.274 154.26 156.554 154.47 156.754 154.83C156.974 155.19 157.054 155.58 156.994 156C156.894 156.58 156.814 157.26 156.754 158.04C156.714 158.82 156.684 159.61 156.664 160.41C156.644 161.21 156.634 161.98 156.634 162.72C156.634 163.44 156.644 164.04 156.664 164.52C156.664 164.96 156.584 165.32 156.424 165.6C156.264 165.86 156.094 165.99 155.914 165.99C155.734 165.99 155.574 165.94 155.434 165.84C155.294 165.72 155.164 165.58 155.044 165.42C154.944 165.24 154.864 165.05 154.804 164.85C154.744 164.65 154.714 164.47 154.714 164.31C154.674 163.69 154.644 162.97 154.624 162.15C154.624 161.33 154.644 160.47 154.684 159.57C153.924 160.15 153.084 160.69 152.164 161.19C151.244 161.69 150.274 162.11 149.254 162.45C148.854 162.59 148.454 162.6 148.054 162.48C147.674 162.34 147.464 162.14 147.424 161.88C147.404 161.74 147.434 161.61 147.514 161.49C147.594 161.37 147.684 161.27 147.784 161.19C147.884 161.09 147.994 161.02 148.114 160.98C148.234 160.92 148.324 160.87 148.384 160.83C148.924 160.59 149.494 160.34 150.094 160.08C150.714 159.8 151.314 159.5 151.894 159.18C152.494 158.86 153.044 158.53 153.544 158.19C154.064 157.85 154.494 157.49 154.834 157.11C154.894 156.35 154.984 155.65 155.104 155.01ZM145.834 162.9C145.554 163.1 145.214 163.24 144.814 163.32C144.434 163.4 144.044 163.39 143.644 163.29C143.064 163.13 142.674 162.79 142.474 162.27C142.294 161.73 142.234 161.14 142.294 160.5C142.334 160.14 142.404 159.78 142.504 159.42C142.624 159.06 142.754 158.72 142.894 158.4C143.054 158.08 143.234 157.81 143.434 157.59C143.634 157.35 143.844 157.17 144.064 157.05C144.224 156.97 144.364 156.94 144.484 156.96C144.624 156.98 144.734 157.02 144.814 157.08C144.914 157.14 144.994 157.21 145.054 157.29C145.134 157.37 145.204 157.44 145.264 157.5C145.444 157.28 145.644 157.09 145.864 156.93C146.084 156.75 146.384 156.58 146.764 156.42C147.704 156.08 148.684 155.84 149.704 155.7C150.744 155.56 151.754 155.67 152.734 156.03C152.894 156.09 152.994 156.18 153.034 156.3C153.074 156.42 153.084 156.52 153.064 156.6C153.024 156.82 152.914 156.98 152.734 157.08C152.554 157.16 152.354 157.21 152.134 157.23C151.594 157.21 151.044 157.23 150.484 157.29C149.944 157.33 149.414 157.41 148.894 157.53C148.394 157.63 147.914 157.76 147.454 157.92C146.994 158.08 146.584 158.24 146.224 158.4C146.464 158.76 146.624 159.16 146.704 159.6C146.784 160.04 146.794 160.48 146.734 160.92C146.694 161.34 146.594 161.73 146.434 162.09C146.274 162.45 146.074 162.72 145.834 162.9ZM145.534 160.14C145.554 160 145.554 159.85 145.534 159.69C145.514 159.51 145.484 159.35 145.444 159.21C145.424 159.07 145.384 158.95 145.324 158.85C145.284 158.75 145.254 158.7 145.234 158.7C145.054 158.82 144.884 159.01 144.724 159.27C144.584 159.51 144.464 159.78 144.364 160.08C144.284 160.36 144.234 160.64 144.214 160.92C144.194 161.2 144.214 161.42 144.274 161.58C144.334 161.62 144.414 161.63 144.514 161.61C144.634 161.59 144.754 161.54 144.874 161.46C145.014 161.36 145.144 161.21 145.264 161.01C145.384 160.79 145.474 160.5 145.534 160.14ZM165.604 158.25C165.424 158.83 165.234 159.42 165.034 160.02C164.854 160.6 164.674 161.18 164.494 161.76C165.114 161.78 165.644 161.94 166.084 162.24C166.544 162.54 166.834 162.89 166.954 163.29C167.074 163.63 167.104 163.99 167.044 164.37C167.004 164.73 166.894 165.09 166.714 165.45C166.554 165.81 166.344 166.16 166.084 166.5C165.824 166.82 165.534 167.1 165.214 167.34C165.014 167.5 164.694 167.67 164.254 167.85C163.834 168.01 163.444 168.06 163.084 168C162.504 167.9 162.114 167.57 161.914 167.01C161.714 166.43 161.664 165.82 161.764 165.18C161.864 164.5 161.974 163.9 162.094 163.38C162.234 162.84 162.374 162.32 162.514 161.82C162.674 161.32 162.844 160.81 163.024 160.29C163.204 159.77 163.404 159.17 163.624 158.49C163.024 158.57 162.444 158.72 161.884 158.94C161.324 159.16 160.844 159.39 160.444 159.63C160.184 159.79 159.894 159.82 159.574 159.72C159.274 159.62 159.124 159.37 159.124 158.97C159.084 158.65 159.254 158.34 159.634 158.04C160.014 157.74 160.484 157.49 161.044 157.29C161.604 157.07 162.184 156.91 162.784 156.81C163.384 156.69 163.884 156.65 164.284 156.69C164.844 156.75 165.214 156.94 165.394 157.26C165.594 157.56 165.664 157.89 165.604 158.25ZM172.654 158.22C173.554 157.76 174.424 157.51 175.264 157.47C176.124 157.43 176.894 157.52 177.574 157.74C177.754 157.8 177.874 157.88 177.934 157.98C178.014 158.08 178.054 158.18 178.054 158.28C178.074 158.36 178.074 158.44 178.054 158.52C178.034 158.58 178.024 158.62 178.024 158.64C177.804 159 177.544 159.18 177.244 159.18C176.824 159.18 176.454 159.19 176.134 159.21C175.834 159.21 175.554 159.23 175.294 159.27C175.054 159.29 174.814 159.33 174.574 159.39C174.354 159.45 174.104 159.52 173.824 159.6C173.644 159.66 173.494 159.68 173.374 159.66C173.274 159.62 173.184 159.58 173.104 159.54C173.024 159.48 172.954 159.43 172.894 159.39C172.854 159.35 172.804 159.34 172.744 159.36C172.704 159.38 172.684 159.49 172.684 159.69C172.684 160.63 172.714 161.5 172.774 162.3C172.854 163.1 172.924 163.88 172.984 164.64C173.004 164.9 172.934 165.17 172.774 165.45C172.634 165.73 172.424 165.85 172.144 165.81C171.944 165.77 171.734 165.63 171.514 165.39C171.294 165.15 171.164 164.9 171.124 164.64C170.824 162.72 170.684 160.78 170.704 158.82C170.744 156.86 170.874 155.03 171.094 153.33C171.114 153.13 171.184 152.99 171.304 152.91C171.444 152.81 171.584 152.76 171.724 152.76C171.884 152.74 172.044 152.76 172.204 152.82C172.364 152.86 172.494 152.92 172.594 153C172.674 153.06 172.774 153.18 172.894 153.36C173.014 153.52 173.054 153.68 173.014 153.84C172.894 154.52 172.804 155.25 172.744 156.03C172.684 156.79 172.654 157.52 172.654 158.22ZM165.724 154.35C165.784 154.51 165.834 154.72 165.874 154.98C165.934 155.22 165.954 155.45 165.934 155.67C165.934 155.87 165.874 156.04 165.754 156.18C165.634 156.3 165.424 156.32 165.124 156.24C164.944 156.18 164.814 156.08 164.734 155.94C164.654 155.78 164.564 155.62 164.464 155.46C164.064 154.68 163.594 153.92 163.054 153.18C162.514 152.42 161.954 151.74 161.374 151.14C161.054 150.86 160.854 150.58 160.774 150.3C160.694 150 160.794 149.74 161.074 149.52C161.334 149.36 161.594 149.33 161.854 149.43C162.134 149.51 162.384 149.65 162.604 149.85C162.964 150.19 163.314 150.56 163.654 150.96C163.994 151.36 164.294 151.77 164.554 152.19C164.834 152.59 165.074 152.98 165.274 153.36C165.474 153.72 165.624 154.05 165.724 154.35ZM163.564 166.08C163.784 165.96 164.004 165.82 164.224 165.66C164.464 165.5 164.674 165.32 164.854 165.12C165.034 164.92 165.164 164.71 165.244 164.49C165.324 164.25 165.324 164.01 165.244 163.77C165.164 163.53 165.024 163.35 164.824 163.23C164.644 163.11 164.434 163.01 164.194 162.93C164.054 163.45 163.924 163.98 163.804 164.52C163.704 165.04 163.624 165.56 163.564 166.08ZM192.136 155.01C192.156 154.85 192.226 154.68 192.346 154.5C192.466 154.3 192.666 154.2 192.946 154.2C193.306 154.26 193.586 154.47 193.786 154.83C194.006 155.19 194.086 155.58 194.026 156C193.926 156.58 193.846 157.26 193.786 158.04C193.746 158.82 193.716 159.61 193.696 160.41C193.676 161.21 193.666 161.98 193.666 162.72C193.666 163.44 193.676 164.04 193.696 164.52C193.696 164.96 193.616 165.32 193.456 165.6C193.296 165.86 193.126 165.99 192.946 165.99C192.766 165.99 192.606 165.94 192.466 165.84C192.326 165.72 192.196 165.58 192.076 165.42C191.976 165.24 191.896 165.05 191.836 164.85C191.776 164.65 191.746 164.47 191.746 164.31C191.706 163.69 191.676 162.97 191.656 162.15C191.656 161.33 191.676 160.47 191.716 159.57C190.956 160.15 190.116 160.69 189.196 161.19C188.276 161.69 187.306 162.11 186.286 162.45C185.886 162.59 185.486 162.6 185.086 162.48C184.706 162.34 184.496 162.14 184.456 161.88C184.436 161.74 184.466 161.61 184.546 161.49C184.626 161.37 184.716 161.27 184.816 161.19C184.916 161.09 185.026 161.02 185.146 160.98C185.266 160.92 185.356 160.87 185.416 160.83C185.956 160.59 186.526 160.34 187.126 160.08C187.746 159.8 188.346 159.5 188.926 159.18C189.526 158.86 190.076 158.53 190.576 158.19C191.096 157.85 191.526 157.49 191.866 157.11C191.926 156.35 192.016 155.65 192.136 155.01ZM182.866 162.9C182.586 163.1 182.246 163.24 181.846 163.32C181.466 163.4 181.076 163.39 180.676 163.29C180.096 163.13 179.706 162.79 179.506 162.27C179.326 161.73 179.266 161.14 179.326 160.5C179.366 160.14 179.436 159.78 179.536 159.42C179.656 159.06 179.786 158.72 179.926 158.4C180.086 158.08 180.266 157.81 180.466 157.59C180.666 157.35 180.876 157.17 181.096 157.05C181.256 156.97 181.396 156.94 181.516 156.96C181.656 156.98 181.766 157.02 181.846 157.08C181.946 157.14 182.026 157.21 182.086 157.29C182.166 157.37 182.236 157.44 182.296 157.5C182.476 157.28 182.676 157.09 182.896 156.93C183.116 156.75 183.416 156.58 183.796 156.42C184.736 156.08 185.716 155.84 186.736 155.7C187.776 155.56 188.786 155.67 189.766 156.03C189.926 156.09 190.026 156.18 190.066 156.3C190.106 156.42 190.116 156.52 190.096 156.6C190.056 156.82 189.946 156.98 189.766 157.08C189.586 157.16 189.386 157.21 189.166 157.23C188.626 157.21 188.076 157.23 187.516 157.29C186.976 157.33 186.446 157.41 185.926 157.53C185.426 157.63 184.946 157.76 184.486 157.92C184.026 158.08 183.616 158.24 183.256 158.4C183.496 158.76 183.656 159.16 183.736 159.6C183.816 160.04 183.826 160.48 183.766 160.92C183.726 161.34 183.626 161.73 183.466 162.09C183.306 162.45 183.106 162.72 182.866 162.9ZM182.566 160.14C182.586 160 182.586 159.85 182.566 159.69C182.546 159.51 182.516 159.35 182.476 159.21C182.456 159.07 182.416 158.95 182.356 158.85C182.316 158.75 182.286 158.7 182.266 158.7C182.086 158.82 181.916 159.01 181.756 159.27C181.616 159.51 181.496 159.78 181.396 160.08C181.316 160.36 181.266 160.64 181.246 160.92C181.226 161.2 181.246 161.42 181.306 161.58C181.366 161.62 181.446 161.63 181.546 161.61C181.666 161.59 181.786 161.54 181.906 161.46C182.046 161.36 182.176 161.21 182.296 161.01C182.416 160.79 182.506 160.5 182.566 160.14ZM211.373 156.78C211.273 156.94 211.053 157.07 210.713 157.17C210.393 157.25 210.023 157.31 209.603 157.35C209.183 157.39 208.753 157.42 208.313 157.44C207.893 157.44 207.543 157.43 207.263 157.41C207.523 157.61 207.633 157.84 207.593 158.1C207.473 159 207.383 159.95 207.323 160.95C207.283 161.95 207.313 162.9 207.413 163.8C208.073 163.62 208.923 163.3 209.963 162.84C211.003 162.36 212.053 161.67 213.113 160.77C213.513 160.41 213.803 160.29 213.983 160.41C214.123 160.51 214.153 160.67 214.073 160.89C214.013 161.09 213.923 161.29 213.803 161.49C213.563 161.91 213.233 162.35 212.813 162.81C212.393 163.25 211.913 163.68 211.373 164.1C210.853 164.5 210.283 164.88 209.663 165.24C209.063 165.58 208.443 165.86 207.803 166.08C207.463 166.18 207.153 166.19 206.873 166.11C206.613 166.03 206.383 165.9 206.183 165.72C206.003 165.52 205.843 165.29 205.703 165.03C205.583 164.75 205.513 164.46 205.493 164.16C205.373 163.02 205.343 161.86 205.403 160.68C205.463 159.48 205.573 158.37 205.733 157.35C205.313 157.31 204.983 157.19 204.743 156.99C204.523 156.77 204.413 156.53 204.413 156.27C204.413 156.19 204.433 156.11 204.473 156.03C204.533 155.93 204.673 155.85 204.893 155.79C205.033 155.75 205.323 155.7 205.763 155.64C206.203 155.58 206.703 155.54 207.263 155.52C207.823 155.5 208.393 155.5 208.973 155.52C209.573 155.54 210.093 155.61 210.533 155.73C210.873 155.83 211.123 155.99 211.283 156.21C211.443 156.41 211.473 156.6 211.373 156.78ZM217.823 164.79C217.823 165.13 217.703 165.36 217.463 165.48C217.223 165.6 216.973 165.64 216.713 165.6C216.553 165.56 216.383 165.46 216.203 165.3C216.023 165.14 215.913 164.91 215.873 164.61C215.813 163.63 215.763 162.63 215.723 161.61C215.703 160.59 215.693 159.6 215.693 158.64C215.693 157.68 215.703 156.77 215.723 155.91C215.743 155.03 215.773 154.25 215.813 153.57C215.813 153.39 215.883 153.22 216.023 153.06C216.183 152.9 216.373 152.82 216.593 152.82C216.973 152.82 217.263 152.98 217.463 153.3C217.683 153.62 217.793 153.92 217.793 154.2C217.753 154.84 217.723 155.49 217.703 156.15C217.683 156.81 217.663 157.48 217.643 158.16C218.383 157.9 219.193 157.72 220.073 157.62C220.953 157.5 221.973 157.49 223.133 157.59C223.453 157.63 223.753 157.73 224.033 157.89C224.333 158.05 224.483 158.25 224.483 158.49C224.383 158.83 224.193 159.05 223.913 159.15C223.633 159.25 223.333 159.29 223.013 159.27C222.813 159.27 222.553 159.28 222.233 159.3C221.933 159.32 221.603 159.36 221.243 159.42C220.883 159.46 220.503 159.52 220.103 159.6C219.703 159.68 219.323 159.76 218.963 159.84C218.703 159.9 218.463 159.9 218.243 159.84C218.023 159.78 217.823 159.69 217.643 159.57C217.643 161.41 217.703 163.15 217.823 164.79ZM243.704 153.9C243.984 154 244.124 154.13 244.124 154.29C244.144 154.45 244.144 154.55 244.124 154.59C244.044 154.75 243.904 154.88 243.704 154.98C243.504 155.06 243.294 155.12 243.074 155.16C242.354 155.26 241.544 155.39 240.644 155.55C239.764 155.69 238.874 155.89 237.974 156.15C237.774 156.21 237.604 156.25 237.464 156.27C237.324 156.29 237.204 156.3 237.104 156.3C237.144 157.32 237.204 158.35 237.284 159.39C237.364 160.43 237.484 161.43 237.644 162.39C237.644 162.59 237.574 162.76 237.434 162.9C237.314 163.04 237.174 163.12 237.014 163.14C236.674 163.18 236.394 163.07 236.174 162.81C235.974 162.55 235.854 162.31 235.814 162.09C235.654 161.41 235.524 160.67 235.424 159.87C235.344 159.05 235.284 158.22 235.244 157.38C235.204 156.52 235.194 155.67 235.214 154.83C235.234 153.97 235.294 153.15 235.394 152.37C235.434 152.09 235.554 151.85 235.754 151.65C235.954 151.45 236.194 151.37 236.474 151.41C236.694 151.45 236.874 151.57 237.014 151.77C237.154 151.97 237.214 152.17 237.194 152.37C237.154 152.71 237.124 153.08 237.104 153.48C237.084 153.88 237.074 154.3 237.074 154.74C237.154 154.7 237.224 154.66 237.284 154.62C237.364 154.58 237.444 154.54 237.524 154.5C237.864 154.36 238.294 154.23 238.814 154.11C239.334 153.99 239.884 153.9 240.464 153.84C241.044 153.78 241.614 153.75 242.174 153.75C242.754 153.75 243.264 153.8 243.704 153.9ZM230.324 160.23C230.424 161.05 230.354 161.79 230.114 162.45C230.014 162.75 229.864 163.09 229.664 163.47C229.484 163.83 229.254 164.17 228.974 164.49C228.694 164.79 228.384 165.03 228.044 165.21C227.704 165.39 227.354 165.42 226.994 165.3C226.754 165.22 226.544 165.1 226.364 164.94C226.204 164.76 226.074 164.57 225.974 164.37C225.874 164.15 225.794 163.94 225.734 163.74C225.674 163.52 225.644 163.33 225.644 163.17C225.564 162.03 225.704 160.99 226.064 160.05C226.424 159.09 226.904 158.22 227.504 157.44C227.604 157.32 227.744 157.22 227.924 157.14C228.124 157.06 228.304 157.07 228.464 157.17C228.664 157.29 228.784 157.47 228.824 157.71C228.884 157.93 228.864 158.13 228.764 158.31C228.744 158.35 228.724 158.39 228.704 158.43C228.684 158.45 228.664 158.48 228.644 158.52C229.184 158.54 229.574 158.71 229.814 159.03C230.074 159.33 230.244 159.73 230.324 160.23ZM237.644 164.52C238.024 164.6 238.294 164.79 238.454 165.09C238.614 165.39 238.664 165.74 238.604 166.14C238.524 166.68 238.374 167.22 238.154 167.76C237.954 168.28 237.704 168.76 237.404 169.2C237.124 169.62 236.804 169.97 236.444 170.25C236.084 170.51 235.714 170.64 235.334 170.64C234.994 170.64 234.714 170.53 234.494 170.31C234.274 170.09 234.114 169.81 234.014 169.47C233.894 169.03 233.834 168.57 233.834 168.09C233.834 167.61 233.884 167.15 233.984 166.71C234.104 166.25 234.274 165.83 234.494 165.45C234.714 165.07 234.994 164.77 235.334 164.55C235.554 164.39 235.734 164.34 235.874 164.4C236.114 164.48 236.214 164.65 236.174 164.91C236.394 164.75 236.624 164.64 236.864 164.58C237.124 164.5 237.384 164.48 237.644 164.52ZM244.784 159.03C244.444 159.15 244.014 159.29 243.494 159.45C242.994 159.59 242.464 159.72 241.904 159.84C241.364 159.96 240.824 160.06 240.284 160.14C239.744 160.22 239.284 160.26 238.904 160.26C238.724 160.26 238.524 160.21 238.304 160.11C238.104 159.99 237.984 159.83 237.944 159.63C237.904 159.43 238.004 159.26 238.244 159.12C238.504 158.96 238.744 158.86 238.964 158.82C239.744 158.66 240.474 158.51 241.154 158.37C241.854 158.23 242.644 158.04 243.524 157.8C243.764 157.72 244.064 157.69 244.424 157.71C244.784 157.71 245.064 157.8 245.264 157.98C245.344 158.04 245.374 158.18 245.354 158.4C245.354 158.62 245.164 158.83 244.784 159.03ZM227.414 163.26C227.814 162.92 228.134 162.5 228.374 162C228.634 161.48 228.764 160.97 228.764 160.47C228.764 159.97 228.564 159.66 228.164 159.54C227.604 160.88 227.354 162.12 227.414 163.26ZM235.664 168.51C235.764 168.41 235.874 168.28 235.994 168.12C236.134 167.94 236.274 167.74 236.414 167.52C236.554 167.28 236.674 167.04 236.774 166.8C236.894 166.54 236.984 166.29 237.044 166.05C237.104 165.75 237.054 165.58 236.894 165.54C236.774 165.5 236.614 165.52 236.414 165.6C236.234 165.68 236.064 165.77 235.904 165.87C235.804 166.25 235.724 166.68 235.664 167.16C235.604 167.62 235.604 168.07 235.664 168.51ZM250.274 164.46C250.474 164.46 250.654 164.41 250.814 164.31C250.994 164.21 251.144 164.09 251.264 163.95C251.384 163.79 251.464 163.63 251.504 163.47C251.564 163.31 251.574 163.18 251.534 163.08C251.414 162.74 251.334 162.44 251.294 162.18C251.254 161.92 251.324 161.71 251.504 161.55C251.704 161.39 251.924 161.38 252.164 161.52C252.424 161.66 252.604 161.82 252.704 162C252.984 162.52 253.114 163 253.094 163.44C253.094 163.86 253.004 164.25 252.824 164.61C252.644 164.97 252.404 165.29 252.104 165.57C251.804 165.83 251.494 166.04 251.174 166.2C250.854 166.36 250.534 166.48 250.214 166.56C249.894 166.64 249.604 166.64 249.344 166.56C249.084 166.48 248.874 166.32 248.714 166.08C248.554 165.82 248.474 165.45 248.474 164.97C248.474 163.83 248.694 162.68 249.134 161.52C249.594 160.34 250.134 159.27 250.754 158.31C250.154 158.27 249.594 158.29 249.074 158.37C248.574 158.43 248.034 158.51 247.454 158.61C246.934 158.71 246.524 158.52 246.224 158.04C246.064 157.74 246.114 157.47 246.374 157.23C246.434 157.17 246.654 157.1 247.034 157.02C247.414 156.92 247.854 156.83 248.354 156.75C248.854 156.67 249.364 156.62 249.884 156.6C250.404 156.58 250.834 156.61 251.174 156.69C250.894 156.01 250.554 155.34 250.154 154.68C249.754 154.02 249.344 153.34 248.924 152.64C248.864 152.5 248.874 152.34 248.954 152.16C249.034 151.98 249.154 151.85 249.314 151.77C249.394 151.73 249.494 151.7 249.614 151.68C249.754 151.66 249.884 151.68 250.004 151.74C250.604 152.18 251.064 152.67 251.384 153.21C251.724 153.73 251.954 154.24 252.074 154.74C252.214 155.24 252.274 155.71 252.254 156.15C252.234 156.57 252.174 156.9 252.074 157.14C252.414 157.36 252.584 157.66 252.584 158.04C252.604 158.4 252.494 158.8 252.254 159.24C251.814 160.02 251.404 160.85 251.024 161.73C250.644 162.59 250.394 163.5 250.274 164.46ZM258.644 162.69C258.404 162.61 258.204 162.48 258.044 162.3C257.904 162.1 257.824 161.92 257.804 161.76C257.744 161.16 257.694 160.46 257.654 159.66C257.614 158.84 257.594 158.02 257.594 157.2C257.614 156.38 257.654 155.6 257.714 154.86C257.794 154.1 257.894 153.48 258.014 153C258.094 152.76 258.184 152.55 258.284 152.37C258.404 152.17 258.544 152.09 258.704 152.13C258.884 152.17 259.104 152.3 259.364 152.52C259.624 152.74 259.744 153 259.724 153.3C259.584 154.32 259.494 155.45 259.454 156.69C260.094 156.57 260.764 156.5 261.464 156.48C262.184 156.46 262.814 156.58 263.354 156.84C263.614 156.96 263.794 157.14 263.894 157.38C264.014 157.62 264.034 157.82 263.954 157.98C263.914 158.08 263.784 158.15 263.564 158.19C263.364 158.21 263.134 158.22 262.874 158.22C262.154 158.22 261.524 158.25 260.984 158.31C260.464 158.35 259.944 158.45 259.424 158.61C259.424 159.19 259.434 159.76 259.454 160.32C259.474 160.86 259.504 161.36 259.544 161.82C259.564 162.04 259.504 162.27 259.364 162.51C259.244 162.73 259.004 162.79 258.644 162.69ZM257.204 164.01C257.144 164.43 257.084 164.98 257.024 165.66C256.964 166.34 256.954 167.04 256.994 167.76C257.874 167.58 258.764 167.35 259.664 167.07C260.584 166.77 261.464 166.5 262.304 166.26C262.444 166.22 262.614 166.24 262.814 166.32C263.034 166.38 263.194 166.48 263.294 166.62C263.414 166.76 263.444 166.93 263.384 167.13C263.324 167.33 263.094 167.53 262.694 167.73C262.294 167.95 261.824 168.17 261.284 168.39C260.764 168.59 260.244 168.78 259.724 168.96C259.204 169.14 258.714 169.29 258.254 169.41C257.814 169.53 257.474 169.62 257.234 169.68C256.474 169.84 255.904 169.86 255.524 169.74C255.144 169.6 254.954 169.21 254.954 168.57C254.954 168.33 254.954 168.03 254.954 167.67C254.974 167.29 254.994 166.9 255.014 166.5C255.054 166.08 255.104 165.67 255.164 165.27C255.224 164.87 255.314 164.53 255.434 164.25C255.574 163.91 255.744 163.64 255.944 163.44C256.144 163.22 256.414 163.11 256.754 163.11C256.874 163.11 256.984 163.18 257.084 163.32C257.204 163.44 257.244 163.67 257.204 164.01ZM279.21 161.28C279.09 161.74 278.85 162.17 278.49 162.57C278.13 162.97 277.72 163.3 277.26 163.56C276.82 163.8 276.35 163.95 275.85 164.01C275.37 164.05 274.93 163.95 274.53 163.71C274.09 163.45 273.82 162.99 273.72 162.33C273.68 161.85 273.72 161.36 273.84 160.86C273.98 160.34 274.16 159.85 274.38 159.39C274.62 158.91 274.9 158.47 275.22 158.07C275.56 157.65 275.93 157.31 276.33 157.05C276.61 156.89 276.89 156.8 277.17 156.78C277.47 156.76 277.73 156.85 277.95 157.05C278.09 157.21 278.14 157.38 278.1 157.56C278.08 157.74 278 157.91 277.86 158.07C278.24 158.33 278.53 158.61 278.73 158.91C278.93 159.21 279.07 159.51 279.15 159.81C279.25 160.09 279.29 160.36 279.27 160.62C279.27 160.88 279.25 161.1 279.21 161.28ZM285.51 153.78C285.49 154.8 285.48 155.76 285.48 156.66C285.48 157.54 285.49 158.4 285.51 159.24C285.55 160.06 285.6 160.89 285.66 161.73C285.72 162.57 285.79 163.45 285.87 164.37C285.91 164.71 285.87 165.01 285.75 165.27C285.65 165.51 285.5 165.67 285.3 165.75C285.14 165.79 284.99 165.79 284.85 165.75C284.73 165.69 284.62 165.61 284.52 165.51C284.42 165.39 284.33 165.27 284.25 165.15C284.19 165.01 284.15 164.88 284.13 164.76C283.67 162.82 283.42 160.91 283.38 159.03C283.36 157.15 283.43 155.37 283.59 153.69C283.63 153.35 283.7 153.08 283.8 152.88C283.92 152.66 284.12 152.55 284.4 152.55C284.68 152.55 284.94 152.67 285.18 152.91C285.42 153.13 285.53 153.42 285.51 153.78ZM275.7 162.39C275.82 162.39 275.97 162.35 276.15 162.27C276.35 162.17 276.54 162.06 276.72 161.94C276.9 161.8 277.06 161.64 277.2 161.46C277.36 161.28 277.46 161.1 277.5 160.92C277.6 160.52 277.57 160.19 277.41 159.93C277.27 159.65 277.06 159.38 276.78 159.12C276 160.08 275.64 161.17 275.7 162.39ZM293.13 158.1C293.31 158.22 293.48 158.41 293.64 158.67C293.82 158.91 293.96 159.21 294.06 159.57C294.16 159.91 294.22 160.3 294.24 160.74C294.28 161.18 294.25 161.65 294.15 162.15C294.07 162.55 293.92 162.98 293.7 163.44C293.5 163.88 293.24 164.29 292.92 164.67C292.6 165.05 292.24 165.37 291.84 165.63C291.44 165.87 291.01 165.99 290.55 165.99C289.93 165.97 289.47 165.68 289.17 165.12C288.87 164.56 288.72 163.91 288.72 163.17C288.72 162.03 288.86 161 289.14 160.08C289.42 159.16 289.7 158.35 289.98 157.65C290.08 157.37 290.22 157.2 290.4 157.14C290.58 157.06 290.78 157.04 291 157.08C291.22 157.12 291.41 157.24 291.57 157.44C291.75 157.64 291.82 157.85 291.78 158.07C291.96 157.91 292.19 157.85 292.47 157.89C292.75 157.93 292.97 158 293.13 158.1ZM306.99 155.22C307.27 155.32 307.41 155.45 307.41 155.61C307.43 155.77 307.43 155.87 307.41 155.91C307.33 156.07 307.19 156.2 306.99 156.3C306.79 156.38 306.58 156.44 306.36 156.48C306 156.52 305.59 156.57 305.13 156.63C304.67 156.69 304.18 156.77 303.66 156.87C303.16 156.95 302.65 157.04 302.13 157.14C301.61 157.24 301.12 157.36 300.66 157.5C300.56 157.54 300.46 157.57 300.36 157.59C300.28 157.61 300.2 157.63 300.12 157.65C300.1 158.75 300.11 159.85 300.15 160.95C300.21 162.03 300.29 163.12 300.39 164.22C300.43 164.62 300.41 164.99 300.33 165.33C300.25 165.67 300.07 165.86 299.79 165.9C299.55 165.94 299.32 165.83 299.1 165.57C298.88 165.31 298.74 165.01 298.68 164.67C298.56 164.07 298.46 163.32 298.38 162.42C298.32 161.52 298.27 160.55 298.23 159.51C298.21 158.47 298.21 157.42 298.23 156.36C298.27 155.3 298.35 154.32 298.47 153.42C298.49 153.24 298.55 153.1 298.65 153C298.77 152.9 298.89 152.82 299.01 152.76C299.13 152.7 299.24 152.66 299.34 152.64C299.46 152.62 299.55 152.61 299.61 152.61C299.87 152.59 300.06 152.67 300.18 152.85C300.3 153.03 300.35 153.22 300.33 153.42C300.23 154.26 300.17 155.08 300.15 155.88C300.17 155.88 300.19 155.87 300.21 155.85C300.59 155.69 301.07 155.55 301.65 155.43C302.25 155.29 302.87 155.19 303.51 155.13C304.17 155.07 304.81 155.04 305.43 155.04C306.05 155.04 306.57 155.1 306.99 155.22ZM309.45 160.2C309.43 160.3 309.37 160.41 309.27 160.53C309.17 160.63 308.96 160.7 308.64 160.74C307.58 160.84 306.49 160.97 305.37 161.13C304.25 161.27 303.29 161.41 302.49 161.55C302.05 161.59 301.66 161.56 301.32 161.46C300.98 161.36 300.79 161.15 300.75 160.83C300.71 160.57 300.83 160.34 301.11 160.14C301.41 159.94 301.75 159.8 302.13 159.72C302.87 159.58 303.55 159.48 304.17 159.42C304.79 159.34 305.36 159.3 305.88 159.3C306.42 159.3 306.92 159.32 307.38 159.36C307.86 159.4 308.31 159.46 308.73 159.54C308.95 159.58 309.13 159.67 309.27 159.81C309.43 159.93 309.49 160.06 309.45 160.2ZM290.61 163.71C291.13 163.43 291.52 163.14 291.78 162.84C292.04 162.52 292.23 162.19 292.35 161.85C292.55 161.33 292.63 160.82 292.59 160.32C292.57 159.82 292.43 159.49 292.17 159.33C292.03 159.25 291.9 159.17 291.78 159.09C291.68 158.99 291.61 158.88 291.57 158.76C291.23 159.76 290.97 160.69 290.79 161.55C290.61 162.41 290.55 163.13 290.61 163.71ZM317.684 158.97C317.564 159.39 317.444 159.87 317.324 160.41C317.204 160.93 317.094 161.47 316.994 162.03C316.914 162.59 316.854 163.14 316.814 163.68C316.794 164.2 316.814 164.68 316.874 165.12C316.874 165.52 316.764 165.81 316.544 165.99C316.324 166.15 316.134 166.21 315.974 166.17C315.694 166.11 315.474 165.96 315.314 165.72C315.154 165.46 315.034 165.2 314.954 164.94C314.874 164.66 314.834 164.26 314.834 163.74C314.854 163.22 314.894 162.66 314.954 162.06C315.014 161.44 315.094 160.82 315.194 160.2C315.294 159.58 315.404 159.02 315.524 158.52C315.284 158.52 315.004 158.57 314.684 158.67C314.364 158.75 314.024 158.86 313.664 159C313.324 159.14 312.974 159.3 312.614 159.48C312.274 159.64 311.954 159.79 311.654 159.93C311.434 160.03 311.154 160.03 310.814 159.93C310.494 159.81 310.264 159.64 310.124 159.42C309.984 159.2 310.014 158.99 310.214 158.79C310.414 158.57 310.624 158.38 310.844 158.22C311.124 158.02 311.464 157.83 311.864 157.65C312.284 157.45 312.714 157.27 313.154 157.11C313.594 156.95 314.034 156.83 314.474 156.75C314.914 156.65 315.304 156.6 315.644 156.6C316.424 156.64 316.994 156.88 317.354 157.32C317.734 157.76 317.844 158.31 317.684 158.97ZM324.074 163.74C324.074 164.08 324.014 164.31 323.894 164.43C323.774 164.53 323.594 164.58 323.354 164.58C323.274 164.58 323.174 164.56 323.054 164.52C322.934 164.48 322.814 164.42 322.694 164.34C322.574 164.24 322.464 164.13 322.364 164.01C322.284 163.89 322.234 163.75 322.214 163.59C322.134 162.61 322.084 161.7 322.064 160.86C322.044 160.02 322.034 159.22 322.034 158.46C322.034 157.7 322.054 156.98 322.094 156.3C322.134 155.6 322.174 154.91 322.214 154.23C322.214 154.01 322.304 153.83 322.484 153.69C322.664 153.53 322.864 153.45 323.084 153.45C323.404 153.45 323.654 153.61 323.834 153.93C324.034 154.25 324.124 154.55 324.104 154.83C324.064 155.67 324.024 156.45 323.984 157.17C323.964 157.89 323.954 158.6 323.954 159.3C323.954 160 323.964 160.71 323.984 161.43C324.004 162.13 324.034 162.9 324.074 163.74ZM330.938 149.82C331.018 150 331.028 150.19 330.968 150.39C330.928 150.57 330.848 150.75 330.728 150.93C330.608 151.11 330.478 151.28 330.338 151.44C330.198 151.6 330.078 151.72 329.978 151.8C330.198 151.82 330.458 151.88 330.758 151.98C331.078 152.06 331.288 152.18 331.388 152.34C331.668 152.84 331.608 153.4 331.208 154.02C330.888 154.52 330.518 155.04 330.098 155.58C329.698 156.12 329.388 156.66 329.168 157.2C330.068 156.98 330.988 156.76 331.928 156.54C332.868 156.32 333.868 156.16 334.928 156.06C335.088 156.06 335.218 156.1 335.318 156.18C335.418 156.24 335.478 156.31 335.498 156.39C335.578 156.67 335.518 156.91 335.318 157.11C335.118 157.31 334.858 157.46 334.538 157.56C333.618 157.8 332.748 158.04 331.928 158.28C331.108 158.52 330.158 158.81 329.078 159.15C328.498 159.25 328.008 159.19 327.608 158.97C327.228 158.73 326.988 158.39 326.888 157.95C326.828 157.69 326.898 157.36 327.098 156.96C327.298 156.54 327.538 156.12 327.818 155.7C328.098 155.26 328.388 154.85 328.688 154.47C328.988 154.09 329.208 153.79 329.348 153.57C329.228 153.57 328.998 153.59 328.658 153.63C328.338 153.65 328.108 153.67 327.968 153.69C327.648 153.73 327.358 153.67 327.098 153.51C326.858 153.33 326.758 153.08 326.798 152.76C326.818 152.56 326.928 152.38 327.128 152.22C327.348 152.04 327.578 151.87 327.818 151.71C328.058 151.55 328.288 151.39 328.508 151.23C328.748 151.05 328.918 150.86 329.018 150.66C329.158 150.38 329.098 150.17 328.838 150.03C328.578 149.89 328.308 149.8 328.028 149.76C327.748 149.72 327.478 149.66 327.218 149.58C326.658 149.42 326.388 149.08 326.408 148.56C326.408 148.4 326.458 148.28 326.558 148.2C326.658 148.12 326.768 148.07 326.888 148.05C327.028 148.01 327.168 148 327.308 148.02C327.468 148.02 327.608 148.03 327.728 148.05C328.408 148.15 329.058 148.36 329.678 148.68C330.298 148.98 330.718 149.36 330.938 149.82ZM335.828 166.2C335.588 166.58 335.248 167 334.808 167.46C334.368 167.92 333.948 168.32 333.548 168.66C333.768 168.66 334.018 168.67 334.298 168.69C334.578 168.69 334.838 168.72 335.078 168.78C335.338 168.84 335.548 168.94 335.708 169.08C335.888 169.22 335.978 169.42 335.978 169.68C335.978 169.94 335.848 170.27 335.588 170.67C335.328 171.05 335.028 171.43 334.688 171.81C334.368 172.21 334.038 172.57 333.698 172.89C333.378 173.23 333.158 173.47 333.038 173.61C333.858 173.45 334.688 173.26 335.528 173.04C336.388 172.82 337.328 172.56 338.348 172.26C339.068 172.04 339.598 172.05 339.938 172.29C340.138 172.45 340.218 172.6 340.178 172.74C340.158 172.9 340.068 173.04 339.908 173.16C339.768 173.3 339.608 173.42 339.428 173.52C339.248 173.62 339.118 173.69 339.038 173.73C338.498 173.99 337.908 174.22 337.268 174.42C336.628 174.64 335.988 174.83 335.348 174.99C334.708 175.17 334.088 175.31 333.488 175.41C332.888 175.53 332.338 175.62 331.838 175.68C331.558 175.72 331.288 175.69 331.028 175.59C330.768 175.51 330.528 175.34 330.308 175.08C330.188 174.94 330.128 174.77 330.128 174.57C330.148 174.37 330.228 174.19 330.368 174.03C330.908 173.45 331.418 172.83 331.898 172.17C332.398 171.53 332.868 170.9 333.308 170.28C333.088 170.3 332.808 170.33 332.468 170.37C332.148 170.41 331.888 170.45 331.688 170.49C330.828 170.63 330.338 170.47 330.218 170.01C330.158 169.77 330.178 169.54 330.278 169.32C330.398 169.1 330.538 168.93 330.698 168.81C331.318 168.31 331.848 167.86 332.288 167.46C332.728 167.04 333.158 166.59 333.578 166.11C333.238 166.13 332.818 166.23 332.318 166.41C331.838 166.57 331.438 166.71 331.118 166.83C330.718 166.99 330.438 167 330.278 166.86C330.118 166.72 330.038 166.56 330.038 166.38C330.038 166.2 330.078 166.01 330.158 165.81C330.258 165.61 330.408 165.45 330.608 165.33C331.308 164.87 332.048 164.58 332.828 164.46C333.608 164.34 334.318 164.33 334.958 164.43C335.458 164.51 335.788 164.73 335.948 165.09C336.108 165.43 336.068 165.8 335.828 166.2ZM337.598 160.53C337.698 160.67 337.718 160.82 337.658 160.98C337.618 161.12 337.528 161.25 337.388 161.37C337.268 161.49 337.118 161.59 336.938 161.67C336.758 161.75 336.598 161.8 336.458 161.82C335.898 161.88 335.368 161.94 334.868 162C334.368 162.06 333.848 162.14 333.308 162.24C332.768 162.34 332.168 162.47 331.508 162.63C330.848 162.79 330.078 162.99 329.198 163.23C328.718 163.37 328.308 163.38 327.968 163.26C327.648 163.12 327.438 162.97 327.338 162.81C327.258 162.67 327.228 162.53 327.248 162.39C327.268 162.25 327.308 162.12 327.368 162C327.428 161.88 327.498 161.78 327.578 161.7C327.678 161.62 327.768 161.57 327.848 161.55C329.068 161.19 330.288 160.87 331.508 160.59C332.728 160.31 333.928 160.14 335.108 160.08C335.308 160.08 335.538 160.09 335.798 160.11C336.058 160.11 336.308 160.13 336.548 160.17C336.788 160.21 337.008 160.26 337.208 160.32C337.408 160.38 337.538 160.45 337.598 160.53ZM364.101 158.31C363.461 158.53 362.871 158.73 362.331 158.91C361.791 159.09 361.171 159.3 360.471 159.54C360.191 159.64 359.921 159.67 359.661 159.63C359.401 159.59 359.161 159.52 358.941 159.42C358.981 160.72 359.081 161.86 359.241 162.84C359.401 163.8 359.561 164.66 359.721 165.42C359.761 165.58 359.731 165.75 359.631 165.93C359.551 166.09 359.381 166.15 359.121 166.11C358.901 166.07 358.671 165.97 358.431 165.81C358.191 165.63 358.021 165.39 357.921 165.09C357.641 164.33 357.421 163.51 357.261 162.63C357.121 161.73 357.031 160.82 356.991 159.9C356.951 158.98 356.951 158.08 356.991 157.2C357.031 156.32 357.101 155.5 357.201 154.74C357.261 154.32 357.361 154.02 357.501 153.84C357.641 153.66 357.781 153.57 357.921 153.57C358.381 153.57 358.701 153.79 358.881 154.23C359.061 154.67 359.131 155.14 359.091 155.64C359.051 156.08 359.021 156.5 359.001 156.9C358.981 157.3 358.961 157.7 358.941 158.1C359.581 157.78 360.341 157.51 361.221 157.29C362.121 157.05 363.051 156.86 364.011 156.72C364.831 156.6 365.251 156.71 365.271 157.05C365.311 157.33 365.211 157.59 364.971 157.83C364.731 158.05 364.441 158.21 364.101 158.31ZM350.121 157.56C350.021 158.02 349.941 158.5 349.881 159C349.821 159.5 349.781 159.99 349.761 160.47C349.741 160.95 349.741 161.41 349.761 161.85C349.781 162.29 349.811 162.67 349.851 162.99C350.531 162.77 351.271 162.37 352.071 161.79C352.891 161.19 353.641 160.55 354.321 159.87C354.501 159.67 354.671 159.52 354.831 159.42C355.011 159.3 355.181 159.29 355.341 159.39C355.361 159.41 355.371 159.48 355.371 159.6C355.371 159.72 355.351 159.86 355.311 160.02C355.291 160.18 355.241 160.35 355.161 160.53C355.101 160.71 355.011 160.87 354.891 161.01C354.231 161.91 353.561 162.66 352.881 163.26C352.201 163.86 351.461 164.38 350.661 164.82C350.341 165 350.011 165.1 349.671 165.12C349.351 165.14 349.081 165.04 348.861 164.82C348.441 164.38 348.161 163.79 348.021 163.05C347.881 162.29 347.821 161.52 347.841 160.74C347.861 159.96 347.931 159.24 348.051 158.58C348.191 157.9 348.311 157.41 348.411 157.11C348.491 156.89 348.601 156.74 348.741 156.66C348.881 156.58 349.031 156.53 349.191 156.51C349.471 156.49 349.711 156.59 349.911 156.81C350.111 157.03 350.181 157.28 350.121 157.56ZM373.068 163.08C373.148 163.44 373.208 163.86 373.248 164.34C373.288 164.8 373.318 165.27 373.338 165.75C373.358 166.21 373.358 166.66 373.338 167.1C373.338 167.52 373.328 167.88 373.308 168.18C373.288 168.38 373.208 168.55 373.068 168.69C372.928 168.83 372.768 168.9 372.588 168.9C372.308 168.9 372.088 168.86 371.928 168.78C371.768 168.68 371.638 168.57 371.538 168.45C371.458 168.31 371.398 168.17 371.358 168.03C371.338 167.87 371.328 167.72 371.328 167.58C371.328 167.24 371.318 166.84 371.298 166.38C371.298 165.9 371.278 165.41 371.238 164.91C371.218 164.41 371.188 163.92 371.148 163.44C371.108 162.94 371.048 162.5 370.968 162.12C370.508 162.28 370.038 162.44 369.558 162.6C369.098 162.74 368.598 162.9 368.058 163.08C367.778 163.18 367.468 163.15 367.128 162.99C366.788 162.81 366.558 162.53 366.438 162.15C366.338 161.83 366.558 161.56 367.098 161.34C367.698 161.14 368.338 160.93 369.018 160.71C369.718 160.47 370.438 160.25 371.178 160.05C371.938 159.85 372.708 159.69 373.488 159.57C374.268 159.43 375.058 159.36 375.858 159.36C375.978 159.36 376.148 159.45 376.368 159.63C376.608 159.81 376.708 160.03 376.668 160.29C376.628 160.47 376.538 160.61 376.398 160.71C376.278 160.79 376.148 160.84 376.008 160.86C375.308 160.98 374.658 161.11 374.058 161.25C373.478 161.39 372.898 161.54 372.318 161.7C372.478 161.84 372.618 162.02 372.738 162.24C372.878 162.46 372.988 162.74 373.068 163.08ZM379.908 155.73C379.868 155.05 380.108 154.69 380.628 154.65C380.788 154.65 381.008 154.73 381.288 154.89C381.588 155.03 381.758 155.31 381.798 155.73C382.018 157.69 382.138 159.54 382.158 161.28C382.198 163 382.188 164.55 382.128 165.93C382.108 166.13 382.008 166.32 381.828 166.5C381.648 166.68 381.448 166.77 381.228 166.77C381.068 166.77 380.928 166.72 380.808 166.62C380.708 166.52 380.618 166.4 380.538 166.26C380.478 166.1 380.428 165.94 380.388 165.78C380.368 165.62 380.358 165.48 380.358 165.36C380.358 164.96 380.348 164.57 380.328 164.19C380.328 163.79 380.318 163.39 380.298 162.99C379.658 163.19 379.058 163.41 378.498 163.65C377.958 163.87 377.328 164.17 376.608 164.55C376.468 164.63 376.318 164.69 376.158 164.73C375.998 164.75 375.848 164.76 375.708 164.76C375.568 164.74 375.448 164.69 375.348 164.61C375.248 164.51 375.188 164.38 375.168 164.22C375.128 164.04 375.208 163.79 375.408 163.47C375.628 163.15 375.938 162.88 376.338 162.66C377.018 162.28 377.638 161.98 378.198 161.76C378.778 161.54 379.458 161.32 380.238 161.1C380.198 160.22 380.148 159.34 380.088 158.46C380.028 157.58 379.968 156.67 379.908 155.73ZM368.628 152.43C368.608 154.19 368.748 155.66 369.048 156.84C369.808 156.66 370.558 156.42 371.298 156.12C372.038 155.82 372.778 155.5 373.518 155.16C374.158 154.86 374.598 154.83 374.838 155.07C374.918 155.15 374.958 155.29 374.958 155.49C374.958 155.67 374.878 155.9 374.718 156.18C374.638 156.32 374.418 156.52 374.058 156.78C373.698 157.02 373.268 157.27 372.768 157.53C372.268 157.77 371.728 158 371.148 158.22C370.568 158.42 370.018 158.56 369.498 158.64C368.818 158.74 368.288 158.68 367.908 158.46C367.528 158.24 367.228 157.86 367.008 157.32C366.868 157 366.768 156.57 366.708 156.03C366.648 155.49 366.608 154.96 366.588 154.44C366.568 153.9 366.568 153.42 366.588 153C366.608 152.56 366.638 152.27 366.678 152.13C366.778 151.75 366.908 151.45 367.068 151.23C367.248 151.01 367.488 150.92 367.788 150.96C368.348 151.06 368.628 151.55 368.628 152.43ZM391.315 166.26C391.475 166.22 391.775 166.16 392.215 166.08C392.655 165.98 393.135 165.9 393.655 165.84C394.175 165.76 394.685 165.71 395.185 165.69C395.685 165.65 396.075 165.67 396.355 165.75C396.635 165.85 396.785 166.04 396.805 166.32C396.845 166.58 396.845 166.8 396.805 166.98C396.745 167.14 396.635 167.26 396.475 167.34C396.315 167.42 396.185 167.46 396.085 167.46C395.005 167.56 393.875 167.71 392.695 167.91C391.535 168.09 390.415 168.32 389.335 168.6C389.055 168.68 388.835 168.7 388.675 168.66C388.535 168.6 388.415 168.5 388.315 168.36C388.135 168.08 388.085 167.85 388.165 167.67C388.245 167.49 388.385 167.28 388.585 167.04C389.045 166.44 389.445 165.7 389.785 164.82C390.145 163.94 390.385 163.11 390.505 162.33C390.065 162.21 389.625 162 389.185 161.7C388.765 161.4 388.415 161.05 388.135 160.65C387.855 160.25 387.665 159.82 387.565 159.36C387.485 158.9 387.565 158.44 387.805 157.98C388.025 157.52 388.465 157.11 389.125 156.75C389.785 156.37 390.565 156.18 391.465 156.18C391.505 155.62 391.535 155.1 391.555 154.62C391.595 154.12 391.635 153.66 391.675 153.24C391.735 152.8 391.805 152.38 391.885 151.98C391.985 151.58 392.115 151.18 392.275 150.78C392.515 150.36 392.865 150.26 393.325 150.48C393.445 150.54 393.545 150.65 393.625 150.81C393.705 150.95 393.755 151.12 393.775 151.32C393.815 151.5 393.835 151.69 393.835 151.89C393.835 152.09 393.805 152.28 393.745 152.46C393.525 153.6 393.405 154.68 393.385 155.7C393.365 156.72 393.305 157.71 393.205 158.67C393.165 159.09 393.085 159.59 392.965 160.17C392.845 160.73 392.645 161.22 392.365 161.64C392.365 162.5 392.245 163.31 392.005 164.07C391.785 164.81 391.555 165.54 391.315 166.26ZM386.905 154.38C386.905 155.52 386.915 156.67 386.935 157.83C386.955 158.97 387.075 160.22 387.295 161.58C387.295 161.66 387.275 161.74 387.235 161.82C387.155 161.96 387.025 162.03 386.845 162.03C386.625 162.03 386.395 161.98 386.155 161.88C385.915 161.78 385.715 161.53 385.555 161.13C385.355 160.57 385.215 159.95 385.135 159.27C385.055 158.57 385.005 157.89 384.985 157.23C384.965 156.55 384.965 155.92 384.985 155.34C385.025 154.76 385.065 154.29 385.105 153.93C385.145 153.75 385.225 153.63 385.345 153.57C385.485 153.49 385.635 153.45 385.795 153.45C385.995 153.45 386.225 153.56 386.485 153.78C386.745 153.98 386.885 154.18 386.905 154.38ZM391.465 157.86C391.185 157.88 390.905 157.93 390.625 158.01C390.365 158.07 390.115 158.16 389.875 158.28C389.655 158.4 389.475 158.55 389.335 158.73C389.215 158.91 389.155 159.11 389.155 159.33C389.155 159.45 389.185 159.58 389.245 159.72C389.325 159.84 389.415 159.96 389.515 160.08C389.615 160.2 389.725 160.3 389.845 160.38C389.965 160.46 390.085 160.5 390.205 160.5C390.605 160.5 390.905 160.23 391.105 159.69C391.305 159.13 391.425 158.52 391.465 157.86ZM403.545 153.81C402.785 155.35 402.025 156.92 401.265 158.52C400.525 160.1 399.855 161.81 399.255 163.65C399.375 163.69 399.455 163.78 399.495 163.92C399.515 163.98 399.515 164.04 399.495 164.1C399.375 164.36 399.215 164.53 399.015 164.61C398.835 164.69 398.655 164.71 398.475 164.67C398.015 164.57 397.695 164.37 397.515 164.07C397.335 163.77 397.305 163.42 397.425 163.02C398.025 161.32 398.695 159.64 399.435 157.98C400.175 156.32 401.025 154.63 401.985 152.91C402.085 152.75 402.255 152.68 402.495 152.7C402.735 152.7 402.935 152.75 403.095 152.85C403.255 152.95 403.375 153.11 403.455 153.33C403.555 153.53 403.585 153.69 403.545 153.81ZM415.965 156.12C415.905 157.42 415.885 158.81 415.905 160.29C415.945 161.77 416.075 163.19 416.295 164.55C416.335 164.75 416.295 164.92 416.175 165.06C416.075 165.18 415.935 165.26 415.755 165.3C415.515 165.36 415.255 165.33 414.975 165.21C414.715 165.07 414.545 164.85 414.465 164.55C414.345 163.87 414.245 163.13 414.165 162.33C414.085 161.53 414.025 160.73 413.985 159.93C413.965 159.13 413.965 158.35 413.985 157.59C414.025 156.81 414.095 156.1 414.195 155.46C414.235 155.34 414.325 155.26 414.465 155.22C414.605 155.16 414.745 155.14 414.885 155.16C414.985 155.16 415.095 155.2 415.215 155.28C415.355 155.34 415.475 155.42 415.575 155.52C415.695 155.6 415.785 155.7 415.845 155.82C415.925 155.92 415.965 156.02 415.965 156.12ZM405.075 161.52C404.975 161.34 404.915 161.14 404.895 160.92C404.895 160.7 404.945 160.53 405.045 160.41C405.745 159.65 406.485 158.99 407.265 158.43C408.045 157.87 408.795 157.36 409.515 156.9C409.515 156.72 409.535 156.55 409.575 156.39C409.615 156.25 409.665 156.12 409.725 156C409.785 155.88 409.865 155.8 409.965 155.76C410.085 155.72 410.225 155.7 410.385 155.7C410.565 155.7 410.735 155.73 410.895 155.79C411.055 155.85 411.185 155.93 411.285 156.03C411.405 156.13 411.465 156.27 411.465 156.45C411.465 158.19 411.515 159.89 411.615 161.55C411.735 163.19 411.905 164.8 412.125 166.38C412.185 166.58 412.135 166.78 411.975 166.98C411.835 167.16 411.665 167.25 411.465 167.25C411.245 167.29 411.055 167.25 410.895 167.13C410.735 167.01 410.625 166.9 410.565 166.8C410.205 165.9 409.965 164.81 409.845 163.53C409.725 162.23 409.625 160.74 409.545 159.06C409.025 159.4 408.495 159.81 407.955 160.29C407.435 160.75 406.945 161.19 406.485 161.61C406.125 161.95 405.825 162.07 405.585 161.97C405.345 161.85 405.175 161.7 405.075 161.52ZM405.285 166.44C405.305 166.5 405.305 166.6 405.285 166.74C405.285 166.88 405.265 167.01 405.225 167.13C405.185 167.23 405.115 167.31 405.015 167.37C404.935 167.43 404.825 167.42 404.685 167.34C404.645 167.32 404.585 167.3 404.505 167.28C404.425 167.26 404.335 167.22 404.235 167.16C404.155 167.1 404.055 167 403.935 166.86C403.835 166.72 403.745 166.53 403.665 166.29C403.325 165.37 403.025 164.37 402.765 163.29C402.505 162.19 402.305 161.08 402.165 159.96C402.145 159.78 402.135 159.58 402.135 159.36C402.135 159.12 402.145 158.89 402.165 158.67C402.185 158.45 402.215 158.26 402.255 158.1C402.315 157.94 402.385 157.84 402.465 157.8C402.645 157.72 402.815 157.72 402.975 157.8C403.135 157.86 403.275 157.96 403.395 158.1C403.535 158.24 403.645 158.4 403.725 158.58C403.805 158.76 403.845 158.92 403.845 159.06C403.985 160.32 404.185 161.56 404.445 162.78C404.725 164 405.005 165.22 405.285 166.44ZM426.741 159.87C426.461 160.77 426.121 161.73 425.721 162.75C425.321 163.77 424.831 164.74 424.251 165.66C425.251 165.32 426.241 164.99 427.221 164.67C428.201 164.33 429.141 164.05 430.041 163.83C430.221 163.79 430.421 163.76 430.641 163.74C430.881 163.72 431.091 163.72 431.271 163.74C431.471 163.76 431.641 163.79 431.781 163.83C431.921 163.85 432.011 163.89 432.051 163.95C432.131 164.17 432.151 164.36 432.111 164.52C432.071 164.66 431.991 164.79 431.871 164.91C431.771 165.01 431.641 165.11 431.481 165.21C431.321 165.29 431.171 165.36 431.031 165.42C429.651 165.84 428.301 166.28 426.981 166.74C425.661 167.2 424.311 167.68 422.931 168.18C422.531 168.28 422.181 168.27 421.881 168.15C421.601 168.03 421.381 167.86 421.221 167.64C421.081 167.46 421.021 167.31 421.041 167.19C421.081 167.05 421.151 166.93 421.251 166.83C421.351 166.73 421.471 166.65 421.611 166.59C421.771 166.53 421.901 166.47 422.001 166.41C422.641 165.15 423.191 163.9 423.651 162.66C424.111 161.42 424.551 160.17 424.971 158.91C425.051 158.69 425.211 158.5 425.451 158.34C425.691 158.18 425.981 158.19 426.321 158.37C426.721 158.61 426.911 158.85 426.891 159.09C426.891 159.33 426.841 159.59 426.741 159.87ZM421.581 157.35H421.491C421.451 158.49 421.421 159.57 421.401 160.59C421.381 161.59 421.441 162.62 421.581 163.68C421.621 163.96 421.601 164.21 421.521 164.43C421.441 164.65 421.231 164.76 420.891 164.76C420.691 164.76 420.531 164.71 420.411 164.61C420.291 164.51 420.191 164.39 420.111 164.25C420.031 164.09 419.961 163.92 419.901 163.74C419.861 163.56 419.831 163.39 419.811 163.23C419.651 162.21 419.561 161.15 419.541 160.05C419.521 158.95 419.561 157.83 419.661 156.69C419.501 156.51 419.391 156.29 419.331 156.03C419.211 155.59 419.191 155.15 419.271 154.71C419.371 154.27 419.521 153.86 419.721 153.48C419.921 153.08 420.151 152.72 420.411 152.4C420.671 152.06 420.911 151.77 421.131 151.53C421.411 151.25 421.701 151.19 422.001 151.35C422.181 151.45 422.331 151.63 422.451 151.89C422.591 152.15 422.581 152.4 422.421 152.64C422.281 152.84 422.101 153.09 421.881 153.39C421.681 153.69 421.531 153.95 421.431 154.17C421.251 154.53 421.201 154.83 421.281 155.07C421.381 155.29 421.561 155.39 421.821 155.37C421.921 155.37 422.061 155.33 422.241 155.25C422.441 155.15 422.651 155.03 422.871 154.89C423.091 154.75 423.301 154.59 423.501 154.41C423.701 154.21 423.861 154 423.981 153.78C424.041 153.66 424.041 153.56 423.981 153.48C423.921 153.38 423.851 153.3 423.771 153.24C423.691 153.16 423.621 153.08 423.561 153C423.501 152.9 423.501 152.78 423.561 152.64C423.661 152.36 423.841 152.21 424.101 152.19C424.361 152.17 424.601 152.21 424.821 152.31C425.101 152.45 425.301 152.63 425.421 152.85C425.561 153.07 425.631 153.31 425.631 153.57C425.651 153.83 425.611 154.1 425.511 154.38C425.431 154.64 425.321 154.89 425.181 155.13C424.721 155.83 424.141 156.37 423.441 156.75C422.761 157.11 422.141 157.31 421.581 157.35ZM438.216 151.53C438.036 152.41 437.846 153.28 437.646 154.14C437.466 155 437.296 155.86 437.136 156.72C436.976 157.58 436.856 158.44 436.776 159.3C436.696 160.16 436.686 161.02 436.746 161.88C436.786 162.1 436.746 162.31 436.626 162.51C436.526 162.71 436.406 162.84 436.266 162.9C435.826 163.06 435.506 162.95 435.306 162.57C435.066 161.55 434.936 160.54 434.916 159.54C434.916 158.54 434.986 157.55 435.126 156.57C435.286 155.59 435.486 154.62 435.726 153.66C435.986 152.68 436.246 151.71 436.506 150.75C436.606 150.35 436.766 150.13 436.986 150.09C437.206 150.05 437.416 150.07 437.616 150.15C437.916 150.25 438.106 150.45 438.186 150.75C438.266 151.05 438.276 151.31 438.216 151.53ZM437.016 167.67C437.016 167.89 436.986 168.19 436.926 168.57C436.886 168.93 436.806 169.27 436.686 169.59C436.586 169.91 436.436 170.17 436.236 170.37C436.056 170.57 435.826 170.61 435.546 170.49C435.386 170.39 435.226 170.2 435.066 169.92C434.906 169.64 434.836 169.38 434.856 169.14C434.896 168.66 434.996 168.19 435.156 167.73C435.316 167.27 435.526 166.99 435.786 166.89C435.906 166.85 436.036 166.85 436.176 166.89C436.336 166.93 436.476 167 436.596 167.1C436.716 167.18 436.816 167.28 436.896 167.4C436.976 167.5 437.016 167.59 437.016 167.67Z" fill="black"/>
<circle cx="109.5" cy="49.5" r="2.5" fill="white"/>
<circle cx="121.5" cy="49.5" r="2.5" fill="white"/>
<path fill-rule="evenodd" clip-rule="evenodd" d="M411 74.0162C408.73 75.985 406.529 77.7896 405 79L411 88.2308V89.4762L401 99L411 103.211V104.3L401 117.5L411 125.357V126H34V73H411V74.0162Z" fill="#FFC700" fill-opacity="0.4"/>
<path d="M235.76 53.01C226.833 52.5767 218.253 53.27 210.02 55.09C201.787 56.91 193.64 59.38 185.58 62.5C183.5 63.28 181.897 63.1933 180.77 62.24C179.73 61.2867 179.21 60.3333 179.21 59.38C179.817 57.7333 180.9 56.39 182.46 55.35C200.227 46.6833 217.993 43.4767 235.76 45.73C236.627 45.99 237.32 46.64 237.84 47.68C238.447 48.6333 238.663 49.4567 238.49 50.15C238.317 51.0167 238.057 51.7533 237.71 52.36C237.363 52.88 236.713 53.0967 235.76 53.01ZM217.3 98.38C217.3 99.3333 216.953 100.2 216.26 100.98C215.653 101.673 214.873 102.107 213.92 102.28C212.187 102.54 211.06 102.237 210.54 101.37C210.02 100.503 209.717 99.5067 209.63 98.38C209.543 92.3133 209.413 86.29 209.24 80.31C209.153 74.2433 208.893 68.1767 208.46 62.11C208.46 61.7633 208.417 61.3733 208.33 60.94C208.243 60.42 208.243 59.9433 208.33 59.51C208.417 58.99 208.59 58.5567 208.85 58.21C209.197 57.8633 209.717 57.6033 210.41 57.43C212.403 57.0833 213.833 57.43 214.7 58.47C215.567 59.4233 216 60.3767 216 61.33C216.693 67.57 217.127 73.7667 217.3 79.92C217.473 86.0733 217.473 92.2267 217.3 98.38ZM252.161 104.88C251.728 106.353 251.165 107.697 250.471 108.91C249.778 110.037 249.041 110.687 248.261 110.86C246.615 111.293 245.358 111.033 244.491 110.08C243.625 109.127 243.278 107.913 243.451 106.44C244.145 101.24 245.271 95.78 246.831 90.06C248.391 84.2533 250.211 78.49 252.291 72.77C254.371 66.9633 256.625 61.3733 259.051 56C261.565 50.54 264.121 45.6 266.721 41.18C267.155 40.4867 267.631 40.0967 268.151 40.01C268.758 39.8367 269.278 39.8367 269.711 40.01C270.145 39.6633 270.665 39.36 271.271 39.1C271.878 38.84 272.485 38.71 273.091 38.71C273.351 38.71 273.611 38.7533 273.871 38.84C274.218 38.9267 274.565 39.1867 274.911 39.62C275.258 40.0533 275.648 40.7033 276.081 41.57C276.601 42.35 277.208 43.52 277.901 45.08C279.115 49.5 280.501 54.05 282.061 58.73C283.708 63.41 285.398 68.09 287.131 72.77C287.391 72.6833 287.608 72.64 287.781 72.64C288.041 72.5533 288.301 72.4667 288.561 72.38C289.515 72.2933 290.598 72.3367 291.811 72.51C293.025 72.6833 293.848 73.29 294.281 74.33C294.801 75.63 294.715 76.7567 294.021 77.71C293.328 78.6633 292.071 79.6167 290.251 80.57C291.378 83.3433 292.505 86.0733 293.631 88.76C294.758 91.36 295.928 93.9167 297.141 96.43C297.228 96.8633 297.358 97.5567 297.531 98.51C297.705 99.3767 297.791 100.287 297.791 101.24C297.878 102.107 297.835 102.93 297.661 103.71C297.488 104.49 297.141 105.01 296.621 105.27C296.015 105.53 295.365 105.487 294.671 105.14C294.065 104.793 293.458 104.36 292.851 103.84C292.245 103.233 291.681 102.627 291.161 102.02C290.728 101.327 290.381 100.72 290.121 100.2C288.648 97.34 287.218 94.48 285.831 91.62C284.531 88.6733 283.275 85.7267 282.061 82.78C278.421 83.4733 274.435 84.08 270.101 84.6C265.855 85.12 261.651 85.4667 257.491 85.64C256.538 88.9333 255.585 92.1833 254.631 95.39C253.765 98.51 252.941 101.673 252.161 104.88ZM270.621 50.28C266.635 59.2067 263.168 68.1333 260.221 77.06C266.028 76.8867 272.225 76.15 278.811 74.85C275.691 66.9633 272.961 58.7733 270.621 50.28ZM318.586 52.49C318.153 55.5233 317.763 58.9033 317.416 62.63C317.07 66.27 316.723 69.9967 316.376 73.81C316.03 77.5367 315.683 81.1767 315.336 84.73C315.076 88.2833 314.86 91.4033 314.686 94.09C317.633 93.57 320.883 92.9633 324.436 92.27C328.076 91.5767 331.76 90.8833 335.486 90.19C339.213 89.41 342.853 88.76 346.406 88.24C350.046 87.6333 353.34 87.2 356.286 86.94C356.546 86.94 356.85 87.0267 357.196 87.2C357.89 87.5467 358.236 88.11 358.236 88.89C358.236 90.0167 358.02 90.8833 357.586 91.49C357.153 92.01 356.633 92.4433 356.026 92.79C355.42 93.05 354.77 93.31 354.076 93.57C353.47 93.83 352.906 94.22 352.386 94.74C349.7 95.4333 346.753 96.17 343.546 96.95C340.34 97.73 337.046 98.51 333.666 99.29C330.286 100.07 326.906 100.85 323.526 101.63C320.146 102.41 316.983 103.19 314.036 103.97C311.35 104.663 309.313 104.187 307.926 102.54C306.54 100.893 305.976 98.2067 306.236 94.48C306.67 87.46 307.19 80.44 307.796 73.42C308.403 66.3133 309.14 59.25 310.006 52.23C310.18 50.7567 310.656 49.5433 311.436 48.59C312.303 47.6367 313.343 47.0733 314.556 46.9C316.55 46.64 317.72 47.16 318.066 48.46C318.5 49.6733 318.673 51.0167 318.586 52.49ZM370.258 49.5C370.692 52.4467 371.168 55.5233 371.688 58.73C372.208 61.85 372.728 65.23 373.248 68.87C377.235 66.3567 381.395 63.8433 385.728 61.33C390.148 58.73 394.265 56.65 398.078 55.09C398.425 55.0033 398.858 55.0033 399.378 55.09C399.985 55.09 400.592 55.22 401.198 55.48C401.805 55.6533 402.325 55.9133 402.758 56.26C403.192 56.6067 403.495 57.04 403.668 57.56C403.842 58.1667 403.712 58.99 403.278 60.03C402.845 60.9833 402.368 61.5467 401.848 61.72C400.808 62.3267 399.422 63.15 397.688 64.19C396.042 65.1433 394.265 66.1833 392.358 67.31C390.538 68.4367 388.718 69.5633 386.898 70.69C385.165 71.8167 383.692 72.77 382.478 73.55C387.418 76.2367 392.228 78.5333 396.908 80.44C401.675 82.3467 406.702 83.9067 411.988 85.12C412.508 85.2067 413.028 85.5533 413.548 86.16C414.155 86.68 414.632 87.33 414.978 88.11C415.325 88.89 415.498 89.67 415.498 90.45C415.585 91.23 415.412 91.9233 414.978 92.53C414.458 93.2233 413.722 93.6567 412.768 93.83C411.902 93.9167 410.992 93.8733 410.038 93.7C403.452 92.14 397.428 90.2333 391.968 87.98C386.508 85.64 380.788 82.8233 374.808 79.53C375.242 83.2567 375.632 87.1133 375.978 91.1C376.412 95.0867 376.802 99.29 377.148 103.71C377.148 104.663 376.758 105.227 375.978 105.4C375.198 105.487 374.332 105.443 373.378 105.27C372.425 105.097 371.558 104.793 370.778 104.36C369.998 103.927 369.522 103.493 369.348 103.06C368.828 99.0733 368.265 94.87 367.658 90.45C367.138 86.03 366.532 81.5667 365.838 77.06C365.145 72.4667 364.408 67.96 363.628 63.54C362.848 59.0333 362.068 54.7433 361.288 50.67C361.115 49.7167 361.332 48.6333 361.938 47.42C362.545 46.12 363.672 45.3833 365.318 45.21C365.925 45.21 366.488 45.3833 367.008 45.73C367.615 45.99 368.135 46.38 368.568 46.9C369.088 47.3333 369.478 47.81 369.738 48.33C369.998 48.7633 370.172 49.1533 370.258 49.5Z" fill="#393939"/>
<circle cx="109.5" cy="37.5" r="2.5" fill="white"/>
<circle cx="121.5" cy="37.5" r="2.5" fill="white"/>
<path fill-rule="evenodd" clip-rule="evenodd" d="M57.0316 45.9237H63.4779C67.2225 45.9237 70.2581 48.9594 70.2581 52.704C70.2581 56.4486 67.2225 59.4842 63.4779 59.4842H61.2171C72.9995 69.7668 75.2395 86.4282 63.0466 86.7935C53.1266 87.0907 53.1053 81.9946 53.0839 76.8706C53.0782 75.5003 53.0725 74.128 52.8774 72.8563C51.9529 66.8294 48.0702 64.5694 46.591 64.381C45.1118 64.1927 44.3723 65.6994 45.2967 66.8294C46.2212 67.9595 47.8853 70.5963 49.1795 76.4348C49.9191 86.9819 42.3387 86.9819 36.0523 86.7935C29.7659 86.6052 23.4795 84.9101 24.0342 75.4931C24.4309 68.7577 31.1628 62.5242 35.5359 59.4842H31.5545C27.8098 59.4842 24.7742 56.4486 24.7742 52.704C24.7742 48.9594 27.8098 45.9237 31.5545 45.9237H37.2487C35.593 43.5541 33.8472 38.954 38.4447 36.8356C44.5137 34.0391 54.0771 34.4694 56.8358 37.9111C58.8893 40.4731 57.9174 44.1029 57.0316 45.9237ZM104.244 94.1388C101.434 108.001 112.318 112.722 118.111 113.35H155.829C172.655 113.35 172.655 100.542 169.142 96.7756C152.448 85.3233 134.028 101.688 130.22 105.07L130.22 105.071L130.219 105.071C129.895 105.36 129.676 105.554 129.574 105.628C129.517 105.669 129.456 105.714 129.391 105.762C127.998 106.785 125.1 108.914 128.28 102.614C131.608 96.0223 127.91 88.8653 121.439 86.6052C114.968 84.3451 106.278 86.2285 104.244 94.1388ZM70.8917 57.2242C68.4993 57.2242 66.5599 59.1636 66.5599 61.556C66.5599 63.9484 68.4993 65.8878 70.8917 65.8878H73.5522V76.2374C73.5522 81.5473 77.8567 85.8519 83.1666 85.8519C88.4766 85.8519 92.7811 81.5474 92.7811 76.2374V49.5114C92.7811 44.2014 88.4766 39.8969 83.1666 39.8969C77.8567 39.8969 73.5522 44.2014 73.5522 49.5113V57.2242H70.8917ZM76.879 114.48H45.4475H45.447C35.4398 114.48 27.3274 108.493 27.3274 101.108C27.3274 93.7224 35.4398 87.7354 45.447 87.7354H45.4475H76.879H78.3586V87.7794C87.6737 88.335 94.9986 94.09 94.9986 101.108C94.9986 108.125 87.6737 113.88 78.3586 114.436V114.48H76.879ZM68.9594 97.7686C69.8673 98.3977 70.0933 99.6438 69.4641 100.552C68.4748 101.979 65.6288 104.615 61.4375 104.801C59.247 104.898 57.3394 104.189 55.8906 103.334C54.4535 102.486 53.3569 101.431 52.7422 100.638C52.0655 99.7646 52.2248 98.5083 53.0978 97.8317C53.9709 97.155 55.2272 97.3143 55.9038 98.1873C56.2135 98.5869 56.9289 99.3022 57.9232 99.8888C58.9058 100.469 60.0489 100.858 61.2605 100.805C63.8732 100.689 65.6866 98.9802 66.1764 98.2733C66.8055 97.3654 68.0515 97.1395 68.9594 97.7686ZM102.95 65.1343C104.725 82.4616 118.605 84.6589 125.322 83.5916C131.177 82.9638 143.664 79.7119 146.77 71.7263C147.008 71.1136 147.157 70.5492 147.225 70.0313H149.728V80.5727C149.728 85.9847 154.115 90.3721 159.527 90.3721C164.939 90.3721 169.327 85.9847 169.327 80.5727V49.6962C169.327 44.2842 164.939 39.8969 159.527 39.8969C155.901 39.8969 152.735 41.8663 151.041 44.7937H138.745C135.416 44.7937 132.718 47.4921 132.718 50.8206C132.718 54.1492 135.416 56.8475 138.745 56.8475H149.728V57.9775H138.745C135.416 57.9775 132.718 60.6758 132.718 64.0044C132.718 65.1793 133.054 66.2757 133.635 67.2026C132.977 67.5404 132.357 67.9194 131.794 68.3361C127.295 71.6635 118.777 76.9999 120.7 71.7263C120.843 71.335 121.01 70.8887 121.195 70.3946C124.132 62.5644 131.568 42.7424 116.263 40.085C109.421 39.52 100.731 43.4751 102.95 65.1343Z" fill="#393939"/>
</svg>
