<svg width="294" height="3030" viewBox="0 0 294 3030" fill="none" xmlns="http://www.w3.org/2000/svg">
<path d="M187.998 0.5C187.998 0.5 175.878 145.137 187.998 236.5C204.913 364.004 276.45 421.648 290.498 549.5C311.767 743.069 187.998 1028.5 187.998 1037.5C187.998 1046.67 177.499 1120.45 80.0001 1117C-17.4989 1113.55 -35.5 970.5 90.4979 964C216.496 957.5 294.045 1306.33 290.498 1581.5C288.143 1764.2 229.359 1860.03 187.998 2038C156.735 2172.52 105.539 2243.9 105.998 2382C106.451 2518.2 172.875 2585.64 187.998 2721C201.353 2840.54 187.998 3029 187.998 3029" stroke="black"/>
</svg>
