<svg width="395" height="171" viewBox="0 0 395 171" fill="none" xmlns="http://www.w3.org/2000/svg">
<path d="M267.863 130.182L302.603 142.193L305.934 135.034L308.042 142.324L340.211 138.046L327.405 110.967L354.3 115.89L354.321 115.016C354.523 114.681 354.998 113.536 355.277 111.638C355.625 109.266 356.819 106.088 358.185 103.838C358.242 101.468 363.774 97.737 366.532 96.1677C343.591 93.1698 297.11 87.043 294.713 86.5188C292.316 85.9947 291.84 88.8141 291.901 90.2894L291.764 95.9705L267.863 130.182Z" fill="#1DC078"/>
<path d="M67.5452 96.547L29.5731 101.706C30.4399 102.698 32.6592 105.094 34.602 106.734C36.5448 108.374 38.3177 117.205 38.9613 121.415L65.7267 117.589L52.0819 143.497L84.2058 149.177L86.6493 142.531L89.5956 149.307L120.241 141.737L101.923 103.448C102.475 102.036 105.694 100.186 102.101 96.0674C100.072 93.7421 78.5708 95.3388 67.5452 96.547Z" fill="#1DC078"/>
<path d="M30.3385 41.6728C29.7129 53.1238 36.1567 54.9471 39.4568 54.4274L39.9094 35.6358L58.7009 36.0883C59.539 32.2217 58.8942 24.4325 49.6101 24.2089C40.3259 23.9853 35.9727 31.6541 34.9565 35.5165C33.6061 35.7755 30.7919 37.3693 30.3385 41.6728Z" fill="#1DC078" stroke="black"/>
<path d="M35.3593 47.0411C36.6566 44.818 38.6028 46.1799 39.6323 47.1441L39.9094 35.636L56.9044 36.0453L56.7781 41.2895C56.6775 44.1212 56.1509 50.3889 54.8489 52.8063C53.5469 55.2236 51.5712 55.7558 50.7461 55.7198L47.5899 55.6438L47.5256 58.3144C46.6106 59.1863 41.2204 58.5351 39.368 58.118L39.0111 52.765C38.6677 52.9025 39.6599 52.0518 38.4851 52.4122C37.0167 52.8627 33.7376 49.82 35.3593 47.0411Z" fill="white" stroke="black"/>
<circle cx="48.1475" cy="40.547" r="1.11714" transform="rotate(1.3795 48.1475 40.547)" fill="#303030"/>
<circle cx="338.491" cy="35.9757" r="1.11714" transform="rotate(1.3795 338.491 35.9757)" fill="#303030"/>
<circle cx="341.676" cy="36.8293" r="1.11714" transform="rotate(1.3795 341.676 36.8293)" fill="#303030"/>
<circle cx="51.5465" cy="40.6291" r="1.11714" transform="rotate(1.3795 51.5465 40.6291)" fill="#303030"/>
<path d="M29.5463 56.4238C28.6893 57.5356 27.7011 58.8826 26.6585 60.3868M30.5388 79.7686L57.3744 73.0299L57.2914 76.4774M53.0047 58.7863C55.3243 58.6317 60.16 59.4445 60.9459 63.9333C61.7317 68.4221 62.6151 71.9577 62.9585 73.1644M57.5101 67.3973L59.1231 75.064M57.0353 87.1114L56.9698 89.8306C50.2978 91.1599 35.292 93.827 28.6448 93.8613C24.8379 93.8809 22.4514 93.7818 20.7645 92.8456M57.0353 87.1114L60.4173 85.8811C60.7892 85.9062 61.5269 86.209 61.5026 87.219C61.4722 88.4815 61.7524 90.9661 63.5736 89.9897C65.0305 89.2085 65.1213 85.5733 64.9846 83.8533M57.0353 87.1114L57.2914 76.4774M64.8875 87.8836C66.0668 88.0091 68.4327 87.9495 68.4626 86.7064M68.4626 86.7064C68.4925 85.4634 68.5554 82.8542 68.583 81.7051M68.4626 86.7064C69.0166 87.238 70.2876 87.9942 70.939 86.7661C71.5905 85.538 71.3165 81.8519 71.098 80.1623L73.822 84.0661C74.3667 84.9862 75.7733 86.5618 77.0426 85.5041C78.6291 84.1819 75.2821 79.923 74.6129 79.4696C74.3457 79.2886 73.9124 78.608 73.3477 77.7872M57.2914 76.4774C57.6691 76.2598 58.8751 75.6799 60.6769 75.1014C62.7218 74.4449 66.9367 73.4802 69.3489 74.1114M69.3489 74.1114C69.5937 74.1755 69.8198 74.2559 70.0233 74.3548C71.0278 74.8429 71.9294 75.8511 72.6769 76.848M69.3489 74.1114C70.6983 73.8957 73.537 73.3025 74.0968 72.6552C74.7965 71.8461 76.8546 71.1183 77.3723 71.811C77.8901 72.5036 77.346 74.9198 76.021 75.4709C74.9609 75.9118 73.3499 76.5726 72.6769 76.848M72.6769 76.848C72.917 77.1681 73.1411 77.487 73.3477 77.7872M73.3477 77.7872L83.1501 78.0233M116.728 87.8688L77.5183 91.9774L88.1572 65.8032L128.478 61.9643L116.728 87.8688ZM116.728 87.8688L60.2267 93.7959L60.1262 97.9718L92.9434 95.0358M64.8361 90.0201L65.5405 93.0493M116.607 92.9187L92.9434 95.0358M26.6585 60.3868C21.4988 67.8319 15.0098 79.129 16.5218 84.824C17.7527 89.4606 18.7694 91.7384 20.7645 92.8456M26.6585 60.3868C23.4785 56.9093 15.8652 51.9646 10.8519 60.0062C4.58523 70.0582 3.19725 89.3617 5.37081 101.998C7.54436 114.634 18.7665 124.767 32.1577 125.526C33.958 125.628 35.7412 125.718 37.4959 125.786M64.8424 122.038C60.1244 125.003 52.753 125.899 44.246 125.921M11.5204 88.7362C11.2066 90.6604 12.7 94.9982 20.6385 98.0773M44.246 125.921C37.1384 124.493 38.1787 117.606 37.7586 114.875C37.3385 112.144 35.3791 102.72 22.9368 98.8739C22.1164 98.6203 21.3515 98.3539 20.6385 98.0773M44.246 125.921C42.0622 125.927 39.8036 125.875 37.4959 125.786M20.7645 92.8456L20.6385 98.0773M48.8619 119.855L76.9463 115.731M85.5277 114.471L76.9463 115.731M76.9463 115.731L89.3806 150.177M92.9434 95.0358C96.7604 97.2605 103.241 102.421 104.173 108.895M96.5559 148.795L102.479 163.076L139.475 154.104C142.779 153.422 147.736 151.621 141.131 149.868C134.527 148.116 122.072 149.782 116.67 150.834L113.242 143.852M58.9884 145.218L54.133 161.231L93.982 162.871C95.4204 162.323 96.9215 160.649 91.4189 158.339C85.9164 156.03 77.5879 154.994 74.1115 154.765L75.5306 148.288M37.4959 125.786L32.865 160.719M15.6541 120.853L0.817293 159.947" stroke="black" stroke-linecap="round"/>
<path d="M334.698 32.0944L334.404 44.2822C334.278 46.1416 334.969 49.8637 338.739 49.8768C340.748 49.8837 342.214 49.7654 343.215 49.6208M344.828 49.246C344.613 49.3468 344.093 49.4939 343.215 49.6208M343.215 49.6208L343.147 52.4608M350.333 52.6338L341.496 52.421C339.874 52.5277 336.368 53.5413 335.319 56.7421C334.27 59.9429 332.994 65.1885 332.487 67.4112M338.461 61.4334L336.288 68.9603M365.491 74.8622L339.431 67.5784L339.352 70.8318M339.039 83.8451L367.829 88.7653C369.06 89.0672 371.163 89.267 373.076 88.7397M339.039 83.8451L339.352 70.8318M339.039 83.8451C338.414 83.5709 337.129 82.8371 336.992 82.0953C336.854 81.3535 335.122 80.3822 334.273 79.9892C333.837 81.2744 332.59 83.6898 331.089 83.0706C330.541 82.8421 329.936 82.5537 329.577 81.9167M366.829 51.5735C367.476 52.8203 368.268 54.3492 369.121 56.0014M329.112 86.5211L331.075 83.6533M373.076 88.7397C374.464 88.3572 375.753 87.5921 376.538 86.2057C378.873 82.0836 377.767 73.5059 376.895 71.3958C376.345 70.0641 372.306 62.1728 369.121 56.0014M373.076 88.7397L372.978 92.8247M339.352 70.8318L338.729 70.4767L333.201 68.0115C332.318 67.6987 329.989 67.0304 327.739 66.8596C325.489 66.6888 324.149 67.9878 323.76 68.6586L322.45 70.0847M329.645 76.4768C329.531 77.1867 329.293 78.9656 329.259 80.4029C329.243 81.0619 329.369 81.5478 329.577 81.9167M326.722 74.8031L326.601 79.8045C326.559 80.1149 326.602 80.5392 326.83 80.9275M329.577 81.9167C327.975 82.0434 327.182 81.5285 326.83 80.9275M324.144 72.8948L323.514 78.8556C323.357 79.7102 323.799 81.3209 326.83 80.9275M323.614 74.7283C322.943 75.7 321.432 77.7755 320.758 78.3034C319.917 78.9633 318.756 78.741 317.764 77.5511C316.971 76.5992 318.637 74.2683 319.569 73.2219L322.45 70.0847M326.92 66.5484C325.398 66.5279 322.099 66.2088 321.076 65.0959C319.798 63.7047 317.952 63.7088 317.726 65.0152C317.5 66.3216 318.388 67.8005 319.681 68.5604C320.716 69.1684 321.958 69.8299 322.45 70.0847M322.45 70.0847L312.508 69.8452M278.432 78.6445L267.992 52.2056L308.189 57.5463L312.508 69.8452M278.432 78.6445L317.601 84.3491L312.508 69.8452M278.432 78.6445L335.836 87.7034L334.472 91.8974L303.097 87.4253M278.432 78.6445L277.87 83.8296L303.097 87.4253M288.45 100.458C291.078 96.2293 297.687 87.7033 303.097 87.4253M308.481 105.944L316.598 107.828M345.152 114.455L316.598 107.828M303.134 142.352L316.598 107.828M279.802 134.745L275.913 140.919C268.59 139.674 252.906 137.556 248.75 139.05C244.594 140.543 251.207 143.271 255.033 144.448L288.851 154.445L295.802 140.183M316.924 140.692L318.203 148.107C313.33 148.039 302.648 148.432 298.904 150.558C295.16 152.683 295.406 153.923 295.997 154.277L338.67 155.645L333.776 138.96M355.368 121.989L358.392 155.78M378.851 115.267L390.634 156.556M328.711 115.274C332.913 117.307 340.575 120.085 348.8 121.151M369.121 56.0014C369.456 53.9527 372.176 50.2641 380.377 51.8997C390.628 53.9443 389.819 69.3749 390.28 86.5366C390.741 103.698 383.369 113.238 367.086 119.599C361.493 121.784 354.987 121.952 348.8 121.151M348.8 121.151C350.577 121.064 354.439 118.605 355.67 109.461C356.9 100.318 368.563 94.5808 374.24 92.8551C376.512 92.6831 381.216 91.274 381.863 87.0141" stroke="black"/>
<path d="M352.692 27.3289C352.63 25.8537 353.213 23.0368 356.037 23.5712" stroke="black" stroke-linecap="round"/>
<path d="M30.5179 32.3382C31.903 31.8267 34.7628 31.5167 35.1212 34.3689" stroke="black" stroke-linecap="round"/>
<path d="M266.624 67.2508C239.672 66.0835 185.273 56.7699 183.302 28.854C180.839 -6.04098 219.885 4.99318 227.167 13.0512C251.491 39.9702 229.368 81.0264 165.799 55.5916C102.231 30.1568 101.923 61.0982 94.7808 63.1126" stroke="black" stroke-linecap="round" stroke-dasharray="10 10"/>
<path d="M274.421 72.6015L268.474 65.3175L259.11 60.6195L287.926 61.4919L274.421 72.6015Z" fill="white"/>
<path d="M268.474 65.3175L274.421 72.6015L287.926 61.4919M268.474 65.3175L287.926 61.4919M268.474 65.3175L259.11 60.6195L287.926 61.4919" stroke="black" stroke-linecap="round"/>
<path d="M332.86 31.7101L350.357 33.4918L349.849 54.5656L366.34 51.7075C365.91 49.3812 364.784 43.2842 363.718 37.5061C362.386 30.2834 359.351 27.198 356.379 25.5231C354.001 24.1832 352.727 26.5202 352.387 27.8562C352.129 25.6734 350.28 23.9187 349.387 23.3141C348.203 22.071 345.365 20.8852 339.9 21.8225C335.529 22.5723 333.386 28.7266 332.86 31.7101Z" fill="#1DC078"/>
</svg>
