<svg width="196" height="120" viewBox="0 0 196 120" fill="none" xmlns="http://www.w3.org/2000/svg">
<path d="M20.9907 29.2586C20.5694 37.7476 24.9091 39.0992 27.1316 38.7139L27.4364 24.7832L40.0917 25.1187C40.6562 22.2522 40.2219 16.4779 33.9694 16.3122C27.7169 16.1464 24.7851 21.8315 24.1008 24.6948C23.1914 24.8868 21.2961 26.0683 20.9907 29.2586Z" fill="#1DC078" stroke="black"/>
<path d="M24.3722 33.2376C25.2459 31.5896 26.5566 32.5992 27.2499 33.3139L27.4366 24.7827L38.882 25.0861L38.797 28.9737C38.7292 31.0729 38.3745 35.7194 37.4977 37.5115C36.6209 39.3035 35.2903 39.698 34.7347 39.6713L32.6091 39.615L32.5658 41.5948C31.9496 42.2412 28.3195 41.7583 27.072 41.4491L26.8316 37.4808C26.6003 37.5828 27.2685 36.9522 26.4774 37.2193C25.4885 37.5533 23.2801 35.2977 24.3722 33.2376Z" fill="white" stroke="black"/>
<ellipse cx="0.752394" cy="0.828121" rx="0.752394" ry="0.828121" transform="matrix(0.999649 0.0264989 -0.0218717 0.999761 32.2505 27.5762)" fill="#303030"/>
<ellipse cx="0.752394" cy="0.828121" rx="0.752394" ry="0.828121" transform="matrix(0.999649 0.0264989 -0.0218717 0.999761 34.5396 27.6367)" fill="#303030"/>
<path d="M20.4573 40.1935C19.8801 41.0177 19.2146 42.0163 18.5125 43.1314M21.1257 57.4996L39.1984 52.5041L39.1425 55.0598M36.2555 41.9449C37.8177 41.8303 41.0744 42.4329 41.6036 45.7605C42.1329 49.0881 42.7278 51.7092 42.959 52.6037M39.2897 48.3284L40.3761 54.012M38.97 62.9431L38.9259 64.9589C34.4326 65.9443 24.3268 67.9215 19.8501 67.9469C17.2863 67.9615 15.6791 67.888 14.543 67.194M38.97 62.9431L41.2477 62.031C41.4981 62.0496 41.9949 62.2741 41.9785 63.0228C41.9581 63.9587 42.1468 65.8006 43.3733 65.0768C44.3545 64.4977 44.4156 61.8028 44.3235 60.5278M38.97 62.9431L39.1425 55.0598M44.2582 63.5155C45.0523 63.6086 46.6457 63.5644 46.6658 62.6428M46.6658 62.6428C46.686 61.7213 46.7283 59.7871 46.747 58.9352M46.6658 62.6428C47.039 63.0369 47.8949 63.5975 48.3336 62.6871C48.7723 61.7766 48.5878 59.044 48.4407 57.7915L50.2752 60.6855C50.642 61.3676 51.5893 62.5356 52.4441 61.7515C53.5126 60.7713 51.2585 57.6141 50.8078 57.278C50.6279 57.1438 50.3361 56.6392 49.9558 56.0308M39.1425 55.0598C39.3969 54.8985 40.209 54.4686 41.4225 54.0397C42.7996 53.553 45.6382 52.8379 47.2628 53.3058M47.2628 53.3058C47.4276 53.3533 47.5799 53.4129 47.7169 53.4862C48.3934 53.8481 49.0006 54.5955 49.504 55.3345M47.2628 53.3058C48.1715 53.1459 50.0833 52.7061 50.4602 52.2263C50.9314 51.6265 52.3175 51.087 52.6662 51.6004C53.0149 52.1139 52.6485 53.9051 51.7561 54.3137C51.0422 54.6405 49.9573 55.1304 49.504 55.3345M49.504 55.3345C49.6657 55.5718 49.8166 55.8082 49.9558 56.0308M49.9558 56.0308L56.5573 56.2058M79.1709 63.5045L52.7645 66.5503L59.9293 47.1467L87.084 44.3008L79.1709 63.5045ZM79.1709 63.5045L41.1193 67.8984L41.0516 70.9942L63.1527 68.8176M44.2235 65.0993L44.6979 67.345M79.089 67.2481L63.1527 68.8176M18.5125 43.1314C15.0376 48.6506 10.6675 57.0255 11.6857 61.2474C12.5147 64.6846 13.1995 66.3732 14.543 67.194M18.5125 43.1314C16.3709 40.5534 11.2436 36.8878 7.8673 42.8492C3.64697 50.301 2.71222 64.6112 4.17602 73.9786C5.63983 83.3459 13.1975 90.8578 22.216 91.421C23.4284 91.4968 24.6292 91.5631 25.811 91.6134M44.2278 88.835C41.0504 91.0331 36.086 91.6972 30.3569 91.7137M8.31755 64.1475C8.1062 65.5741 9.11196 68.7897 14.4582 71.0724M30.3569 91.7137C25.5702 90.6552 26.2708 85.5496 25.9879 83.5251C25.705 81.5007 24.3854 74.5143 16.006 71.6629C15.4535 71.4749 14.9384 71.2774 14.4582 71.0724M30.3569 91.7137C28.8862 91.7179 27.3652 91.6795 25.811 91.6134M14.543 67.194L14.4582 71.0724M33.4655 87.2171L52.3793 84.1596M58.1585 83.2254L52.3793 84.1596M52.3793 84.1596L60.7533 109.695M63.1527 68.8176C65.7233 70.4669 70.0874 74.2923 70.7153 79.0921M65.5856 108.671L69.5749 119.257L94.4896 112.606C96.7147 112.101 100.053 110.766 95.6053 109.466C91.1576 108.167 82.7695 109.402 79.1314 110.182L76.8233 105.007M40.2854 106.019L37.0154 117.89L63.8521 119.106C64.8208 118.699 65.8318 117.458 62.126 115.746C58.4203 114.035 52.8114 113.266 50.4701 113.096L51.4259 108.295M25.811 91.6134L22.6923 117.51M11.1014 87.9569L1.10941 116.938" stroke="black" stroke-linecap="round"/>
<path d="M21.1116 22.339C22.0444 21.9597 23.9704 21.7299 24.2118 23.8443" stroke="black" stroke-linecap="round"/>
<path d="M180.12 48.2201C161.968 47.3548 125.333 40.4504 124.006 19.7555C122.347 -6.11303 148.643 2.06689 153.547 8.04053C169.928 27.9963 155.029 58.4323 112.218 39.5769C69.4072 20.7214 69.1999 43.6591 64.3901 45.1523" stroke="black" stroke-linecap="round" stroke-dasharray="10 10"/>
<path d="M185.37 52.1867L181.366 46.7868L175.059 43.3041L194.465 43.9508L185.37 52.1867Z" fill="white"/>
<path d="M181.366 46.7868L185.37 52.1867L194.465 43.9508M181.366 46.7868L194.465 43.9508M181.366 46.7868L175.059 43.3041L194.465 43.9508" stroke="black" stroke-linecap="round"/>
</svg>
