<svg width="440" height="180" viewBox="0 0 440 180" fill="none" xmlns="http://www.w3.org/2000/svg">
<path d="M312.942 1H317.789M401.104 1H317.789M317.789 1V31.8746M317.789 36.9744V49.5172H365.735M379.096 49.5172H388.79M396.65 41.5229V1.68916M331.413 36.1474C332.81 32.6556 336.915 25.3689 342.155 24.1559M365.735 24.1559C361.412 23.4668 351.849 22.2263 348.181 22.7776M372.415 24.1559C373.682 24.4776 377.603 22.7776 383.157 13.405M383.157 13.405L379.096 14.3698M383.157 13.405L383.812 17.4021" stroke="black"/>
<path d="M365.735 40.1789C364.728 40.271 362.729 40.1789 362.782 39.0738C362.834 37.9688 363.591 37.8306 363.963 37.8997H365.735M363.241 37.8997C363.001 37.6465 362.664 37.0709 363.241 36.7946M365.735 33.8938C366.019 33.2492 367.362 31.96 370.459 31.96C373.556 31.96 375.162 33.2492 375.577 33.8938C375.796 34.4694 376.168 36.0763 375.905 37.8997M375.249 41.5603V48.9504" stroke="black"/>
<path d="M397.895 59.8305V56.502C400.911 57.9998 408.339 57.8195 411.676 57.5421C411.676 58.0044 411.611 59.4283 411.351 61.4255C410.636 67.3892 405.89 68.0827 403.127 68.0133C400.917 67.9579 399.574 65.7943 399.178 64.7194C400.882 64.3866 401.275 63.3441 401.259 62.8644C401.264 62.1825 401.067 60.6592 400.235 60.0212C399.403 59.3833 398.328 59.6283 397.895 59.8305Z" fill="#1DC078"/>
<path d="M389.973 53.293V62.224C389.886 63.6438 390.544 66.7307 393.867 67.72L397.21 68.6475L397.437 71.7733C397.383 72.3687 397.665 73.5801 399.222 73.6626C401.17 73.7656 402.143 73.4908 402.208 71.7733C402.26 70.3993 402.23 68.6131 402.208 67.8918M397.892 64.4568C398.876 64.7316 400.897 64.814 401.105 62.9453C401.364 60.6095 399.482 58.6172 397.535 60.266" stroke="black" stroke-linecap="round"/>
<path d="M366.362 37.8168L354.362 33.3393C353.928 33.1556 353.188 32.4714 353.71 31.2039C354.232 29.9364 355.493 30.2165 356.058 30.515L377.318 38.5746C378.144 38.896 379.705 39.8696 379.34 41.1922C378.974 42.5148 377.84 42.4321 377.318 42.2255L369.753 39.2634" stroke="black"/>
<ellipse cx="345.225" cy="23.5595" rx="3.58688" ry="3.87005" fill="#A4F9D3"/>
<ellipse cx="368.728" cy="25.2587" rx="3.68127" ry="3.87005" fill="#A4F9D3"/>
<path d="M365.046 145.986H393.041V135.608L417.373 148.062L427.315 127.028C426.705 126.752 425.013 126.115 423.129 125.783C425.745 124.012 427.533 116.373 428.1 112.775C425.004 111.899 417.896 109.842 414.233 108.624C410.884 113.163 407.431 113.283 406.123 112.775C397.358 110.1 379.253 104.805 376.951 105.026C374.648 105.248 368.055 132.425 365.046 145.986Z" fill="#1DC078"/>
<path d="M391.862 45.9056L398.929 43.2604M398.929 43.2604L399.976 42.8685C402.07 42.3163 407.109 42.0402 410.511 45.3534C413.914 48.6666 413.412 54.8788 412.736 57.5707C411.275 57.5477 407.685 57.5155 405.015 57.5707C397.32 57.626 392.298 53.8664 390.75 51.9797C388.83 49.5409 385.567 44.0695 387.871 41.6951C390.75 38.727 396.181 41.1674 398.929 43.2604ZM391.862 74.0677C391.933 76.3507 391.969 79.829 391.862 83.1564M390.75 92.0141C391.424 90.6518 391.739 87.005 391.862 83.1564M403.183 97.6741L386.824 90.4955L385.68 92.8424M409.464 81.7984C410.555 85.5718 413.024 94.0296 414.176 97.6741C415.615 102.23 415.615 105.267 412.736 109.822C410.433 113.467 405.407 112.537 403.183 111.617L379.626 105.267L381.173 102.092M402.528 70.4784C405.102 70.8465 411.532 73.6259 416.662 81.7984C423.075 92.0141 428.31 108.442 428.572 114.792M425.561 122.385C423.38 126.066 416.819 132.325 408.025 127.907C402.328 125.045 396.836 122.377 392.844 120.464M387.871 118.105C388.946 118.608 390.673 119.424 392.844 120.464M392.844 120.464V146.682M374.914 145.439V149.028L359.079 151.237C357.465 151.467 354.42 152.204 355.153 153.308C356.069 154.689 355.676 154.965 364.576 154.827C371.695 154.716 383.683 154.781 388.787 154.827V145.439M420.065 142.678L422.551 143.921L421.243 150.547L415.746 152.342C414.263 152.572 411.872 153.391 414.176 154.827H425.561L434.33 133.429L424.776 132.463M381.173 102.092L379.626 99.7448C379.822 101.194 379.744 104.038 377.859 103.817C377.352 103.486 377.15 102.819 377.11 102.092M381.173 102.092L385.68 92.8424M378.579 98.0883C378.16 98.0883 377.619 99.1927 377.401 99.7448C377.237 100.315 377.063 101.244 377.11 102.092M377.11 102.092C377.12 102.621 376.838 103.61 375.634 103.334C374.867 103.158 374.542 102.695 374.416 102.092M375.634 96.8458C375.242 97.444 374.443 98.9304 374.391 100.09C374.359 100.801 374.295 101.511 374.416 102.092M374.416 102.092C374.277 102.368 373.763 102.892 372.821 102.782C371.643 102.644 371.25 101.401 371.381 99.7448C371.512 98.0883 374.071 92.4282 377.11 92.0141C377.632 91.943 378.184 91.896 378.742 91.8675M385.68 92.8424L383.879 92.0141C383.755 92.0003 383.612 91.986 383.454 91.9716M378.742 91.8675C378.415 91.5367 377.807 90.5853 377.99 89.4257C378.173 88.266 379.31 88.4363 379.855 88.6664L383.454 91.9716M378.742 91.8675C380.525 91.7765 382.365 91.8734 383.454 91.9716M391.862 83.1564L375.634 75.1721C374.347 75.08 371.172 73.267 368.764 66.751C366.356 60.2351 364.096 53.5443 363.267 51.0134L366.146 50.4942M396.77 70.4784C393.073 69.2359 385.071 66.751 382.636 66.751C380.2 66.751 379.767 64.6343 379.855 63.5759L378.579 48.2524L366.146 50.4942M366.146 50.4942C365.557 49.0797 364.602 45.3396 365.492 41.6951C366.604 37.1394 366.67 35.966 368.305 36.3802C369.614 36.7115 369.811 41.2119 369.745 43.4207" stroke="black"/>
<path d="M186.2 65.7765C184.804 65.2352 181.942 64.8021 181.663 67.4005C181.314 70.6484 183.641 70.3004 184.571 70.3004C185.316 70.3004 185.968 70.3004 186.2 70.3004V79.6963C187.208 79.9283 189.411 80.1371 190.156 79.1163C190.9 78.0955 191.009 76.4483 190.97 75.7523C193.026 76.2163 197.509 76.4019 198.998 73.4324C200.487 70.4628 200.549 67.0912 200.394 65.7765V57.8887M178.871 80.6243C177.785 81.7069 175.38 85.4962 174.45 91.9921C173.519 98.4879 173.286 102.355 173.286 103.476C173.131 104.597 173.612 106.979 176.776 107.536C180.732 108.232 182.245 106.26 184.571 104.868C186.433 103.754 194.965 95.82 198.998 91.9921L198.358 91.4494M180.499 96.168L188.876 83.4082L191.61 85.7268M191.61 85.7268L193.937 82.1902C194.267 81.6682 195.519 80.6243 197.893 80.6243C198.466 80.6243 199.034 80.6468 199.579 80.6837M191.61 85.7268L197.253 90.5121M204.291 84.7422C204.291 84.8968 204.384 84.9046 204.757 83.6982C204.822 83.4869 204.842 83.2832 204.827 83.0892M201.092 83.4082C202.158 83.4469 204.291 83.8606 204.291 85.2062V86.6851M201.092 85.4382C202.023 85.5058 203.925 85.8094 204.088 86.4822C204.291 87.3231 203.971 88.5121 203.419 88.7441C202.866 88.9761 201.005 88.3961 200.481 88.2511C199.958 88.1061 199.55 87.7581 198.998 88.2511C198.556 88.6455 197.65 89.9228 197.253 90.5121M197.253 90.5121L198.358 91.4494M196.147 80.6243C196.729 79.5996 198.114 77.5967 198.998 77.7823C200.103 78.0143 200.51 78.8263 200.219 79.4643C199.987 79.9747 199.696 80.4899 199.579 80.6837M199.579 80.6837C201.292 80.7997 202.772 81.0576 203.419 81.2042C203.915 81.4754 204.756 82.1753 204.827 83.0892M204.827 83.0892C205.86 84.0172 208.049 86.14 208.538 87.2071C209.026 88.2743 208.858 88.0385 208.712 87.7871M202.11 90.0201C201.741 89.7494 200.952 89.2893 200.743 89.6141C200.481 90.0201 201.128 91.4991 199.987 91.8181C199.073 92.0732 198.52 91.6786 198.358 91.4494M201.15 99.5899C201.685 102.559 204.786 105.738 206.269 106.956C207.433 107.826 210.492 109.171 213.424 107.594C216.356 106.016 215.809 101.949 215.169 100.112L210.806 87.2071L200.481 91.9921L205.28 101.968" stroke="black"/>
<path d="M301.67 41.5027H285.584C285.208 38.1129 286.423 33.825 294.351 33.0427C300.692 32.4169 302.857 37.2437 303.146 39.7354C309.395 38.4896 309.279 44.1392 309.106 47.0075C308.967 49.3021 305.075 52.9275 303.146 54.4534C302.712 55.0038 302.758 51.475 302.712 51.0346C302.654 50.4841 304.621 50.4262 305.2 49.7309C305.779 49.0355 305.113 47.7028 304.621 47.0075C304.228 46.4512 302.49 46.7757 301.67 47.0075V41.5027Z" fill="#1DC078"/>
<path d="M281.487 98.4796L283.576 87.3458M300.41 83.4025C295.766 85.7221 285.666 89.4334 282.416 85.7221C279.165 82.0108 280.442 76.9078 281.487 74.8202L287.524 62.1786C288.298 60.9415 290.31 58.3977 292.167 58.1194C294.025 57.841 295.727 58.0034 296.347 58.1194C296.347 58.6993 296.973 59.859 299.481 59.859C301.989 59.859 302.848 58.0034 302.964 57.0756C302.964 54.9493 302.088 50.6098 303.022 50.6098C305.953 50.6098 305.402 48.2613 304.821 47.2175C304.357 46.3824 302.693 46.8695 301.919 47.2175M303.544 57.0756C307.259 56.805 315.223 57.4467 317.359 62.1786C319.495 66.9105 321.809 74.2789 322.699 77.3717C322.932 79.3046 323.117 83.3561 322.003 84.0984C320.61 85.0262 317.243 87.4617 306.795 84.7943C298.436 82.6603 291.858 81.8948 289.613 81.7788L291.912 70.297M290.681 76.4439L285.318 73.6604C286.13 72.5779 287.942 70.3898 288.685 70.297C289.428 70.2043 291.146 70.2584 291.912 70.297M291.912 70.297L292.167 69.0213L304.125 72.7326M304.125 72.7326L310.51 70.9929L310.851 74.8202M304.125 72.7326L310.851 74.8202M310.851 74.8202L316.082 76.4439C316.082 71.5728 312.13 71.3408 310.851 71.5728M296.347 55.9158C294.373 56.3797 289.845 56.7044 287.524 54.2921C286.595 51.8798 286.13 45.5551 286.014 42.6943M280.094 166.211L278.468 172.125L269.065 174.097C267.362 174.252 263.934 175.141 263.841 177.46C263.748 179.78 263.802 179.587 263.841 179.2H290.774L295.418 168.53" stroke="black"/>
<path d="M296.287 55.7783L296.498 58.0996" stroke="black" stroke-linecap="round"/>
<path d="M173.68 99.0371L171.273 107.761M170.055 113.847L169.041 119.412M202.939 103.964V107.761M204.07 113.847V117.47M191.543 169.957L189.513 178.942H223.412C223.554 178.813 223.706 178.655 223.851 178.478M204.998 170.334L205.433 172.276C206.117 172.362 206.902 172.464 207.753 172.579M207.753 170.334V172.579M207.753 172.579C213.285 173.322 221.622 174.582 223.412 175.406C225.135 176.2 224.581 177.586 223.851 178.478M221.556 169.204L222.687 172.579C227.8 173.057 238.38 174.571 239.796 176.797C241.211 179.023 240.385 179.155 239.796 178.942L223.851 178.478M191.833 136.077H173.68C172.636 136.067 170.583 136.848 170.722 140.047C170.896 144.047 171.65 145.409 175.449 145.322C178.488 145.253 190.286 145.293 195.806 145.322L196.647 136.077H191.833Z" stroke="black"/>
<path d="M186.528 169.435L211.161 170.363C210.6 157.142 209.48 129.587 209.48 125.13C209.48 120.674 203.433 119.444 200.409 119.386C191.532 119.318 173.441 119.223 172.096 119.386C170.415 119.589 168.213 119.56 168.213 125.13C167.911 132.999 171.797 136.069 173.777 136.62H193.019L186.528 169.435Z" fill="#1DC078"/>
<path d="M177.805 72.1627C179.1 75.4572 183.972 74.3088 186.245 73.3227L186.072 70.4807C185.263 70.4614 183.476 70.3937 182.806 70.2777C181.968 70.1327 181.071 68.5957 181.765 66.6817C182.32 65.1505 184.367 65.2703 185.32 65.5217V58.2136H200.495C201.941 57.2953 204.08 54.6582 201.073 51.4565C198.067 48.2549 195.254 50.6445 194.223 52.2396C193.5 50.7509 190.708 48.1621 185.32 49.7165C179.933 51.271 180.031 55.4103 180.754 57.2856C179.462 57.7399 176.834 59.1996 176.649 61.4036C176.464 63.6077 178.48 65.8407 179.511 66.6817C178.403 67.136 176.51 68.8683 177.805 72.1627Z" fill="#1DC078"/>
<path d="M213.952 122.275C211.038 120.975 206.572 122.817 204.703 123.9L207.564 169.941L228.548 169.245C226.65 161.344 222.49 143.732 221.033 136.491C219.212 127.439 217.594 123.9 213.952 122.275Z" fill="#1DC078"/>
<path d="M204.281 119.929C205.686 120.23 209.763 121.187 209.763 125.986C209.763 130.785 210.61 157.57 211.033 170.363" stroke="black"/>
<rect x="237.7" y="51.2139" width="26.2218" height="28.9651" stroke="black"/>
<path d="M242.904 48.3926V53.5038M250.488 48.3926V53.5038M258.741 48.3926V52.9295M242.904 57.4665H264M237.412 57.4665H239.678" stroke="black"/>
<rect x="240.788" y="62.9531" width="5.06452" height="5.27554" fill="#A4F9D3"/>
<rect x="240.788" y="69.917" width="5.06452" height="5.27554" fill="#A4F9D3"/>
<rect x="248.173" y="62.9531" width="5.06452" height="5.27554" fill="#A4F9D3"/>
<rect x="248.173" y="69.917" width="5.06452" height="5.27554" fill="#A4F9D3"/>
<rect x="255.348" y="62.9531" width="5.27554" height="5.27554" fill="#A4F9D3"/>
<rect x="255.348" y="69.917" width="5.27554" height="5.27554" fill="#A4F9D3"/>
<path d="M240.788 63.1641L246.064 68.2286" stroke="black" stroke-linecap="round"/>
<path d="M245.852 62.9531L240.788 68.4397" stroke="black" stroke-linecap="round"/>
<path d="M317.177 85.9541L320.343 98.4044" stroke="black" stroke-linecap="round"/>
<circle cx="288.901" cy="45.8607" r="0.844087" fill="black"/>
<circle cx="197.95" cy="62.7415" r="0.844087" fill="black"/>
<circle cx="194.363" cy="62.7415" r="0.844087" fill="black"/>
<circle cx="293.332" cy="45.8607" r="0.844087" fill="black"/>
<ellipse cx="221.584" cy="37.2082" rx="4.8535" ry="5.27554" fill="#A4F9D3"/>
<path d="M176.574 145.634L167.64 179.047M184.492 145.634V179.859M160.882 114.019L151.948 179.859M260.517 113.787L269.451 174.696M299.907 179.511L301.387 168.692M321.894 113.787V179.511M333.815 112.191L341.048 154.799M345.244 179.511L341.048 154.799M304.925 154.799H341.048M210.482 56.1838C212.735 56.5995 217.629 57.1815 219.184 56.1838C220.738 55.186 221.359 51.8815 221.475 50.3539M220.431 42.7547H219.3V48.6426H224.057V42.7547H222.664M220.431 42.7547V40.0573H219.01V37.7659H224.057V40.0573H222.664V42.7547M220.431 42.7547H222.664M211.323 36.6638H214.833M214.833 29.4127L216.834 32.0811M221.881 26.6572V30.1958M226.493 31.646L228.408 29.7607M228.408 36.6638H231.656" stroke="black"/>
<rect x="124.804" y="108.822" width="216.985" height="5.96371" rx="2.98186" fill="white" stroke="black"/>
<path d="M272.441 165.187L301.367 168.675C302.293 163.559 305.718 148.955 312.012 131.468C318.306 113.981 320.189 101.858 320.343 97.9824H301.367L272.441 165.187Z" fill="#1DC078"/>
<path d="M269.001 124.041L282.011 143.352L291.071 124.041L288.051 120.784L320.343 97.9824H283.405C280.307 100.774 273.09 107.382 269.001 111.477C264.913 115.572 267.298 121.559 269.001 124.041Z" fill="#1DC078"/>
<path d="M280.46 147.995L290.571 123.43M296.498 111.277L293.185 117.397M288.13 120.825L290.571 123.43M290.571 123.43L291.878 120.413L293.185 117.397M285.225 122.795L293.185 117.397" stroke="black"/>
<path d="M34.5329 39.7369H49.2669C50.1772 36.0382 48.9824 34.5587 48.1149 33.3921C47.3702 32.3908 46.8064 31.7988 43.4785 30.7604C40.8161 29.9296 38.3396 31.1065 37.4341 31.7988C37.4815 31.5428 36.9079 31.0648 34.2342 31.2014C31.5604 31.3379 30.598 33.2309 30.4511 34.1603C29.8585 33.8806 28.3349 33.4348 26.9809 33.89C25.2885 34.4591 24.3925 35.3411 24.5632 37.5034C24.7338 39.6657 24.9898 39.9645 23.2121 41.7569C21.4343 43.5494 22.7712 45.7971 23.2121 47.4473C23.653 49.0975 23.3828 50.7904 21.4201 51.9711C19.85 52.9157 19.7135 53.9864 19.8415 54.4037L34.5329 59.084C33.964 57.0241 34.5423 55.2193 34.9026 54.5744C35.4573 53.4838 36.2338 50.8359 34.9026 48.9695C33.5714 47.103 34.5755 45.5837 35.244 45.0573C35.6137 44.8914 36.3533 44.1526 36.3533 42.5251C36.3533 40.8977 35.1397 39.9882 34.5329 39.7369Z" fill="#1DC078"/>
<path d="M52.4099 75.7852V75.7577C52.4152 75.7568 52.4204 75.7558 52.4256 75.7548C52.4202 75.7651 52.415 75.7752 52.4099 75.7852Z" fill="#1DC078"/>
<path d="M41.2172 120.198C41.604 117.217 44.7727 106.608 46.3087 101.676L55.169 103.668C55.0078 104.303 54.2872 107.651 52.6943 115.959C50.7033 126.344 50.177 128.449 49.2242 129.26C48.4619 129.909 47.6645 128.023 47.3611 126.998L43.322 142.632L66.7457 147.996L68.0968 131.081C68.6989 126.5 69.8376 115.794 69.5759 109.614C69.2488 101.89 66.0631 99.8269 63.2044 98.3189C60.3695 96.8235 56.7931 95.8877 50.1588 94.1517L49.9922 94.1081C44.5992 92.6969 36.1304 93.5201 32.5702 94.1081C26.8576 92.8657 14.4911 90.2301 10.7251 89.6269C6.01759 88.873 1.05412 89.8545 0.0727993 95.8721C-0.712258 100.686 5.04577 104.185 8.02292 105.332L41.2172 120.198Z" fill="#1DC078"/>
<path d="M108.997 31.6889V25.6846H118.12V31.6889H108.997Z" fill="#A4F9D3"/>
<path d="M104.067 31.6889V25.6846H95.5692V31.6889H104.067Z" fill="#A4F9D3"/>
<path d="M81.6438 25.6846H90.4111V31.6889H81.6438V25.6846Z" fill="#A4F9D3"/>
<path d="M67.8179 25.6846H76.8694V31.6889H67.8179V25.6846Z" fill="#A4F9D3"/>
<path d="M76.8694 36.7805H67.8179V42.1145C69.4614 41.4965 72.9447 40.4744 73.7291 41.3301C74.5134 42.1858 73.0612 42.9512 72.2371 43.2269H76.8694V36.7805Z" fill="#A4F9D3"/>
<path d="M81.6438 43.3553V36.7805H90.4111V43.4551L81.6438 43.3553Z" fill="#A4F9D3"/>
<path d="M108.997 43.2269V36.7805H118.12V43.2269H108.997Z" fill="#A4F9D3"/>
<path d="M104.578 36.7805H95.0861V43.4551L104.578 43.3553V36.7805Z" fill="#A4F9D3"/>
<path d="M108.997 54.0661V47.9192H118.12V54.0661C115.079 54.1137 108.997 54.1802 108.997 54.0661Z" fill="#A4F9D3"/>
<path d="M104.578 54.0661V47.9192H95.0861V54.0661H104.578Z" fill="#A4F9D3"/>
<path d="M81.6438 47.9192H90.4111V54.0661H81.6438V47.9192Z" fill="#A4F9D3"/>
<path d="M48.4642 41.3443C48.1135 42.4951 47.432 45.2799 47.5116 47.2121C47.6111 49.6275 48.1371 52.8526 43.7297 53.6056C42.6304 53.6056 41.8115 53.5292 41.2133 53.4206M39.7915 52.8384C39.87 52.9953 40.2641 53.2484 41.2133 53.4206M41.2133 53.4206V54.7421M36.1519 55.3106C37.4826 56.1062 40.0806 56.1441 41.2133 56.0636V54.7421M25.3893 55.3106C25.1618 55.3106 22.0198 56.0636 20.1288 62.315C18.2379 68.5665 15.4229 70.8681 16.4607 76.7786C17.4352 78.4016 18.8 79.5908 20.1288 80.4235M40.9147 75.6846L26.2566 73.0135M40.9147 75.6846C42.0663 74.7753 44.6312 72.6214 45.6776 71.2802C46.3166 70.461 46.6944 70.4152 46.8406 70.7118M40.9147 75.6846C40.4403 77.9346 39.3291 81.2891 38.3863 83.7404M47.7817 79.2934C49.0496 79.2835 50.0826 79.202 50.9238 79.0706M50.9238 79.0706C54.9501 78.4417 54.582 76.6705 54.535 76.1534C54.4781 75.5283 53.5967 75.6846 53.2697 75.6846C52.9427 75.6846 50.9238 76.466 48.3504 76.7786C45.7771 77.0911 45.3648 76.7786 45.2084 75.6846C45.052 74.5906 45.9477 73.3829 46.5732 72.2747C46.8932 71.708 46.9937 71.0223 46.8406 70.7118M50.9238 79.0706C51.9522 78.8211 54.1142 78.4719 54.535 79.0706C55.0075 79.7429 54.9982 81.5767 52.0754 82.0974M47.0993 81.9644C47.0472 82.1207 47.7476 82.3907 50.9664 82.2202C51.3758 82.1985 51.7443 82.1564 52.0754 82.0974M52.0754 82.0974C52.7531 81.982 54.0573 82.0866 53.8526 83.4278C53.6692 84.6292 51.7557 85.028 48.9333 84.7499M45.2084 84.1098C46.5584 84.4239 47.8169 84.6399 48.9333 84.7499M48.9333 84.7499C49.1893 84.7735 51.919 85.5306 50.9238 87.1503C50.1276 88.446 45.5591 87.2355 43.3743 86.4683C43.1176 86.3593 42.817 86.2285 42.4929 86.0832M38.3863 83.7404C37.6623 85.6231 37.0376 86.9729 36.877 86.8803C36.5813 86.7098 27.9958 83.532 23.7401 81.9644C22.921 81.7934 21.5453 81.311 20.1288 80.4235M38.3863 83.7404C38.5875 84.2343 40.8447 85.3447 42.4929 86.0832M46.8406 70.7118L47.0993 69.7796M42.4929 86.0832L41.4976 89.2388H49.4736M46.0472 62.5992L47.0993 69.7796M47.0993 69.7796L48.3504 65.2703H49.7722M41.2133 54.7421C42.7061 54.4154 46.1098 54.8076 47.7817 58.9904C49.4537 63.1732 49.8053 64.9198 49.7722 65.2703M49.7722 65.2703H51.4925M51.4925 65.2703L54.535 53.904L56.7387 54.3326M51.4925 65.2703H62.4967M62.4967 65.2703H65.6388L64.5432 69.2769M62.4967 65.2703L65.6388 56.0636L63.9896 55.7428M56.7387 54.3326C56.7387 53.1373 56.7387 49.5043 56.7387 47.8373C56.5918 47.3447 56.6562 46.1835 58.0894 45.4788C59.8239 44.0722 60.5916 43.8165 61.5442 44.0722C62.3062 44.2768 61.0655 46.2507 60.3499 47.2121C60.6622 47.487 61.1374 48.0195 61.4015 48.6187M56.7387 54.3326L63.9896 55.7428M61.5442 49.8264C61.6566 49.4309 61.5742 49.0105 61.4015 48.6187M61.4015 48.6187C61.5581 48.3582 61.9337 47.8373 62.184 47.8373C62.4967 47.8373 63.1508 48.6613 63.1508 48.9455C63.1837 48.4885 63.3721 47.7287 63.8616 47.8665M63.9896 55.7428C64.345 55.812 66.0085 52.6963 66.1648 52.3127C66.3913 52.0864 66.6734 50.5699 66.4497 49.4854M66.5203 51.5313C67.0558 52.4074 68.2093 53.6767 68.5392 51.7444C68.869 49.8122 68.5723 48.4387 68.3828 47.9936M68.3828 47.9936C68.3828 49.4371 67.0941 49.5896 66.4497 49.4854M68.3828 47.9936C68.542 46.5273 68.3164 44.8437 68.1837 44.1852M66.4497 49.4854C66.4206 49.3442 66.3829 49.2103 66.3355 49.0876C66.2612 48.8957 66.1683 48.7722 66.0653 48.7M61.2598 45.6493C61.4792 45.6027 61.7122 45.5533 61.9565 45.5015M56.7387 46.587C55.388 47.0416 55.0184 46.7859 54.6914 46.2886C54.3274 45.3793 58.2173 44.2995 60.2077 43.8733L71.1836 41.2022C72.0129 40.9986 73.7114 40.8186 73.8707 41.7279C74.0697 42.8645 72.0651 43.4044 71.9513 43.4044C71.9078 43.4044 70.2684 43.7464 68.1837 44.1852M61.9565 45.5015C61.8285 45.7629 61.4731 47.0416 61.8285 47.9936M61.9565 45.5015C63.2313 45.2311 64.8111 44.8967 66.3355 44.5748M64.1033 45.1662C63.9801 45.413 63.7593 46.2986 63.8616 47.8665M63.8616 47.8665C63.9352 47.8872 64.0156 47.9282 64.1033 47.9936C64.7744 48.4937 64.9801 48.9313 64.999 49.0876C65.2377 48.8123 65.7109 48.4518 66.0653 48.7M66.3355 44.5748C66.1554 45.2666 65.8492 47.0602 66.0653 48.7M66.3355 44.5748C66.9698 44.4409 67.5945 44.3092 68.1837 44.1852M58.7434 44.0722C58.6019 43.4226 58.7219 42.1446 60.2077 41.8934M63.3214 42.9782C63.1507 42.5614 62.3574 41.7535 60.549 41.8558C60.4279 41.8626 60.3143 41.8754 60.2077 41.8934M60.2077 41.8934V15.6139H125.679V69.2769M60.2346 85.0333L59.0846 89.2388H49.4736M60.2346 85.0333L60.1224 93.629H125.679V69.2769M60.2346 85.0333L64.5432 69.2769M64.5432 69.2769H108.106M111.518 69.2769H125.679M67.7856 12.3604V19.3364M80.2259 12.3604V19.3364M92.7088 12.3604V19.3364M105.462 12.3604V19.3364M117.93 12.3604V19.3364M26.6547 31.342C27.6072 31.0436 29.6033 31.109 29.9673 33.7573M20.1288 80.4235L18.4654 91.0574M18.4654 91.0574L10.5179 89.5798M18.4654 91.0574L47.0993 97.181M49.4736 94.9362C49.4736 93.629 50.0139 92.3944 49.4736 89.2388M46.3316 101.699L55.1179 103.759L50.4546 126.648C49.8053 128.836 48.2253 131.743 47.0993 125.867C45.9733 119.99 46.1183 115.31 46.3316 113.705C46.142 113.364 45.3363 112.614 43.6302 112.341M12.9633 107.538H3.89258V165.961H82.9272M158.99 165.961H82.9272M82.9272 165.961V107.652H69.9325M48.1087 144.067L45.9619 152.62C53.8526 155.443 69.8671 160.741 70.7997 159.354C71.9655 157.621 64.3166 151.838 58.8571 149.523V146.539M104.353 37.0251L95.1399 43.4044M95.1399 37.0251L104.353 43.4044" stroke="black"/>
<circle cx="41.9182" cy="44.2482" r="0.598833" fill="#161616"/>
<circle cx="45.362" cy="44.2482" r="0.598833" fill="#161616"/>
<path d="M143.992 179.318H355.299" stroke="black"/>
<path d="M348.612 154.354L440 154.354" stroke="black"/>
</svg>
