<svg width="342" height="54" viewBox="0 0 342 54" fill="none" xmlns="http://www.w3.org/2000/svg">
<path fill-rule="evenodd" clip-rule="evenodd" d="M3.13385 27.1483C1.79318 20.1232 0.656287 5.59029 6.83411 3.65973C13.0119 1.72916 22.4932 1.46102 26.4616 1.56828C32.8432 1.08564 46.1855 1.79353 48.5022 8.48616C51.3981 16.852 49.3066 31.9748 44.802 32.6183C41.1982 33.1331 36.8652 33.4763 35.1491 33.5836V36.8012C38.903 36.1041 46.8291 35.128 48.5022 36.8012C50.5937 38.8927 52.6851 49.3499 44.802 51.1196C38.4954 52.5353 21.4743 51.7095 13.752 51.1196C9.40821 51.495 0.591943 50.8944 0.0771249 45.4888C-0.566398 38.7318 2.97299 36.8012 4.90355 36.8012H16.1652V33.5836C12.1088 33.5836 3.82363 32.2965 3.13385 27.1483ZM30.8843 16.6049C31.2814 16.2947 31.3518 15.7214 31.0416 15.3243C30.7314 14.9273 30.158 14.8568 29.761 15.167C26.1102 18.0192 22.6902 16.3644 21.4505 15.2165C21.0808 14.8742 20.5036 14.8964 20.1613 15.2661C19.8189 15.6358 19.8411 16.2131 20.2108 16.5554C21.867 18.0889 26.298 20.1879 30.8843 16.6049ZM21.961 9.81549C21.961 10.794 21.1677 11.5872 20.1892 11.5872C19.2107 11.5872 18.4175 10.794 18.4175 9.81549C18.4175 8.83699 19.2107 8.04376 20.1892 8.04376C21.1677 8.04376 21.961 8.83699 21.961 9.81549ZM30.8195 11.5872C31.798 11.5872 32.5912 10.794 32.5912 9.81549C32.5912 8.83699 31.798 8.04376 30.8195 8.04376C29.841 8.04376 29.0477 8.83699 29.0477 9.81549C29.0477 10.794 29.841 11.5872 30.8195 11.5872Z" fill="#1DC078"/>
<path fill-rule="evenodd" clip-rule="evenodd" d="M97.49 0C93.3584 0 90.0091 3.34934 90.0091 7.48096V8.52693H84.6741C82.0372 4.09542 77.1997 1.12613 71.6687 1.12613C63.3166 1.12613 56.5459 7.89682 56.5459 16.2489V35.7155C56.5459 44.0676 63.3166 50.8383 71.6687 50.8383C77.3323 50.8383 82.2687 47.7249 84.8599 43.1163H90.0091V45.9314C90.0091 50.0631 93.3584 53.4124 97.49 53.4124C101.622 53.4124 104.971 50.0631 104.971 45.9314V7.48096C104.971 3.34934 101.622 0 97.49 0ZM90.0091 29.8162V22.3092C89.531 21.8443 88.8783 21.558 88.1588 21.558C86.6927 21.558 85.5042 22.7465 85.5042 24.2126V27.9128C85.5042 29.3789 86.6927 30.5673 88.1588 30.5673C88.8783 30.5673 89.531 30.2811 90.0091 29.8162ZM69.577 22.0409C69.577 20.8859 70.5134 19.9495 71.6684 19.9495C72.8235 19.9495 73.7599 20.8859 73.7599 22.0409V30.085C73.7599 31.24 72.8235 32.1764 71.6684 32.1764C70.5134 32.1764 69.577 31.24 69.577 30.085V22.0409Z" fill="#1DC078"/>
<path d="M122.254 4.79338C112.941 11.192 127.179 27.7364 133.495 34.4749C133.763 36.2397 134.298 40.5396 134.298 43.62C134.298 47.4706 136.064 52.1234 142.488 51.8025C147.626 51.5458 149.232 47.0962 149.393 44.9035V34.4749C153.086 31.587 158.225 23.2441 160.633 16.8264C163.042 10.4088 161.757 2.0659 151.48 2.54722C141.203 3.02854 140.882 8.8044 141.685 15.7033C142.488 22.6023 143.13 26.2924 141.685 26.4529C140.24 26.6133 139.276 22.2814 138.152 12.8154C137.028 3.34942 131.889 -1.24215 122.254 4.79338Z" fill="#1DC078"/>
<path fill-rule="evenodd" clip-rule="evenodd" d="M184.527 1.76953C172.043 1.76953 161.923 11.8896 161.923 24.3733V29.1997C161.923 41.6834 172.043 51.8034 184.527 51.8034C197.011 51.8034 207.131 41.6834 207.131 29.1997V24.3733C207.131 11.8896 197.011 1.76953 184.527 1.76953ZM182.757 28.4757C183.052 27.6445 183.674 25.596 183.803 24.0515C183.964 22.1209 184.044 21.7187 185.09 21.7187C186.136 21.7187 186.618 22.0405 186.377 24.0515C186.136 26.0625 185.653 29.2801 184.527 31.2911C183.401 33.3021 181.712 31.6129 182.033 30.6476L182.757 28.4757Z" fill="#1DC078"/>
<path fill-rule="evenodd" clip-rule="evenodd" d="M217.427 1.44751C212.984 1.44751 209.383 5.04894 209.383 9.49154V27.5102C209.383 27.9524 209.418 28.3863 209.487 28.8091C209.182 37.1072 212.933 51.9641 230.619 51.9641C248.378 51.9641 249.915 36.7598 250.001 28.6832C250.057 28.3003 250.086 27.9086 250.086 27.5102V9.4916C250.086 5.04901 246.484 1.44757 242.042 1.44757C237.599 1.44757 233.998 5.04901 233.998 9.4916V27.5067L233.998 27.5103C233.998 30.3257 233.515 33.3824 229.252 33.3824C226.182 33.3824 225.445 30.212 225.446 28.1509C225.462 27.9403 225.471 27.7273 225.471 27.5125L225.471 27.5103L225.471 27.5105V27.5102V9.49154C225.471 5.04894 221.869 1.44751 217.427 1.44751Z" fill="#1DC078"/>
<path fill-rule="evenodd" clip-rule="evenodd" d="M278.24 9.16999C278.24 4.63855 281.913 0.965088 286.445 0.965088C290.976 0.965088 294.65 4.63855 294.65 9.16998V44.2419C294.65 48.7733 290.976 52.4468 286.445 52.4468C282.727 52.4468 279.587 49.9743 278.579 46.5839L278.579 46.584L270.357 30.7466V44.2422C270.357 48.7737 266.683 52.4472 262.152 52.4472C257.62 52.4472 253.947 48.7737 253.947 44.2423V9.17035C253.947 4.63891 257.62 0.965445 262.152 0.965445C265.624 0.965445 268.592 3.12178 269.79 6.16821L269.829 6.14777L278.24 22.3481V9.16999Z" fill="#1DC078"/>
<path d="M318.56 51.8018C300.654 51.2906 297.788 31.5654 298.593 21.7668C299.479 9.62492 307.449 3.31434 321.378 2.19602C335.306 1.07769 337.802 7.86754 338.043 10.5036C338.285 13.1397 336.594 20.3289 330.395 20.7283C324.195 21.1277 324.679 19.1307 320.814 19.1307C312.119 19.7697 313.89 27.1986 313.89 29.9146C314.231 36.5385 326.852 33.7488 329.107 32.1512C331.361 30.5536 330.636 29.2755 329.509 29.2755C328.382 29.2755 328.221 30.4737 326.208 31.6719C324.195 32.8701 319.928 32.6305 319.043 28.1572C318.334 24.5786 322.934 23.4709 325.323 23.3644C341.038 21.4472 342.82 30.2341 341.747 34.8672C341.478 40.7251 336.465 52.3131 318.56 51.8018Z" fill="#1DC078"/>
</svg>
